<svg width="20" height="20" viewBox="0 0 20 20" fill="none" xmlns="http://www.w3.org/2000/svg">
<path d="M7.76561 6.83281L5.89061 12.6828C5.87948 12.7153 5.87623 12.75 5.88111 12.784C5.886 12.818 5.89888 12.8504 5.91871 12.8785C5.93854 12.9065 5.96474 12.9295 5.99517 12.9455C6.02559 12.9614 6.05937 12.9699 6.09373 12.9703H6.61873C6.66559 12.9702 6.71115 12.9549 6.7486 12.9267C6.78606 12.8986 6.8134 12.859 6.82654 12.8141L7.12029 11.8766H9.68748L9.65155 11.8187L9.97342 12.8141C9.98657 12.859 10.0139 12.8986 10.0514 12.9267C10.0888 12.9549 10.1344 12.9702 10.1812 12.9703H10.7062C10.7406 12.9705 10.7746 12.9625 10.8053 12.9471C10.836 12.9316 10.8626 12.909 10.8829 12.8813C10.9032 12.8535 10.9166 12.8213 10.922 12.7874C10.9274 12.7534 10.9247 12.7186 10.914 12.6859L9.03905 6.83594C9.02568 6.79109 8.99828 6.75171 8.96087 6.72359C8.92347 6.69546 8.87803 6.68008 8.83123 6.67969H7.96873C7.92308 6.68062 7.87887 6.69591 7.84241 6.7234C7.80594 6.75089 7.77907 6.78917 7.76561 6.83281ZM7.43279 10.9391L8.39998 7.92812L9.37498 10.9391H7.43279Z" fill="#3C82F6"/>
<path d="M13.0625 6.67969H12.5625C12.4417 6.67969 12.3438 6.77763 12.3438 6.89844V12.7484C12.3438 12.8692 12.4417 12.9672 12.5625 12.9672H13.0625C13.1833 12.9672 13.2812 12.8692 13.2812 12.7484V6.89844C13.2812 6.77763 13.1833 6.67969 13.0625 6.67969Z" fill="#3C82F6"/>
<path d="M10.5094 15.3125H5.9625C5.62435 15.3125 5.30005 15.1782 5.06094 14.9391C4.82183 14.7 4.6875 14.3757 4.6875 14.0375V5.9625C4.6875 5.62435 4.82183 5.30005 5.06094 5.06094C5.30005 4.82183 5.62435 4.6875 5.9625 4.6875H14.0375C14.3757 4.6875 14.7 4.82183 14.9391 5.06094C15.1782 5.30005 15.3125 5.62435 15.3125 5.9625V10C15.3154 10.0852 15.3518 10.1659 15.4138 10.2244C15.4758 10.283 15.5585 10.3146 15.6438 10.3125C15.9098 10.3117 16.1724 10.3727 16.4109 10.4906C16.4604 10.516 16.5157 10.5282 16.5713 10.5258C16.6269 10.5235 16.6809 10.5068 16.7281 10.4774C16.7753 10.448 16.8141 10.4068 16.8407 10.3579C16.8673 10.309 16.8807 10.2541 16.8797 10.1984V5.9625C16.8797 5.58948 16.8061 5.22012 16.6632 4.87556C16.5204 4.53099 16.3109 4.21798 16.0469 3.95443C15.783 3.69088 15.4696 3.48197 15.1248 3.33965C14.78 3.19733 14.4105 3.12439 14.0375 3.125H5.9625C5.20995 3.125 4.48822 3.42395 3.95608 3.95609C3.42395 4.48822 3.125 5.20995 3.125 5.9625V14.0375C3.125 14.7901 3.42395 15.5118 3.95608 16.0439C4.48822 16.5761 5.20995 16.875 5.9625 16.875H11.1656C11.2296 16.8751 11.2921 16.8562 11.3453 16.8208C11.3985 16.7853 11.44 16.7349 11.4646 16.6759C11.4892 16.6169 11.4957 16.5519 11.4834 16.4892C11.4711 16.4264 11.4404 16.3688 11.3953 16.3234C11.1522 16.1004 10.9552 15.8318 10.8156 15.5328C10.7933 15.4692 10.7519 15.4139 10.6971 15.3745C10.6424 15.3351 10.5768 15.3135 10.5094 15.3125Z" fill="#3C82F6"/>
<path d="M17.4575 15.9055L18.8731 15.3477C18.9023 15.3361 18.9273 15.3161 18.9449 15.2902C18.9625 15.2643 18.972 15.2337 18.972 15.2023C18.972 15.171 18.9625 15.1404 18.9449 15.1145C18.9273 15.0886 18.9023 15.0685 18.8731 15.057L17.4575 14.4992C17.2069 14.4001 16.9793 14.2507 16.7888 14.0602C16.5982 13.8696 16.4488 13.642 16.3497 13.3914L15.7919 11.9852C15.7803 11.9561 15.7603 11.9312 15.7344 11.9136C15.7084 11.8961 15.6779 11.8867 15.6466 11.8867C15.6153 11.8867 15.5847 11.8961 15.5588 11.9136C15.5329 11.9312 15.5128 11.9561 15.5013 11.9852L14.9434 13.3914C14.8446 13.6421 14.6953 13.8699 14.5047 14.0605C14.3141 14.251 14.0864 14.4004 13.8356 14.4992L12.4294 15.057C12.4002 15.0685 12.3752 15.0886 12.3576 15.1145C12.34 15.1404 12.3306 15.171 12.3306 15.2023C12.3306 15.2337 12.34 15.2643 12.3576 15.2902C12.3752 15.3161 12.4002 15.3361 12.4294 15.3477L13.8356 15.9055C14.0864 16.0043 14.3141 16.1537 14.5047 16.3442C14.6953 16.5348 14.8446 16.7625 14.9434 17.0133L15.5013 18.4195C15.5126 18.4489 15.5325 18.4742 15.5585 18.492C15.5844 18.5098 15.6151 18.5194 15.6466 18.5195C15.678 18.5194 15.7088 18.5098 15.7347 18.492C15.7606 18.4742 15.7806 18.4489 15.7919 18.4195L16.3497 17.0133C16.4488 16.7627 16.5982 16.5351 16.7888 16.3445C16.9793 16.154 17.2069 16.0046 17.4575 15.9055Z" fill="#3C82F6"/>
</svg>
