<svg width="96" height="96" viewBox="0 0 96 96" fill="none" xmlns="http://www.w3.org/2000/svg">
<g filter="url(#filter0_dd_2142_75434)">
<path d="M16 30C16 16.7452 26.7452 6 40 6H56C69.2548 6 80 16.7452 80 30V46C80 59.2548 69.2548 70 56 70H40C26.7452 70 16 59.2548 16 46V30Z" fill="url(#paint0_linear_2142_75434)" shape-rendering="crispEdges"/>
<g clip-path="url(#clip0_2142_75434)">
<path d="M46.6894 25.7521C46.7466 25.4462 46.9089 25.17 47.1482 24.9712C47.3876 24.7724 47.6889 24.6636 48.0001 24.6636C48.3113 24.6636 48.6126 24.7724 48.852 24.9712C49.0913 25.17 49.2536 25.4462 49.3108 25.7521L50.7121 33.1628C50.8116 33.6896 51.0677 34.1743 51.4468 34.5534C51.8259 34.9325 52.3106 35.1886 52.8374 35.2881L60.2481 36.6894C60.554 36.7466 60.8302 36.9089 61.029 37.1482C61.2278 37.3876 61.3366 37.6889 61.3366 38.0001C61.3366 38.3113 61.2278 38.6126 61.029 38.852C60.8302 39.0913 60.554 39.2536 60.2481 39.3108L52.8374 40.7121C52.3106 40.8116 51.8259 41.0677 51.4468 41.4468C51.0677 41.8259 50.8116 42.3106 50.7121 42.8374L49.3108 50.2481C49.2536 50.554 49.0913 50.8302 48.852 51.029C48.6126 51.2278 48.3113 51.3366 48.0001 51.3366C47.6889 51.3366 47.3876 51.2278 47.1482 51.029C46.9089 50.8302 46.7466 50.554 46.6894 50.2481L45.2881 42.8374C45.1886 42.3106 44.9325 41.8259 44.5534 41.4468C44.1743 41.0677 43.6896 40.8116 43.1628 40.7121L35.7521 39.3108C35.4462 39.2536 35.17 39.0913 34.9712 38.852C34.7724 38.6126 34.6636 38.3113 34.6636 38.0001C34.6636 37.6889 34.7724 37.3876 34.9712 37.1482C35.17 36.9089 35.4462 36.7466 35.7521 36.6894L43.1628 35.2881C43.6896 35.1886 44.1743 34.9325 44.5534 34.5534C44.9325 34.1743 45.1886 33.6896 45.2881 33.1628L46.6894 25.7521Z" stroke="white" stroke-width="3.33333" stroke-linecap="round" stroke-linejoin="round"/>
<path d="M58.6667 24.6667V30.0001" stroke="white" stroke-width="3.33333" stroke-linecap="round" stroke-linejoin="round"/>
<path d="M61.3333 27.3333H56" stroke="white" stroke-width="3.33333" stroke-linecap="round" stroke-linejoin="round"/>
<path d="M37.3334 51.3333C38.8062 51.3333 40.0001 50.1394 40.0001 48.6667C40.0001 47.1939 38.8062 46 37.3334 46C35.8607 46 34.6667 47.1939 34.6667 48.6667C34.6667 50.1394 35.8607 51.3333 37.3334 51.3333Z" stroke="white" stroke-width="3.33333" stroke-linecap="round" stroke-linejoin="round"/>
</g>
<g opacity="0.8">
<path d="M68 10C68 5.58172 71.5817 2 76 2C80.4183 2 84 5.58172 84 10C84 14.4183 80.4183 18 76 18C71.5817 18 68 14.4183 68 10Z" fill="#A684FF"/>
</g>
<g opacity="0.8">
<path d="M12 68C12 64.6863 14.6863 62 18 62C21.3137 62 24 64.6863 24 68C24 71.3137 21.3137 74 18 74C14.6863 74 12 71.3137 12 68Z" fill="#51A2FF"/>
</g>
</g>
<defs>
<filter id="filter0_dd_2142_75434" x="0" y="0" width="96" height="96" filterUnits="userSpaceOnUse" color-interpolation-filters="sRGB">
<feFlood flood-opacity="0" result="BackgroundImageFix"/>
<feColorMatrix in="SourceAlpha" type="matrix" values="0 0 0 0 0 0 0 0 0 0 0 0 0 0 0 0 0 0 127 0" result="hardAlpha"/>
<feMorphology radius="4" operator="erode" in="SourceAlpha" result="effect1_dropShadow_2142_75434"/>
<feOffset dy="4"/>
<feGaussianBlur stdDeviation="3"/>
<feComposite in2="hardAlpha" operator="out"/>
<feColorMatrix type="matrix" values="0 0 0 0 0.770067 0 0 0 0 0.703936 0 0 0 0 1 0 0 0 0.5 0"/>
<feBlend mode="normal" in2="BackgroundImageFix" result="effect1_dropShadow_2142_75434"/>
<feColorMatrix in="SourceAlpha" type="matrix" values="0 0 0 0 0 0 0 0 0 0 0 0 0 0 0 0 0 0 127 0" result="hardAlpha"/>
<feMorphology radius="3" operator="erode" in="SourceAlpha" result="effect2_dropShadow_2142_75434"/>
<feOffset dy="10"/>
<feGaussianBlur stdDeviation="7.5"/>
<feComposite in2="hardAlpha" operator="out"/>
<feColorMatrix type="matrix" values="0 0 0 0 0.770067 0 0 0 0 0.703936 0 0 0 0 1 0 0 0 0.5 0"/>
<feBlend mode="normal" in2="effect1_dropShadow_2142_75434" result="effect2_dropShadow_2142_75434"/>
<feBlend mode="normal" in="SourceGraphic" in2="effect2_dropShadow_2142_75434" result="shape"/>
</filter>
<linearGradient id="paint0_linear_2142_75434" x1="16" y1="6" x2="80" y2="70" gradientUnits="userSpaceOnUse">
<stop stop-color="#2B7FFF"/>
<stop offset="1" stop-color="#7F22FE"/>
</linearGradient>
<clipPath id="clip0_2142_75434">
<rect width="32" height="32" fill="white" transform="translate(32 22)"/>
</clipPath>
</defs>
</svg>
