<svg width="16" height="16" viewBox="0 0 16 16" fill="none" xmlns="http://www.w3.org/2000/svg">
<g clip-path="url(#clip0_2142_75584)">
<path d="M7.3446 1.87605C7.37316 1.72312 7.45431 1.58499 7.57399 1.4856C7.69368 1.3862 7.84435 1.33179 7.99993 1.33179C8.1555 1.33179 8.30618 1.3862 8.42586 1.4856C8.54555 1.58499 8.6267 1.72312 8.65526 1.87605L9.35593 5.58138C9.40569 5.84482 9.53371 6.08713 9.72328 6.2767C9.91285 6.46627 10.1552 6.59429 10.4186 6.64405L14.1239 7.34472C14.2769 7.37328 14.415 7.45443 14.5144 7.57412C14.6138 7.6938 14.6682 7.84447 14.6682 8.00005C14.6682 8.15563 14.6138 8.3063 14.5144 8.42599C14.415 8.54567 14.2769 8.62682 14.1239 8.65538L10.4186 9.35605C10.1552 9.40581 9.91285 9.53383 9.72328 9.7234C9.53371 9.91297 9.40569 10.1553 9.35593 10.4187L8.65526 14.1241C8.6267 14.277 8.54555 14.4151 8.42586 14.5145C8.30618 14.6139 8.1555 14.6683 7.99993 14.6683C7.84435 14.6683 7.69368 14.6139 7.57399 14.5145C7.45431 14.4151 7.37316 14.277 7.3446 14.1241L6.64393 10.4187C6.59416 10.1553 6.46614 9.91297 6.27658 9.7234C6.08701 9.53383 5.84469 9.40581 5.58126 9.35605L1.87593 8.65538C1.723 8.62682 1.58487 8.54567 1.48547 8.42599C1.38608 8.3063 1.33167 8.15563 1.33167 8.00005C1.33167 7.84447 1.38608 7.6938 1.48547 7.57412C1.58487 7.45443 1.723 7.37328 1.87593 7.34472L5.58126 6.64405C5.84469 6.59429 6.08701 6.46627 6.27658 6.2767C6.46614 6.08713 6.59416 5.84482 6.64393 5.58138L7.3446 1.87605Z" stroke="#8200DB" stroke-width="1.66667" stroke-linecap="round" stroke-linejoin="round"/>
<path d="M13.3334 1.33325V3.99992" stroke="#8200DB" stroke-width="1.66667" stroke-linecap="round" stroke-linejoin="round"/>
<path d="M14.6667 2.66675H12" stroke="#8200DB" stroke-width="1.66667" stroke-linecap="round" stroke-linejoin="round"/>
<path d="M2.66671 14.6667C3.40309 14.6667 4.00004 14.0697 4.00004 13.3333C4.00004 12.597 3.40309 12 2.66671 12C1.93033 12 1.33337 12.597 1.33337 13.3333C1.33337 14.0697 1.93033 14.6667 2.66671 14.6667Z" stroke="#8200DB" stroke-width="1.66667" stroke-linecap="round" stroke-linejoin="round"/>
</g>
<defs>
<clipPath id="clip0_2142_75584">
<rect width="16" height="16" fill="white"/>
</clipPath>
</defs>
</svg>
