<svg width="20" height="19" viewBox="0 0 20 19" fill="none" xmlns="http://www.w3.org/2000/svg">
<path d="M5.56873 4.44937L3.31873 11.4694C3.30538 11.5084 3.30147 11.55 3.30734 11.5908C3.3132 11.6316 3.32866 11.6705 3.35245 11.7042C3.37625 11.7378 3.40769 11.7654 3.4442 11.7845C3.48071 11.8037 3.52125 11.8139 3.56248 11.8144H4.19248C4.24871 11.8142 4.30338 11.7959 4.34832 11.7621C4.39327 11.7283 4.42608 11.6808 4.44185 11.6269L4.79435 10.5019H7.87498L7.83185 10.4325L8.2181 11.6269C8.23388 11.6808 8.26669 11.7283 8.31164 11.7621C8.35658 11.7959 8.41125 11.8142 8.46748 11.8144H9.09748C9.13874 11.8146 9.17948 11.8051 9.21633 11.7865C9.25318 11.7679 9.28509 11.7408 9.30944 11.7075C9.33379 11.6742 9.34988 11.6356 9.35638 11.5948C9.36289 11.5541 9.35962 11.5124 9.34685 11.4731L7.09685 4.45312C7.08081 4.39931 7.04793 4.35205 7.00305 4.31831C6.95816 4.28456 6.90363 4.26609 6.84748 4.26562H5.81248C5.75769 4.26674 5.70465 4.28509 5.66089 4.31808C5.61713 4.35107 5.58488 4.39701 5.56873 4.44937ZM5.16935 9.37687L6.32998 5.76375L7.49998 9.37687H5.16935Z" fill="white"/>
<path d="M11.925 4.26562H11.325C11.18 4.26562 11.0625 4.38315 11.0625 4.52813V11.5481C11.0625 11.6931 11.18 11.8106 11.325 11.8106H11.925C12.07 11.8106 12.1875 11.6931 12.1875 11.5481V4.52813C12.1875 4.38315 12.07 4.26562 11.925 4.26562Z" fill="white"/>
<path d="M8.86125 14.625H3.405C2.99922 14.625 2.61006 14.4638 2.32313 14.1769C2.0362 13.8899 1.875 13.5008 1.875 13.095V3.405C1.875 2.99922 2.0362 2.61006 2.32313 2.32313C2.61006 2.0362 2.99922 1.875 3.405 1.875H13.095C13.5008 1.875 13.8899 2.0362 14.1769 2.32313C14.4638 2.61006 14.625 2.99922 14.625 3.405V8.25C14.6284 8.35229 14.6721 8.44909 14.7466 8.51932C14.821 8.58955 14.9202 8.62753 15.0225 8.625C15.3418 8.62403 15.6569 8.69721 15.9431 8.83875C16.0025 8.86923 16.0688 8.88379 16.1355 8.88101C16.2022 8.87822 16.2671 8.8582 16.3238 8.82288C16.3804 8.78756 16.427 8.73815 16.4588 8.67949C16.4907 8.62082 16.5068 8.55489 16.5056 8.48813V3.405C16.5056 2.95738 16.4174 2.51415 16.2459 2.10067C16.0744 1.68719 15.8231 1.31157 15.5063 0.995315C15.1896 0.679058 14.8135 0.428365 14.3998 0.257579C13.986 0.0867924 13.5426 -0.000734821 13.095 4.64662e-06H3.405C2.50194 4.64662e-06 1.63586 0.358745 0.997301 0.997306C0.35874 1.63587 0 2.50194 0 3.405V13.095C0 13.9981 0.35874 14.8641 0.997301 15.5027C1.63586 16.1413 2.50194 16.5 3.405 16.5H9.64875C9.72547 16.5001 9.8005 16.4775 9.86436 16.4349C9.92822 16.3924 9.97804 16.3319 10.0075 16.2611C10.037 16.1903 10.0449 16.1123 10.0301 16.037C10.0153 15.9617 9.97849 15.8925 9.92438 15.8381C9.63263 15.5705 9.39629 15.2481 9.22875 14.8894C9.2019 14.813 9.15227 14.7467 9.08655 14.6994C9.02083 14.6522 8.9422 14.6262 8.86125 14.625Z" fill="white"/>
<path d="M17.1992 15.3381L18.898 14.6688C18.9329 14.6549 18.9629 14.6309 18.9841 14.5998C19.0052 14.5687 19.0165 14.532 19.0165 14.4944C19.0165 14.4568 19.0052 14.42 18.9841 14.3889C18.9629 14.3578 18.9329 14.3338 18.898 14.32L17.1992 13.6506C16.8985 13.5317 16.6254 13.3524 16.3967 13.1237C16.1681 12.8951 15.9887 12.622 15.8698 12.3212L15.2005 10.6337C15.1866 10.5989 15.1625 10.569 15.1314 10.5479C15.1003 10.5268 15.0636 10.5156 15.0261 10.5156C14.9885 10.5156 14.9518 10.5268 14.9207 10.5479C14.8897 10.569 14.8656 10.5989 14.8517 10.6337L14.1823 12.3212C14.0637 12.6221 13.8845 12.8954 13.6558 13.1241C13.4271 13.3528 13.1538 13.532 12.853 13.6506L11.1655 14.32C11.1305 14.3338 11.1005 14.3578 11.0793 14.3889C11.0582 14.42 11.0469 14.4568 11.0469 14.4944C11.0469 14.532 11.0582 14.5687 11.0793 14.5998C11.1005 14.6309 11.1305 14.6549 11.1655 14.6688L12.853 15.3381C13.1538 15.4567 13.4271 15.636 13.6558 15.8646C13.8845 16.0933 14.0637 16.3666 14.1823 16.6675L14.8517 18.355C14.8653 18.3902 14.8892 18.4205 14.9203 18.442C14.9515 18.4634 14.9883 18.4749 15.0261 18.475C15.0639 18.4749 15.1007 18.4634 15.1318 18.442C15.1629 18.4205 15.1869 18.3902 15.2005 18.355L15.8698 16.6675C15.9887 16.3668 16.1681 16.0937 16.3967 15.865C16.6254 15.6363 16.8985 15.457 17.1992 15.3381Z" fill="white"/>
</svg>
