<svg width="29" height="29" viewBox="0 0 29 29" fill="none" xmlns="http://www.w3.org/2000/svg">
<path fill-rule="evenodd" clip-rule="evenodd" d="M23.75 4.75V23.75H4.75V4.75H23.75ZM12.747 9.5H10.8966L7.38358 19H9.05295L9.7162 17.1428H13.9216L14.5706 19H16.3405L12.747 9.5ZM19.3038 9.5H17.6412V19H19.3038V9.5ZM11.8078 11.0939L13.464 15.8333H10.178L11.8078 11.0939ZM25.3333 19H28.5V22.1667H25.3333V19ZM6.33333 25.3333H9.5V28.5H6.33333V25.3333ZM12.6667 25.3333H15.8333V28.5H12.6667V25.3333ZM6.33333 0H9.5V3.16667H6.33333V0ZM19 25.3333H22.1667V28.5H19V25.3333ZM12.6667 0H15.8333V3.16667H12.6667V0ZM19 0H22.1667V3.16667H19V0ZM25.3333 12.6667H28.5V15.8333H25.3333V12.6667ZM0 19H3.16667V22.1667H0V19ZM25.3333 6.33333H28.5V9.5H25.3333V6.33333ZM0 12.6667H3.16667V15.8333H0V12.6667ZM0 6.33333H3.16667V9.5H0V6.33333Z" fill="white"/>
</svg>
