<svg width="24" height="24" viewBox="0 0 24 24" fill="none" xmlns="http://www.w3.org/2000/svg">
<path d="M23.5963 4.80091L23.5549 4.75951C23.0168 4.22148 22.065 4.22148 21.5269 4.75951L19.3749 6.95298C19.2507 7.07713 19.0852 7.07713 18.961 6.95298L15.9397 4.13874C15.6501 3.8904 15.2776 3.72485 14.8637 3.72485H10.3526C10.2284 3.72485 10.1456 3.76625 10.1042 3.80765L6.29667 7.44966C5.75864 8.02908 5.71725 8.93955 6.21388 9.47758C6.46222 9.76727 6.83465 9.93281 7.24854 9.93281C7.66242 9.93281 8.03486 9.76727 8.2832 9.47758L10.9733 6.62194H11.9252L5.63454 13.6576H1.74424C0.792377 13.6576 0.0474066 14.3611 0.00600897 15.2303C-0.0353887 15.6855 0.130155 16.1408 0.461243 16.4719C0.79233 16.7616 1.20621 16.9685 1.66145 16.9685H7.45557C7.57972 16.9685 7.66251 16.9271 7.74526 16.8443L10.7251 13.6576L13.2083 16.265L12.4633 21.0658C12.2563 21.8935 12.6702 22.6799 13.3738 23.011C13.6221 23.1351 13.829 23.1765 14.0774 23.1765C14.3257 23.1765 14.574 23.1351 14.8223 23.011C15.2362 22.804 15.5673 22.3902 15.6915 21.8935L16.9744 14.982C16.9744 14.8578 16.933 14.6923 16.8503 14.6095L13.4152 11.1744L16.1467 8.44292L18.0505 10.3467C18.5885 10.8847 19.499 10.8847 20.037 10.3467L23.5962 6.78748C24.1343 6.24941 24.1343 5.33894 23.5963 4.80091ZM23.0168 6.20806L19.4576 9.76727C19.2093 9.97421 18.8368 9.97421 18.6299 9.76727L16.4364 7.5738C16.2709 7.40826 16.0225 7.40826 15.857 7.5738L12.5461 10.8847C12.4633 10.9675 12.4219 11.0503 12.4219 11.1744C12.4219 11.2986 12.4633 11.3814 12.5875 11.5055L16.1467 15.0647L14.9051 21.7279C14.8223 21.9349 14.6567 22.1418 14.4499 22.2659C14.2429 22.3487 13.9946 22.3901 13.7463 22.2659C13.3738 22.1004 13.2083 21.6865 13.291 21.2313L14.0774 16.1821C14.0774 16.058 14.036 15.9338 13.9532 15.851L11.0148 12.7885C10.932 12.7057 10.8492 12.6643 10.7251 12.6643C10.601 12.6643 10.4768 12.7057 10.4354 12.7885L7.29003 16.1407H1.66149C1.41315 16.1407 1.20626 16.0579 1.04072 15.8924C0.91657 15.7268 0.833775 15.5199 0.833775 15.2716C0.833775 14.8164 1.24766 14.4853 1.74429 14.4853H5.80013C5.92428 14.4853 6.00708 14.4439 6.08982 14.4439L13.1255 6.58049C13.2496 6.45635 13.2497 6.29081 13.2083 6.12526C13.1669 5.95972 13.0014 5.87692 12.8358 5.87692H10.7665C10.6837 5.87692 10.5596 5.91832 10.4768 6.00107L7.66251 8.9809C7.57972 9.10505 7.41417 9.18784 7.24863 9.18784C7.08309 9.18784 6.91754 9.10505 6.7934 8.9809C6.58646 8.73256 6.58646 8.36013 6.83479 8.11179L10.5182 4.59397H14.9051C15.0707 4.59397 15.2776 4.67677 15.4018 4.80091L18.423 7.6152C18.8782 8.02908 19.5818 7.98769 19.9956 7.5738L22.1478 5.38034C22.3547 5.1734 22.7685 5.1734 22.9755 5.38034L23.0169 5.42174C23.2238 5.62863 23.2238 6.00112 23.0168 6.20806Z" fill="#3C82F6"/>
<path d="M19.044 4.96636C20.4097 4.96636 21.5272 3.84895 21.5272 2.48316C21.5272 1.11736 20.4097 0 19.044 0C17.6782 0 16.5608 1.11741 16.5608 2.4832C16.5608 3.849 17.6782 4.96636 19.044 4.96636ZM19.044 0.827719C19.9545 0.827719 20.6994 1.57269 20.6994 2.48316C20.6994 3.39367 19.9545 4.13859 19.044 4.13859C18.1335 4.13859 17.3886 3.39362 17.3886 2.48316C17.3886 1.57269 18.1335 0.827719 19.044 0.827719Z" fill="#3C82F6"/>
</svg>
