<svg width="16" height="16" viewBox="0 0 16 16" fill="none" xmlns="http://www.w3.org/2000/svg">
<path d="M6.51991 2.59286C6.89582 2.27251 7.08376 2.11234 7.28029 2.01841C7.73482 1.80116 8.26322 1.80116 8.71776 2.01841C8.91429 2.11234 9.10222 2.27251 9.47816 2.59286C9.62776 2.72036 9.70256 2.78412 9.78249 2.83766C9.96562 2.96042 10.1713 3.04561 10.3876 3.08831C10.482 3.10694 10.5799 3.11476 10.7759 3.1304C11.2682 3.16968 11.5144 3.18933 11.7198 3.26187C12.1948 3.42966 12.5684 3.80329 12.7362 4.27831C12.8088 4.48369 12.8284 4.72986 12.8677 5.22219C12.8833 5.41814 12.8911 5.51611 12.9098 5.61048C12.9524 5.82678 13.0376 6.03245 13.1604 6.2156C13.214 6.29549 13.2777 6.3703 13.4052 6.51991C13.7256 6.89581 13.8858 7.08382 13.9797 7.28028C14.1969 7.73482 14.1969 8.26322 13.9797 8.71775C13.8858 8.91428 13.7256 9.10221 13.4052 9.47815C13.2777 9.62775 13.214 9.70255 13.1604 9.78248C13.0376 9.96562 12.9524 10.1713 12.9098 10.3876C12.8911 10.4819 12.8833 10.5799 12.8677 10.7759C12.8284 11.2682 12.8088 11.5143 12.7362 11.7197C12.5684 12.1947 12.1948 12.5684 11.7198 12.7362C11.5144 12.8087 11.2682 12.8283 10.7759 12.8677C10.5799 12.8833 10.482 12.8911 10.3876 12.9097C10.1713 12.9525 9.96562 13.0376 9.78249 13.1604C9.70256 13.2139 9.62776 13.2777 9.47816 13.4052C9.10222 13.7255 8.91429 13.8857 8.71776 13.9797C8.26322 14.1969 7.73482 14.1969 7.28029 13.9797C7.08376 13.8857 6.89582 13.7255 6.51991 13.4052C6.3703 13.2777 6.29548 13.2139 6.21559 13.1604C6.03245 13.0376 5.82678 12.9525 5.61048 12.9097C5.51612 12.8911 5.41814 12.8833 5.22219 12.8677C4.72986 12.8283 4.48368 12.8087 4.27831 12.7362C3.80329 12.5684 3.42965 12.1947 3.26187 11.7197C3.18933 11.5143 3.16968 11.2682 3.1304 10.7759C3.11476 10.5799 3.10694 10.4819 3.08831 10.3876C3.04561 10.1713 2.96042 9.96562 2.83766 9.78248C2.78412 9.70255 2.72036 9.62775 2.59286 9.47815C2.27251 9.10221 2.11234 8.91428 2.0184 8.71775C1.80116 8.26322 1.80116 7.73482 2.0184 7.28028C2.11234 7.08375 2.27251 6.89581 2.59286 6.51991C2.72036 6.3703 2.78412 6.29549 2.83766 6.2156C2.96042 6.03245 3.04561 5.82678 3.08831 5.61048C3.10694 5.51611 3.11476 5.41814 3.1304 5.22219C3.16968 4.72986 3.18933 4.48369 3.26187 4.27831C3.42965 3.80329 3.80329 3.42966 4.27831 3.26187C4.48368 3.18933 4.72986 3.16968 5.22219 3.1304C5.41814 3.11476 5.51612 3.10694 5.61048 3.08831C5.82678 3.04561 6.03245 2.96042 6.21559 2.83766C6.29549 2.78412 6.3703 2.72036 6.51991 2.59286Z" fill="#3C82F6"/>
<path d="M5.66602 8.33203L6.99935 9.66536L10.3327 6.33203" stroke="white" stroke-width="1.5" stroke-linecap="round" stroke-linejoin="round"/>
</svg>
