<svg width="122" height="122" viewBox="0 0 122 122" fill="none" xmlns="http://www.w3.org/2000/svg">
<rect x="23.1152" y="32.1045" width="75.7684" height="57.7895" fill="white"/>
<path d="M60.9993 10.167C32.9902 10.167 10.166 32.9912 10.166 61.0003C10.166 89.0095 32.9902 111.834 60.9993 111.834C89.0085 111.834 111.833 89.0095 111.833 61.0003C111.833 32.9912 89.0085 10.167 60.9993 10.167ZM85.2977 49.3087L56.4752 78.1312C55.7635 78.8428 54.7977 79.2495 53.781 79.2495C52.7643 79.2495 51.7985 78.8428 51.0868 78.1312L36.701 63.7453C35.2268 62.2712 35.2268 59.8312 36.701 58.357C38.1752 56.8828 40.6152 56.8828 42.0893 58.357L53.781 70.0487L79.9093 43.9203C81.3835 42.4462 83.8235 42.4462 85.2977 43.9203C86.7719 45.3945 86.7719 47.7837 85.2977 49.3087Z" fill="#00BD48"/>
</svg>
