<svg width="14" height="15" viewBox="0 0 14 15" fill="none" xmlns="http://www.w3.org/2000/svg">
<path d="M9.79331 0.684753H4.20665C1.77998 0.684753 0.333313 2.13142 0.333313 4.55809V10.1381C0.333313 12.5714 1.77998 14.0181 4.20665 14.0181H9.78665C12.2133 14.0181 13.66 12.5714 13.66 10.1448V4.55809C13.6666 2.13142 12.22 0.684753 9.79331 0.684753ZM10.1866 5.81809L6.40665 9.59809C6.31331 9.69142 6.18665 9.74475 6.05331 9.74475C5.91998 9.74475 5.79331 9.69142 5.69998 9.59809L3.81331 7.71142C3.61998 7.51809 3.61998 7.19809 3.81331 7.00475C4.00665 6.81142 4.32665 6.81142 4.51998 7.00475L6.05331 8.53809L9.47998 5.11142C9.67331 4.91809 9.99331 4.91809 10.1866 5.11142C10.38 5.30475 10.38 5.61809 10.1866 5.81809Z" fill="#2F80ED"/>
</svg>
