<svg width="54" height="54" viewBox="0 0 54 54" fill="none" xmlns="http://www.w3.org/2000/svg">
<path d="M33.75 9H20.25C19.6533 9 19.081 8.76295 18.659 8.34099C18.2371 7.91904 18 7.34674 18 6.75C18 6.15326 18.2371 5.58097 18.659 5.15901C19.081 4.73705 19.6533 4.5 20.25 4.5H33.75C34.3468 4.5 34.919 4.73705 35.341 5.15901C35.763 5.58097 36 6.15326 36 6.75C36 7.34674 35.763 7.91904 35.341 8.34099C34.919 8.76295 34.3468 9 33.75 9ZM33.75 49.5H20.25C17.8631 49.5 15.5739 48.5518 13.886 46.864C12.1982 45.1762 11.25 42.887 11.25 40.5V13.5H42.75V40.5C42.75 42.887 41.8018 45.1762 40.114 46.864C38.4261 48.5518 36.137 49.5 33.75 49.5Z" fill="#E63946"/>
<path d="M45 18H9C8.40326 18 7.83097 17.7629 7.40901 17.341C6.98705 16.919 6.75 16.3467 6.75 15.75C6.75 15.1533 6.98705 14.581 7.40901 14.159C7.83097 13.7371 8.40326 13.5 9 13.5H45C45.5967 13.5 46.169 13.7371 46.591 14.159C47.0129 14.581 47.25 15.1533 47.25 15.75C47.25 16.3467 47.0129 16.919 46.591 17.341C46.169 17.7629 45.5967 18 45 18Z" fill="#C9273A"/>
<path d="M22.5 40.5C21.9033 40.5 21.331 40.2629 20.909 39.841C20.4871 39.419 20.25 38.8467 20.25 38.25V24.75C20.25 24.1533 20.4871 23.581 20.909 23.159C21.331 22.7371 21.9033 22.5 22.5 22.5C23.0967 22.5 23.669 22.7371 24.091 23.159C24.5129 23.581 24.75 24.1533 24.75 24.75V38.25C24.75 38.8467 24.5129 39.419 24.091 39.841C23.669 40.2629 23.0967 40.5 22.5 40.5ZM31.5 40.5C30.9033 40.5 30.331 40.2629 29.909 39.841C29.4871 39.419 29.25 38.8467 29.25 38.25V24.75C29.25 24.1533 29.4871 23.581 29.909 23.159C30.331 22.7371 30.9033 22.5 31.5 22.5C32.0967 22.5 32.669 22.7371 33.091 23.159C33.5129 23.581 33.75 24.1533 33.75 24.75V38.25C33.75 38.8467 33.5129 39.419 33.091 39.841C32.669 40.2629 32.0967 40.5 31.5 40.5Z" fill="#EDEBEA"/>
</svg>
