<svg width="14" height="14" viewBox="0 0 14 14" fill="none" xmlns="http://www.w3.org/2000/svg">
<g clip-path="url(#clip0_2392_29008)">
<path d="M13.125 2.1875H9.14375C9.04334 1.69299 8.77506 1.24841 8.38436 0.92908C7.99367 0.609748 7.50459 0.435303 7 0.435303C6.49541 0.435303 6.00633 0.609748 5.61564 0.92908C5.22494 1.24841 4.95666 1.69299 4.85625 2.1875H0.875C0.758968 2.1875 0.647688 2.23359 0.565641 2.31564C0.483594 2.39768 0.4375 2.50896 0.4375 2.625C0.4375 2.74103 0.483594 2.85231 0.565641 2.93435C0.647688 3.0164 0.758968 3.0625 0.875 3.0625H13.125C13.241 3.0625 13.3523 3.0164 13.4344 2.93435C13.5164 2.85231 13.5625 2.74103 13.5625 2.625C13.5625 2.50896 13.5164 2.39768 13.4344 2.31564C13.3523 2.23359 13.241 2.1875 13.125 2.1875ZM7 1.3125C7.27079 1.31326 7.53471 1.39776 7.75559 1.55441C7.97647 1.71106 8.14349 1.93219 8.23375 2.1875H5.76625C5.85651 1.93219 6.02353 1.71106 6.24441 1.55441C6.46529 1.39776 6.72921 1.31326 7 1.3125ZM11.5412 3.9725C11.4616 3.93899 11.3738 3.92984 11.2889 3.94619C11.204 3.96254 11.1259 4.00366 11.0644 4.06437C11.0238 4.10525 10.9917 4.15373 10.97 4.20704C10.9482 4.26034 10.9372 4.31742 10.9375 4.375C10.9375 4.49103 10.9836 4.60231 11.0656 4.68435C11.1477 4.7664 11.259 4.8125 11.375 4.8125C11.491 4.8125 11.6023 4.7664 11.6844 4.68435C11.7664 4.60231 11.8125 4.49103 11.8125 4.375C11.8109 4.25916 11.7656 4.14821 11.6856 4.06437C11.644 4.02454 11.595 3.99332 11.5412 3.9725ZM11.375 5.6875C11.259 5.6875 11.1477 5.73359 11.0656 5.81564C10.9836 5.89768 10.9375 6.00896 10.9375 6.125V7.4375C10.9375 7.55353 10.9836 7.66481 11.0656 7.74685C11.1477 7.8289 11.259 7.875 11.375 7.875C11.491 7.875 11.6023 7.8289 11.6844 7.74685C11.7664 7.66481 11.8125 7.55353 11.8125 7.4375V6.125C11.8125 6.00896 11.7664 5.89768 11.6844 5.81564C11.6023 5.73359 11.491 5.6875 11.375 5.6875ZM11.375 8.75C11.259 8.75 11.1477 8.79609 11.0656 8.87814C10.9836 8.96018 10.9375 9.07146 10.9375 9.1875V12.25C10.9375 12.366 10.8914 12.4773 10.8094 12.5594C10.7273 12.6414 10.616 12.6875 10.5 12.6875H3.5C3.38397 12.6875 3.27269 12.6414 3.19064 12.5594C3.10859 12.4773 3.0625 12.366 3.0625 12.25V4.375C3.0625 4.25896 3.01641 4.14768 2.93436 4.06564C2.85231 3.98359 2.74103 3.9375 2.625 3.9375C2.50897 3.9375 2.39769 3.98359 2.31564 4.06564C2.23359 4.14768 2.1875 4.25896 2.1875 4.375V12.25C2.1875 12.5981 2.32578 12.9319 2.57192 13.1781C2.81806 13.4242 3.1519 13.5625 3.5 13.5625H10.5C10.8481 13.5625 11.1819 13.4242 11.4281 13.1781C11.6742 12.9319 11.8125 12.5981 11.8125 12.25V9.1875C11.8125 9.07146 11.7664 8.96018 11.6844 8.87814C11.6023 8.79609 11.491 8.75 11.375 8.75Z" fill="#898989"/>
<path d="M5.25 10.5V4.8125C5.25 4.69647 5.20391 4.58519 5.12186 4.50314C5.03981 4.42109 4.92853 4.375 4.8125 4.375C4.69647 4.375 4.58519 4.42109 4.50314 4.50314C4.42109 4.58519 4.375 4.69647 4.375 4.8125V10.5C4.375 10.616 4.42109 10.7273 4.50314 10.8094C4.58519 10.8914 4.69647 10.9375 4.8125 10.9375C4.92853 10.9375 5.03981 10.8914 5.12186 10.8094C5.20391 10.7273 5.25 10.616 5.25 10.5ZM7.4375 10.5V4.8125C7.4375 4.69647 7.39141 4.58519 7.30936 4.50314C7.22731 4.42109 7.11603 4.375 7 4.375C6.88397 4.375 6.77269 4.42109 6.69064 4.50314C6.60859 4.58519 6.5625 4.69647 6.5625 4.8125V10.5C6.5625 10.616 6.60859 10.7273 6.69064 10.8094C6.77269 10.8914 6.88397 10.9375 7 10.9375C7.11603 10.9375 7.22731 10.8914 7.30936 10.8094C7.39141 10.7273 7.4375 10.616 7.4375 10.5ZM9.625 10.5V4.8125C9.625 4.69647 9.57891 4.58519 9.49686 4.50314C9.41481 4.42109 9.30353 4.375 9.1875 4.375C9.07147 4.375 8.96019 4.42109 8.87814 4.50314C8.79609 4.58519 8.75 4.69647 8.75 4.8125V10.5C8.75 10.616 8.79609 10.7273 8.87814 10.8094C8.96019 10.8914 9.07147 10.9375 9.1875 10.9375C9.30353 10.9375 9.41481 10.8914 9.49686 10.8094C9.57891 10.7273 9.625 10.616 9.625 10.5Z" fill="#898989"/>
</g>
<defs>
<clipPath id="clip0_2392_29008">
<rect width="14" height="14" fill="white"/>
</clipPath>
</defs>
</svg>
