<svg width="24" height="24" viewBox="0 0 24 24" fill="none" xmlns="http://www.w3.org/2000/svg">
<mask id="mask0_1_23657" style="mask-type:luminance" maskUnits="userSpaceOnUse" x="0" y="0" width="24" height="24">
<path d="M0 6.67572e-05H23.9999V24H0V6.67572e-05Z" fill="white"/>
</mask>
<g mask="url(#mask0_1_23657)">
<path d="M17.2018 5.55078C17.2018 8.42224 14.8739 10.75 12.0025 10.75C9.13103 10.75 6.80322 8.42224 6.80322 5.55078C6.80322 2.67927 9.13103 0.351515 12.0025 0.351515C14.8739 0.351515 17.2018 2.67927 17.2018 5.55078Z" fill="#FCE25C"/>
<path d="M15.3041 1.53689C16.0446 2.43529 16.4894 3.58658 16.4894 4.84175C16.4894 7.71326 14.1617 10.041 11.2902 10.041C10.035 10.041 8.88371 9.59622 7.98535 8.85565C8.93893 10.0125 10.383 10.75 11.9992 10.75C14.8707 10.75 17.1985 8.42224 17.1985 5.55078C17.1985 3.93444 16.4609 2.49051 15.3041 1.53689Z" fill="#E6B700"/>
<path d="M15.4641 5.55146C15.4641 7.46574 13.9123 9.01758 11.9979 9.01758C10.0836 9.01758 8.53174 7.46574 8.53174 5.55146C8.53174 3.63714 10.0836 2.0853 11.9979 2.0853C13.9123 2.0853 15.4641 3.63714 15.4641 5.55146Z" fill="#E6B700"/>
<path d="M20.7117 12.3301H3.28564V9.01532H20.7117V12.3301Z" fill="#97E4F9"/>
<path d="M19.5776 12.3301H20.7141V9.01532H19.5776V12.3301Z" fill="#0ACEFA"/>
<path d="M19.5754 23.6484H4.42227L4.41895 12.331H19.572L19.5754 23.6484Z" fill="#97E4F9"/>
<path d="M4.42285 13.5625H19.5759V12.3313H4.42285V13.5625Z" fill="#0ACEFA"/>
<path d="M15.2459 15.6856C14.5062 14.946 13.307 14.946 12.5672 15.6856L11.999 16.2539L11.4307 15.6856C10.691 14.946 9.49172 14.946 8.75203 15.6856C8.01234 16.4253 8.01234 17.6247 8.75203 18.3644L11.999 21.6113L15.2459 18.3644C15.9856 17.6247 15.9856 16.4253 15.2459 15.6856Z" fill="#FB636F"/>
<path d="M15.251 15.6856C14.6662 15.1009 13.7945 14.9789 13.0894 15.3186C13.2174 15.6983 13.2827 16.0964 13.2826 16.4971C13.2826 18.2314 12.0872 19.6857 10.4756 20.0829L12.004 21.6113L15.251 18.3644C15.9907 17.6247 15.9907 16.4253 15.251 15.6856Z" fill="#FA2A3B"/>
</g>
</svg>
