<svg width="22" height="22" viewBox="0 0 22 22" fill="none" xmlns="http://www.w3.org/2000/svg">
<mask id="mask0_2392_24569" style="mask-type:luminance" maskUnits="userSpaceOnUse" x="0" y="0" width="22" height="22">
<path d="M0 6.48499e-05H21.9999V22H0V6.48499e-05Z" fill="white"/>
</mask>
<g mask="url(#mask0_2392_24569)">
<path d="M15.7659 5.0883C15.7659 7.72047 13.6321 9.85425 10.9999 9.85425C8.36771 9.85425 6.23389 7.72047 6.23389 5.0883C6.23389 2.45608 8.36771 0.322305 10.9999 0.322305C13.6321 0.322305 15.7659 2.45608 15.7659 5.0883Z" fill="#FCE25C"/>
<path d="M14.0296 1.40889C14.7085 2.23243 15.1162 3.28778 15.1162 4.43835C15.1162 7.07057 12.9824 9.20435 10.3503 9.20435C9.19969 9.20435 8.14429 8.79662 7.3208 8.11776C8.19491 9.17818 9.5186 9.85425 11.0002 9.85425C13.6323 9.85425 15.7662 7.72047 15.7662 5.0883C15.7662 3.60665 15.0901 2.28305 14.0296 1.40889Z" fill="#E6B700"/>
<path d="M14.1774 5.08823C14.1774 6.84298 12.7549 8.2655 11.0001 8.2655C9.24532 8.2655 7.82275 6.84298 7.82275 5.08823C7.82275 3.33344 9.24532 1.91092 11.0001 1.91092C12.7549 1.91092 14.1774 3.33344 14.1774 5.08823Z" fill="#E6B700"/>
<path d="M18.987 11.3033H3.01318V8.26482H18.987V11.3033Z" fill="#97E4F9"/>
<path d="M17.9453 11.3033H18.9871V8.26482H17.9453V11.3033Z" fill="#0ACEFA"/>
<path d="M17.9466 21.6777H4.05627L4.05322 11.3034H17.9436L17.9466 21.6777Z" fill="#97E4F9"/>
<path d="M4.05469 12.4319H17.945V11.3033H4.05469V12.4319Z" fill="#0ACEFA"/>
<path d="M13.9793 14.3793C13.3013 13.7012 12.2019 13.7012 11.5239 14.3793L11.003 14.9002L10.482 14.3793C9.804 13.7012 8.70465 13.7012 8.0266 14.3793C7.34856 15.0573 7.34856 16.1567 8.0266 16.8348L11.003 19.8112L13.9793 16.8348C14.6574 16.1567 14.6574 15.0573 13.9793 14.3793Z" fill="#FB636F"/>
<path d="M13.9795 14.3793C13.4435 13.8432 12.6444 13.7314 11.9981 14.0428C12.1154 14.3909 12.1752 14.7558 12.1751 15.1232C12.1751 16.7129 11.0794 18.046 9.60205 18.4101L11.0031 19.8112L13.9795 16.8348C14.6576 16.1567 14.6576 15.0573 13.9795 14.3793Z" fill="#FA2A3B"/>
</g>
</svg>
