<svg width="20" height="20" viewBox="0 0 20 20" fill="none" xmlns="http://www.w3.org/2000/svg">
<path d="M10.0003 1.66669C5.40033 1.66669 1.66699 5.40002 1.66699 10C1.66699 14.6 5.40033 18.3334 10.0003 18.3334C14.6003 18.3334 18.3337 14.6 18.3337 10C18.3337 5.40002 14.6003 1.66669 10.0003 1.66669ZM14.167 14.5584C12.742 14.5584 11.4087 13.9417 10.342 12.8C9.13366 13.8917 7.55866 14.5584 5.83366 14.5584C5.49199 14.5584 5.20866 14.275 5.20866 13.9334C5.20866 13.5917 5.49199 13.3084 5.83366 13.3084C8.72533 13.3084 11.117 11.0167 11.4253 8.08335H10.0003H5.84199C5.50033 8.08335 5.21699 7.80002 5.21699 7.45835C5.21699 7.11669 5.50033 6.84169 5.84199 6.84169H9.37533V6.06669C9.37533 5.72502 9.65866 5.44169 10.0003 5.44169C10.342 5.44169 10.6253 5.72502 10.6253 6.06669V6.84169H12.0337C12.0503 6.84169 12.067 6.83335 12.0837 6.83335C12.1003 6.83335 12.117 6.84169 12.1337 6.84169H14.1587C14.5003 6.84169 14.7837 7.12502 14.7837 7.46669C14.7837 7.80835 14.5003 8.09169 14.1587 8.09169H12.6753C12.5503 9.51669 12.017 10.825 11.2003 11.8917C12.0337 12.8167 13.0753 13.3167 14.167 13.3167C14.5087 13.3167 14.792 13.6 14.792 13.9417C14.792 14.2834 14.5087 14.5584 14.167 14.5584Z" fill="#3C82F6"/>
</svg>
