<svg width="85" height="86" viewBox="0 0 85 86" fill="none" xmlns="http://www.w3.org/2000/svg">
<mask id="mask0_2392_28429" style="mask-type:luminance" maskUnits="userSpaceOnUse" x="0" y="0" width="85" height="86">
<path d="M42.0619 85.1528C30.8933 85.0399 20.2254 80.5023 12.3976 72.5351C4.56985 64.5678 0.221302 53.8214 0.305648 42.6526C0.389993 31.4837 4.90034 20.8042 12.8475 12.9561C20.7947 5.10802 31.53 0.732033 42.6991 0.787857C53.8681 0.843681 64.5591 5.32675 72.4275 13.2539C80.2958 21.181 84.6992 31.9051 84.6719 43.0742C84.6446 54.2434 80.1889 64.9458 72.2818 72.8344C64.3748 80.7229 53.662 85.1537 42.4929 85.1549" fill="white"/>
</mask>
<g mask="url(#mask0_2392_28429)">
<path d="M85.5678 5.58924C85.5678 2.44685 83.0344 -0.0808411 79.892 -0.0808411H5.091C4.34589 -0.0826416 3.60776 0.0627899 2.91903 0.347107C2.23029 0.631416 1.60451 1.049 1.07764 1.57587C0.550762 2.10275 0.133171 2.72853 -0.15114 3.41727C-0.435451 4.106 -0.580884 4.84413 -0.579085 5.58924L-0.579085 80.3902C-0.579085 83.5326 1.94861 86.066 5.091 86.066H79.892C83.0344 86.066 85.5678 83.5326 85.5678 80.3902V5.58924Z" fill="white"/>
<path d="M5.09098 -0.080616C1.94859 -0.080616 -0.579102 2.51043 -0.579102 5.72443L-0.579102 28.635L85.5678 28.635V5.72443C85.5678 2.51043 83.0343 -0.080616 79.892 -0.080616L5.09098 -0.080616Z" fill="#C0392B"/>
<path d="M79.8976 86.066C83.04 86.066 85.5679 83.4748 85.5679 80.261V57.3504H-0.578979L-0.578979 80.261C-0.578979 83.4748 1.95428 86.066 5.09684 86.066H79.8976Z" fill="#356BA0"/>
</g>
</svg>
