<svg width="24" height="25" viewBox="0 0 24 25" fill="none" xmlns="http://www.w3.org/2000/svg">
<path d="M11 2.59131H9C4 2.59131 2 4.59131 2 9.59131V15.5913C2 20.5913 4 22.5913 9 22.5913H15C20 22.5913 22 20.5913 22 15.5913V13.5913" stroke="#898989" stroke-linecap="round" stroke-linejoin="round"/>
<path d="M16.0399 3.61132L8.15988 11.4913C7.85988 11.7913 7.55988 12.3813 7.49988 12.8113L7.06988 15.8213C6.90988 16.9113 7.67988 17.6713 8.76988 17.5213L11.7799 17.0913C12.1999 17.0313 12.7899 16.7313 13.0999 16.4313L20.9799 8.55132C22.3399 7.19132 22.9799 5.61132 20.9799 3.61132C18.9799 1.61132 17.3999 2.25132 16.0399 3.61132Z" stroke="#898989" stroke-miterlimit="10" stroke-linecap="round" stroke-linejoin="round"/>
<path d="M14.9099 4.74121C15.5799 7.13121 17.4499 9.00121 19.8499 9.68121" stroke="#898989" stroke-width="1.5" stroke-miterlimit="10" stroke-linecap="round" stroke-linejoin="round"/>
</svg>
