<svg width="20" height="20" viewBox="0 0 20 20" fill="none" xmlns="http://www.w3.org/2000/svg">
<g clip-path="url(#clip0_1_26394)">
<path d="M11.2857 9H12.3333V9.3785C12.6883 9.15211 13.101 9.02199 13.5274 9.00203C13.9538 8.98207 14.3779 9.07302 14.7543 9.26517C15.1308 9.45733 15.4455 9.74346 15.6649 10.093C15.8843 10.4426 16.0001 10.8425 16 11.25V14H14.9524V11.25C14.9524 10.535 14.3369 10 13.6429 10C12.9488 10 12.3333 10.535 12.3333 11.25V14H11.2857V9ZM10.2381 6V7H6.04762V9.5H10.2381V10.5H6.04762V13H10.2381V14H5V6H10.2381Z" fill="#3C82F6"/>
</g>
<rect x="0.25" y="0.25" width="19.5" height="19.5" rx="9.75" stroke="#3C82F6" stroke-width="0.5"/>
<defs>
<clipPath id="clip0_1_26394">
<rect width="20" height="20" rx="10" fill="white"/>
</clipPath>
</defs>
</svg>
