<svg width="91" height="90" viewBox="0 0 91 90" fill="none" xmlns="http://www.w3.org/2000/svg">
<path d="M45.5 90C70.3528 90 90.5 69.8528 90.5 45C90.5 20.1472 70.3528 0 45.5 0C20.6472 0 0.5 20.1472 0.5 45C0.5 69.8528 20.6472 90 45.5 90Z" fill="#012169"/>
<path d="M80.174 16.3228L45.5 37.1278L10.826 16.3228C7.94213 19.8101 5.60171 23.7132 3.88403 27.8998L32.384 44.9998L3.88403 62.0998C5.60039 66.2874 7.93981 70.1914 10.823 73.6798L45.5 52.8718L80.177 73.6768C83.0602 70.1884 85.3996 66.2844 87.116 62.0968L58.616 44.9968L87.116 27.8968C85.3981 23.7112 83.0576 19.8092 80.174 16.3228Z" fill="white"/>
<path d="M9.46405 71.871L49.871 47.625L84.047 68.13C84.822 66.8413 85.5318 65.5146 86.174 64.155L49.874 42.375L84.047 21.873C83.269 20.581 82.432 19.333 81.536 18.129L41.126 42.375L6.95005 21.873C6.18005 23.157 5.47205 24.481 4.82605 25.845L41.126 47.625L6.95005 68.13C7.72503 69.4182 8.56408 70.6667 9.46405 71.871Z" fill="#C8102E"/>
<path d="M56.75 1.47602C49.3791 -0.492005 41.6209 -0.492005 34.25 1.47602V33.75H1.97602C0.00799465 41.1209 0.00799465 48.8791 1.97602 56.25H34.25V88.524C41.6209 90.492 49.3791 90.492 56.75 88.524V56.25H89.024C90.992 48.8791 90.992 41.1209 89.024 33.75H56.75V1.47602Z" fill="white"/>
<path d="M52.25 0.561C50.0172 0.205054 47.7609 0.0175253 45.5 0C43.2391 0.0175253 40.9827 0.205054 38.75 0.561V38.25H1.061C0.705054 40.4827 0.517525 42.7391 0.5 45C0.517525 47.2609 0.705054 49.5172 1.061 51.75H38.75V89.439C40.9827 89.7949 43.2391 89.9824 45.5 90C47.7609 89.9824 50.0172 89.7949 52.25 89.439V51.75H89.939C90.2949 49.5172 90.4824 47.2609 90.5 45C90.4824 42.7391 90.2949 40.4827 89.939 38.25H52.25V0.561Z" fill="#C8102E"/>
</svg>
