<svg width="24" height="24" viewBox="0 0 24 24" fill="none" xmlns="http://www.w3.org/2000/svg">
<path fill-rule="evenodd" clip-rule="evenodd" d="M10.9763 1.49902H13.0237C14.9764 1.499 16.5433 1.49898 17.7741 1.66446C19.0491 1.83588 20.1122 2.20121 20.955 3.04403C21.7978 3.88686 22.1632 4.94991 22.3346 6.22494C22.5001 7.45575 22.5001 9.02265 22.5 10.9753V12.9652C22.5 14.1605 22.5 15.2035 22.4656 16.1024C22.4648 16.1211 22.4641 16.14 22.4634 16.159C22.4521 16.4603 22.4392 16.8004 22.3815 17.0776C22.3116 17.4135 22.1287 17.8899 21.6012 18.1502C21.0633 18.4156 20.5651 18.2566 20.2625 18.1088C20.0048 17.9831 19.7214 17.7823 19.4648 17.6005C19.4492 17.5895 19.4336 17.5785 19.4182 17.5675L18.0724 16.6153C17.6216 16.2963 17.5147 15.6723 17.8337 15.2214C18.1527 14.7706 18.7768 14.6637 19.2276 14.9827L20.1696 15.6492C20.3033 15.7438 20.3702 15.7911 20.4238 15.7641C20.4775 15.7371 20.4794 15.6556 20.4831 15.4926C20.4999 14.7579 20.5 13.9201 20.5 12.949V11.049C20.5 9.0055 20.4979 7.57345 20.3524 6.49143C20.2108 5.43818 19.9501 4.86754 19.5408 4.45825C19.1315 4.04896 18.5609 3.78823 17.5076 3.64662C16.4256 3.50115 14.9935 3.49902 12.95 3.49902H11.05C9.00648 3.49902 7.57443 3.50115 6.49241 3.64662C5.43916 3.78823 4.86852 4.04896 4.45923 4.45825C4.04994 4.86754 3.78921 5.43818 3.6476 6.49143C3.50213 7.57345 3.5 9.0055 3.5 11.049V12.949C3.5 14.9925 3.50213 16.4246 3.6476 17.5066C3.78921 18.5599 4.04994 19.1305 4.45923 19.5398C4.86852 19.9491 5.43916 20.2098 6.49241 20.3514C7.57443 20.4969 9.00648 20.499 11.05 20.499H12.95C15.0294 20.499 16.4747 20.4967 17.5609 20.3441C18.1078 20.2673 18.6135 20.6483 18.6903 21.1952C18.7671 21.7422 18.3861 22.2478 17.8391 22.3246C16.5976 22.4991 15.0111 22.499 13.0277 22.499H10.9763C9.02363 22.499 7.45673 22.4991 6.22592 22.3336C4.95089 22.1622 3.88784 21.7968 3.04502 20.954C2.20219 20.1112 1.83686 19.0481 1.66544 17.7731C1.49996 16.5423 1.49998 14.9754 1.5 13.0227V10.9753C1.49998 9.02266 1.49996 7.45576 1.66544 6.22494C1.83686 4.94991 2.20219 3.88686 3.04502 3.04403C3.88784 2.20121 4.95089 1.83588 6.22592 1.66446C7.45674 1.49898 9.02364 1.499 10.9763 1.49902Z" fill="#3C82F6"/>
<path d="M12.9054 9.00907L12.8244 8.96615C12.0508 8.55594 11.4151 8.21884 10.8915 8.01098C10.3592 7.79966 9.80872 7.66422 9.24815 7.81248C8.86157 7.91472 8.50485 8.11003 8.21396 8.38395C7.7826 8.79015 7.63215 9.33657 7.56522 9.8886C7.49996 10.4268 7.49998 11.1195 7.5 11.9511V12.0488C7.49998 12.8805 7.49996 13.5731 7.56522 14.1114C7.63215 14.6634 7.7826 15.2098 8.21396 15.616C8.50485 15.89 8.86157 16.0853 9.24815 16.1875C9.80872 16.3358 10.3592 16.2003 10.8915 15.989C11.4151 15.7812 12.0508 15.4441 12.8244 15.0338L12.9054 14.9909C13.7056 14.5666 14.3623 14.2184 14.8367 13.895C15.3113 13.5714 15.7541 13.1764 15.9171 12.5983C16.0276 12.2065 16.0276 11.7934 15.9171 11.4017C15.7541 10.8236 15.3113 10.4285 14.8367 10.1049C14.3623 9.78159 13.7056 9.43336 12.9054 9.00907Z" fill="#3C82F6"/>
</svg>
