<svg width="143" height="147" viewBox="0 0 143 147" fill="none" xmlns="http://www.w3.org/2000/svg">
<path d="M71.3481 147C110.753 147 142.696 144.92 142.696 142.353C142.696 139.787 110.753 137.706 71.3481 137.706C31.9437 137.706 0 139.787 0 142.353C0 144.92 31.9437 147 71.3481 147Z" fill="#C9B5A9"/>
<path d="M65.06 2.86618L66.6015 3.36617L65.06 3.86581C64.4315 4.0695 63.939 4.56204 63.7353 5.19049L63.2353 6.73199L62.7353 5.19049C62.5316 4.56204 62.0391 4.0695 61.4106 3.86581L59.8691 3.36617L61.4106 2.86618C62.0391 2.66249 62.5316 2.16995 62.7353 1.5415L63.2353 0L63.7353 1.5415C63.939 2.16995 64.4315 2.66249 65.06 2.86618Z" fill="#E3DDDD"/>
<path d="M25.8721 89.5595L27.4136 90.0595L25.8721 90.5595C25.2437 90.7632 24.7511 91.2557 24.5474 91.8842L24.0475 93.4257L23.5478 91.8842C23.3441 91.2557 22.8516 90.7632 22.2231 90.5595L20.6816 90.0595L22.2231 89.5595C22.8516 89.3558 23.3441 88.8633 23.5478 88.2349L24.0475 86.6934L24.5474 88.2349C24.7511 88.8633 25.2437 89.3558 25.8721 89.5595Z" fill="#E3DDDD"/>
<path d="M95.1118 42.6721L96.0068 42.9624L95.1118 43.2526C94.747 43.3708 94.461 43.6568 94.3425 44.0216L94.0522 44.9166L93.7619 44.0216C93.6438 43.6568 93.3574 43.3708 92.9926 43.2526L92.0977 42.9624L92.9926 42.6721C93.3574 42.5539 93.6434 42.2679 93.7619 41.9028L94.0522 41.0078L94.3425 41.9028C94.461 42.2679 94.747 42.5539 95.1118 42.6721Z" fill="#E3DDDD"/>
<path d="M40.4614 23.4104L41.3564 23.7006L40.4614 23.9909C40.0966 24.1091 39.8106 24.3951 39.6921 24.7599L39.4018 25.6548L39.1115 24.7599C38.9934 24.3951 38.7074 24.1091 38.3422 23.9909L37.4473 23.7006L38.3422 23.4104C38.707 23.2922 38.993 23.0062 39.1115 22.641L39.4018 21.7461L39.6921 22.641C39.8106 23.0058 40.0966 23.2918 40.4614 23.4104Z" fill="#E3DDDD"/>
<path d="M29.2036 81.7688L30.0986 82.059L29.2036 82.3493C28.8388 82.4675 28.5528 82.7535 28.4343 83.1186L28.144 84.0136L27.8537 83.1186C27.7356 82.7538 27.4495 82.4678 27.0844 82.3493L26.1895 82.059L27.0844 81.7688C27.4492 81.6506 27.7352 81.3646 27.8537 80.9994L28.144 80.1045L28.4343 80.9994C28.5528 81.3642 28.8388 81.6502 29.2036 81.7688Z" fill="#E3DDDD"/>
<path d="M37.6182 82.1152H62.9208C63.7636 82.1152 64.561 82.4463 65.0897 83.0159L68.6617 86.8639C69.0141 87.2436 69.546 87.4643 70.1077 87.4643H109.606C111.006 87.4643 112.14 88.4484 112.14 89.6627V137.612C112.14 140.23 109.693 142.354 106.675 142.354H38.8662C36.7527 142.354 35.0391 140.867 35.0391 139.033V84.3533C35.0394 83.1174 36.1938 82.1152 37.6182 82.1152Z" fill="#164BA3"/>
<path d="M56.1688 53.4785L45.5234 64.1239V104.917H97.7068V53.4785H56.1688Z" fill="#E3DDDD"/>
<path d="M56.1688 64.1239V53.4785L45.5234 64.1239H56.1688Z" fill="#B9CFE6"/>
<path d="M28.7421 94.1338H98.8536C100.506 94.1338 101.924 95.1547 102.229 96.5639L111.376 138.823C111.774 140.658 110.152 142.354 108.001 142.354H37.8896C36.237 142.354 34.819 141.333 34.5139 139.924L25.3667 97.6643C24.9696 95.8297 26.5913 94.1338 28.7421 94.1338Z" fill="#3C82F6"/>
<path d="M73.7461 75.3239C75.08 73.9719 76.4115 72.6171 77.7436 71.2622C78.5282 70.4645 78.5988 69.0259 77.7436 68.241C76.8969 67.4635 75.5594 67.3897 74.7223 68.241C73.371 69.5696 72.0201 70.8978 70.6713 72.2282C69.3363 70.8928 67.9964 69.5628 66.6405 68.2481C65.8523 67.4351 64.3659 67.3971 63.5848 68.2481C62.7828 69.1217 62.7438 70.4365 63.5848 71.3038C64.896 72.6561 66.2228 73.9925 67.5546 75.3239C66.2235 76.6546 64.8978 77.9903 63.5869 79.3423C62.774 80.1305 62.736 81.617 63.5869 82.398C64.4606 83.2 65.7753 83.239 66.6426 82.398C67.9978 81.084 69.3374 79.7543 70.6713 78.4197C72.0194 79.7493 73.3696 81.0769 74.7202 82.4051C75.5179 83.1897 76.9565 83.2603 77.7415 82.4051C78.5189 81.5584 78.5928 80.2209 77.7415 79.3838C76.4104 78.0297 75.0797 76.6756 73.7461 75.3239Z" fill="#C85F64"/>
<path d="M30.6951 56.9375H30.238C30.167 56.7186 30.079 56.5074 29.9754 56.3052L30.299 55.9815C30.6053 55.6753 30.6053 55.1792 30.299 54.873L29.5272 54.1008C29.221 53.7949 28.7249 53.7949 28.419 54.1008L28.0954 54.4244C27.8931 54.3212 27.682 54.2328 27.463 54.1618V53.7048C27.463 53.2719 27.1121 52.9209 26.6791 52.9209H25.5873C25.1543 52.9209 24.8034 53.2719 24.8034 53.7048V54.1618C24.5844 54.2328 24.3733 54.3208 24.171 54.4244L23.8474 54.1008C23.5415 53.7949 23.0451 53.7949 22.7392 54.1008L21.967 54.873C21.6611 55.1792 21.6611 55.6753 21.967 55.9815L22.2906 56.3052C22.187 56.5074 22.099 56.7182 22.028 56.9375H21.571C21.1381 56.9375 20.7871 57.2885 20.7871 57.7214V58.8133C20.7871 59.2462 21.1381 59.5972 21.571 59.5972H22.028C22.099 59.8161 22.187 60.0273 22.2906 60.2295L21.967 60.5532C21.6611 60.8594 21.6611 61.3555 21.967 61.6614L22.7392 62.4335C23.0451 62.7394 23.5415 62.7394 23.8474 62.4335L24.171 62.1099C24.3733 62.2132 24.5844 62.3015 24.8034 62.3725V62.8296C24.8034 63.2625 25.1543 63.6134 25.5873 63.6134H26.6791C27.1121 63.6134 27.463 63.2625 27.463 62.8296V62.3725C27.682 62.3015 27.8931 62.2135 28.0954 62.1099L28.419 62.4335C28.7252 62.7394 29.2213 62.7394 29.5272 62.4335L30.299 61.6614C30.6053 61.3551 30.6053 60.859 30.299 60.5532L29.9754 60.2295C30.0787 60.0273 30.167 59.8165 30.238 59.5972H30.6951C31.128 59.5972 31.4789 59.2462 31.4789 58.8133V57.7214C31.4786 57.2885 31.1276 56.9375 30.6951 56.9375ZM26.133 61.0099C24.6185 61.0099 23.3903 59.7821 23.3903 58.2672C23.3903 56.7526 24.6181 55.5245 26.133 55.5245C27.6479 55.5245 28.8757 56.7523 28.8757 58.2672C28.8757 59.7821 27.6475 61.0099 26.133 61.0099Z" fill="#C9B5A9"/>
<path d="M119.551 75.4674H119.094C119.023 75.2485 118.935 75.0374 118.832 74.8351L119.155 74.5115C119.461 74.2052 119.461 73.7091 119.155 73.4029L118.383 72.6311C118.077 72.3248 117.581 72.3248 117.274 72.6311L116.951 72.9547C116.749 72.8511 116.538 72.7631 116.318 72.6921V72.2351C116.318 71.8021 115.968 71.4512 115.535 71.4512H114.443C114.01 71.4512 113.659 71.8021 113.659 72.2351V72.6921C113.44 72.7631 113.229 72.8511 113.026 72.9547L112.703 72.6311C112.397 72.3248 111.901 72.3248 111.595 72.6311L110.822 73.4029C110.516 73.7091 110.516 74.2052 110.822 74.5115L111.146 74.8351C111.042 75.0374 110.954 75.2485 110.884 75.4674H110.426C109.994 75.4674 109.643 75.8184 109.643 76.2513V77.3432C109.643 77.7761 109.994 78.1271 110.426 78.1271H110.884C110.954 78.346 111.042 78.5572 111.146 78.7594L110.822 79.0831C110.516 79.3893 110.516 79.8854 110.822 80.1916L111.595 80.9638C111.901 81.2697 112.397 81.2697 112.703 80.9638L113.026 80.6402C113.229 80.7438 113.44 80.8318 113.659 80.9028V81.3598C113.659 81.7928 114.01 82.1437 114.443 82.1437H115.535C115.968 82.1437 116.318 81.7928 116.318 81.3598V80.9028C116.537 80.8318 116.749 80.7438 116.951 80.6402L117.274 80.9638C117.581 81.2697 118.077 81.2697 118.383 80.9638L119.155 80.1916C119.461 79.8854 119.461 79.3893 119.155 79.0831L118.832 78.7594C118.935 78.5572 119.023 78.3464 119.094 78.1271H119.551C119.984 78.1271 120.335 77.7761 120.335 77.3432V76.2513C120.335 75.818 119.984 75.4674 119.551 75.4674ZM114.989 79.5394C113.475 79.5394 112.247 78.3116 112.247 76.7967C112.247 75.2819 113.474 74.054 114.989 74.054C116.504 74.054 117.732 75.2819 117.732 76.7967C117.732 78.3116 116.504 79.5394 114.989 79.5394Z" fill="#C9B5A9"/>
<path d="M43.0142 48.8301L42.412 48.6019C42.428 48.2779 42.417 47.9557 42.3818 47.6378L42.9698 47.3727C43.5259 47.1222 43.7736 46.4685 43.5231 45.9125L42.8911 44.5101C42.6405 43.954 41.9869 43.7063 41.4308 43.9568L40.8428 44.2219C40.6281 43.9849 40.3939 43.7634 40.1409 43.5605L40.3691 42.9583C40.5852 42.388 40.2978 41.7503 39.7275 41.5346L38.2889 40.9899C37.7187 40.7738 37.0813 41.0612 36.8652 41.6315L36.6371 42.2337C36.3131 42.2177 35.9909 42.2287 35.6729 42.2638L35.4078 41.6758C35.1573 41.1198 34.5033 40.8721 33.9476 41.1226L32.5452 41.7546C31.9892 42.0051 31.7415 42.6588 31.992 43.2148L32.2571 43.8028C32.02 44.0175 31.7982 44.2517 31.5956 44.5047L30.9934 44.2766C30.4232 44.0605 29.7859 44.3479 29.5697 44.9181L29.025 46.3567C28.8089 46.927 29.0964 47.5647 29.6666 47.7804L30.2688 48.0086C30.2528 48.3326 30.2638 48.6548 30.299 48.9727L29.711 49.2378C29.1549 49.4883 28.9072 50.142 29.1578 50.6981L29.7898 52.1004C30.0403 52.6565 30.6939 52.9042 31.25 52.6537L31.838 52.3886C32.0527 52.6256 32.2869 52.8474 32.5399 53.05L32.3117 53.6522C32.0956 54.2225 32.383 54.8598 32.9533 55.0759L34.3919 55.6206C34.9621 55.8367 35.5995 55.5493 35.8156 54.979L36.0437 54.3768C36.3677 54.3928 36.6899 54.3818 37.0079 54.3467L37.273 54.9347C37.5235 55.4907 38.1771 55.7384 38.7332 55.4879L40.1356 54.8559C40.6917 54.6054 40.9393 53.9517 40.6888 53.3957L40.4237 52.8077C40.6608 52.593 40.8826 52.3588 41.0852 52.1058L41.6874 52.3339C42.2576 52.55 42.895 52.2626 43.1111 51.6924L43.6558 50.2538C43.8715 49.6835 43.5844 49.0458 43.0142 48.8301ZM34.9714 51.9188C32.9757 51.1629 31.9707 48.9323 32.7265 46.9366C33.4824 44.9409 35.713 43.9359 37.7087 44.6917C39.7044 45.4476 40.7094 47.6782 39.9535 49.6739C39.1977 51.6693 36.9671 52.6746 34.9714 51.9188Z" fill="#C9B5A9"/>
<path d="M49.6673 22.1971L46.7891 28.301L52.9689 45.5108L69.1432 39.7029L61.351 18.002L49.6673 22.1971Z" fill="#E3DDDD"/>
<path d="M51.2801 26.6874L49.6673 22.1963L46.7891 28.3002L51.2801 26.6874Z" fill="#F4E8D8"/>
<path d="M58.7991 31.168C59.1987 30.3054 59.5968 29.442 59.995 28.5786C60.2295 28.0701 60.0195 27.3806 59.484 27.1557C58.9538 26.9328 58.3112 27.1241 58.061 27.6666C57.6494 28.5211 57.2374 29.3753 56.8272 30.2301C55.9727 29.827 55.1164 29.4271 54.2552 29.0371C53.7463 28.7876 53.0398 29.0211 52.8159 29.5541C52.5859 30.1013 52.79 30.7273 53.3329 30.9934C54.1792 31.4086 55.0302 31.8139 55.8829 32.2156C55.4809 33.0676 55.0823 33.921 54.6938 34.7794C54.444 35.2883 54.6778 35.9948 55.2105 36.2187C55.7576 36.4486 56.3836 36.2446 56.6497 35.702C57.066 34.8536 57.472 34.0008 57.8747 33.1467C58.7345 33.5452 59.5954 33.9419 60.4563 34.339C60.9648 34.5736 61.6543 34.3635 61.8793 33.828C62.1021 33.2975 61.9109 32.6552 61.3683 32.4051C60.5117 31.992 59.6557 31.5793 58.7991 31.168Z" fill="#C85F64"/>
<path d="M83.4888 10.7061L78.101 12.9058L71.9922 27.4436L85.6556 33.1848L93.3584 14.8533L83.4888 10.7061Z" fill="#E3DDDD"/>
<path d="M81.8953 14.4998L83.4893 10.7061L78.1016 12.9058L81.8953 14.4998Z" fill="#F4E8D8"/>
<path d="M84.0594 21.7315C84.8163 21.4164 85.5725 21.1002 86.3291 20.7837C86.7744 20.5974 87.0434 20.0367 86.8344 19.5814C86.6275 19.1304 86.1077 18.8774 85.6322 19.0761C84.8724 19.3788 84.1127 19.6815 83.3536 19.9852C83.0456 19.2308 82.7351 18.4774 82.4154 17.7276C82.2376 17.2724 81.6525 17.0087 81.1993 17.2166C80.7341 17.4303 80.4988 17.9469 80.6883 18.4327C80.9839 19.19 81.2884 19.9437 81.5957 20.696C80.8434 21.003 80.0925 21.3128 79.3448 21.6314C78.8895 21.8092 78.6259 22.3944 78.8338 22.8471C79.0475 23.3124 79.5641 23.5476 80.0496 23.3581C80.8086 23.0618 81.5637 22.7567 82.3178 22.4486C82.6319 23.2031 82.9473 23.9571 83.2624 24.7116C83.4487 25.1569 84.0094 25.4259 84.4647 25.2169C84.9157 25.01 85.1687 24.4901 84.97 24.0146C84.667 23.2535 84.3639 22.4919 84.0594 21.7315Z" fill="#C85F64"/>
</svg>
