<svg width="20" height="21" viewBox="0 0 20 21" fill="none" xmlns="http://www.w3.org/2000/svg">
<path d="M12.1084 8.2431L7.89172 12.4598C7.35006 11.9181 7.01672 11.1764 7.01672 10.3514C7.01672 8.70144 8.35006 7.3681 10.0001 7.3681C10.8251 7.3681 11.5667 7.70144 12.1084 8.2431Z" stroke="#777777" stroke-width="1.5" stroke-linecap="round" stroke-linejoin="round"/>
<path d="M14.85 5.15978C13.3917 4.05978 11.725 3.45978 9.99999 3.45978C7.05832 3.45978 4.31666 5.19311 2.40833 8.19311C1.65833 9.36811 1.65833 11.3431 2.40833 12.5181C3.06666 13.5514 3.83332 14.4431 4.66666 15.1598" stroke="#777777" stroke-width="1.5" stroke-linecap="round" stroke-linejoin="round"/>
<path d="M7.01672 16.6264C7.96672 17.0264 8.97506 17.2431 10.0001 17.2431C12.9417 17.2431 15.6834 15.5098 17.5917 12.5098C18.3417 11.3348 18.3417 9.35978 17.5917 8.18478C17.3167 7.75144 17.0167 7.34311 16.7084 6.95978" stroke="#777777" stroke-width="1.5" stroke-linecap="round" stroke-linejoin="round"/>
<path d="M12.925 10.9348C12.7083 12.1098 11.75 13.0681 10.575 13.2848" stroke="#777777" stroke-width="1.5" stroke-linecap="round" stroke-linejoin="round"/>
<path d="M7.89163 12.4598L1.66663 18.6848" stroke="#777777" stroke-width="1.5" stroke-linecap="round" stroke-linejoin="round"/>
<path d="M18.3333 2.01813L12.1083 8.24313" stroke="#777777" stroke-width="1.5" stroke-linecap="round" stroke-linejoin="round"/>
</svg>
