<svg width="30" height="30" viewBox="0 0 30 30" fill="none" xmlns="http://www.w3.org/2000/svg">
<g clip-path="url(#clip0_1_21182)">
<path d="M15 30C23.2843 30 30 23.2843 30 15C30 6.71573 23.2843 0 15 0C6.71573 0 0 6.71573 0 15C0 23.2843 6.71573 30 15 30Z" fill="#A0EBFF"/>
<path d="M20.1575 13.1227C20.1575 10.1764 17.7692 7.78809 14.8229 7.78809C11.8766 7.78809 9.48828 10.1764 9.48828 13.1227C9.48828 16.0426 10.6772 16.8967 11.8616 18.5542C12.6421 19.6462 12.6421 20.8795 12.6421 20.8795H17.0036C17.0036 20.8795 17.002 19.6462 17.7842 18.5542C18.9698 16.8976 20.1575 16.0426 20.1575 13.1227Z" fill="#FDF35A"/>
<path d="M14.8242 7.78809V20.8795H17.0049C17.0049 20.8795 17.0034 19.6462 17.7855 18.5542C18.9714 16.8979 20.1588 16.0426 20.1588 13.1227C20.1588 10.1764 17.7702 7.78809 14.8242 7.78809Z" fill="#F7BF00"/>
<path d="M16.3185 20.879V19.2569C16.3185 18.7904 15.9402 18.4121 15.4737 18.4121H14.1729C13.7064 18.4121 13.3281 18.7904 13.3281 19.2569V20.8787H16.3185V20.879Z" fill="#F7BF00"/>
<path d="M17.0005 20.8799H12.6406V23.6375H17.0005V20.8799Z" fill="#335872"/>
<path d="M12.6445 23.6367V23.8608C12.6445 24.3274 13.0228 24.7056 13.4893 24.7056H16.1596C16.6262 24.7056 17.0044 24.3274 17.0044 23.8608V23.6367H12.6445Z" fill="#D03E00"/>
<path d="M14.8249 25.7722C15.4141 25.7722 15.892 25.2943 15.892 24.7051H13.7578C13.7578 25.2946 14.2354 25.7722 14.8249 25.7722Z" fill="#335872"/>
<path d="M15.4752 18.4121H14.8242V20.8787H16.32V19.2569C16.32 18.7904 15.9417 18.4121 15.4752 18.4121Z" fill="#FDF35A"/>
<path d="M15.3528 20.88C15.3528 20.88 15.3435 17.3946 15.3435 16.2346C15.3435 15.856 15.4734 15.4609 15.5991 15.0787C15.7443 14.638 15.894 14.182 15.7383 13.9666C15.6234 13.8079 15.3069 13.7236 14.8239 13.7236C14.3418 13.7236 14.0253 13.8088 13.9083 13.9696C13.7478 14.191 13.8987 14.6536 14.0449 15.1012C14.1678 15.4777 14.2948 15.8665 14.2948 16.2343V20.8792H13.8378V16.2346C13.8378 15.9396 13.7224 15.5856 13.6104 15.243C13.4289 14.6869 13.2414 14.1111 13.5384 13.7013C13.7538 13.4049 14.1621 13.2666 14.8239 13.2666C15.4872 13.2666 15.8955 13.4037 16.1085 13.6986C16.4013 14.103 16.2144 14.6715 16.0335 15.2214C15.9192 15.5694 15.8007 15.9291 15.8007 16.2345C15.8007 17.3943 15.8101 20.8788 15.8101 20.8788L15.3528 20.88Z" fill="#D03E00"/>
<path d="M17.0055 20.8799H14.8242V23.6375H17.0055V20.8799Z" fill="#153040"/>
<path d="M14.8242 24.7051V25.7722C15.4134 25.7722 15.8913 25.2943 15.8913 24.7051H14.8242Z" fill="#153040"/>
<path d="M14.8242 23.6367V24.7056H16.1586C16.6252 24.7056 17.0034 24.3274 17.0034 23.8608V23.6367H14.8242Z" fill="#9C2E00"/>
<path d="M8.82412 15.0909C8.7977 14.9377 8.65133 14.8351 8.49863 14.8614L6.51594 15.2043C6.36266 15.2307 6.26035 15.3765 6.28672 15.5298C6.31039 15.6666 6.42951 15.7635 6.56393 15.7635L6.61221 15.7593L8.5949 15.4164C8.74795 15.3898 8.85055 15.2439 8.82412 15.0909ZM11.358 5.43902C11.2929 5.29805 11.1255 5.23623 10.9841 5.30162C10.8431 5.36672 10.7813 5.53412 10.847 5.67545L11.6912 7.50152C11.7389 7.60441 11.8406 7.665 11.9468 7.665C11.9861 7.665 12.0266 7.65662 12.0647 7.63893C12.2057 7.57383 12.2675 7.40643 12.2018 7.2651L11.358 5.43902ZM9.50422 9.58652C9.55701 9.63123 9.62153 9.65314 9.68574 9.65314C9.76613 9.65314 9.84565 9.61922 9.90113 9.55324C10.0016 9.43441 9.98662 9.25682 9.86785 9.15633L8.33094 7.85795C8.21153 7.75717 8.03393 7.77275 7.93403 7.89123C7.83354 8.01006 7.84854 8.18766 7.96731 8.28814L9.50422 9.58652ZM6.46162 11.8734L8.40324 12.4005L8.47736 12.4104C8.60094 12.4104 8.71467 12.3279 8.74889 12.2026C8.78967 12.0526 8.7009 11.8978 8.5509 11.8573L6.60928 11.3302C6.45957 11.2894 6.30477 11.3781 6.26399 11.5281C6.22285 11.6781 6.31133 11.8327 6.46162 11.8734ZM9.72113 17.6061L8.06903 18.7548C7.94153 18.8436 7.90971 19.0191 7.99854 19.1466C8.05315 19.2255 8.14104 19.2675 8.23016 19.2675C8.28565 19.2675 8.34149 19.251 8.39065 19.2171L10.0428 18.0684C10.1703 17.9796 10.2021 17.8041 10.1132 17.6766C10.0244 17.5485 9.84922 17.5177 9.72113 17.6061ZM14.8227 4.24805C14.6823 4.26035 14.562 4.37643 14.5613 4.52437L14.5547 6.53648C14.5541 6.68736 14.6732 6.80859 14.8226 6.81639C14.972 6.80889 15.0911 6.68736 15.0905 6.53648L15.0839 4.52437C15.0833 4.37643 14.9628 4.26035 14.8227 4.24805ZM19.9595 9.65314C20.0237 9.65314 20.0882 9.63152 20.141 9.58652L21.678 8.28844C21.7968 8.18795 21.8114 8.01035 21.7112 7.89152C21.6113 7.77305 21.4337 7.7574 21.3143 7.85824L19.7774 9.15662C19.6586 9.25711 19.6439 9.43471 19.7441 9.55353C19.7996 9.61928 19.8791 9.65314 19.9595 9.65314ZM20.8964 12.2026C20.9306 12.3279 21.044 12.4104 21.168 12.4104L21.2421 12.4005L23.1837 11.8734C23.3337 11.8327 23.4225 11.6781 23.3817 11.5279C23.3406 11.3779 23.1858 11.289 23.0364 11.3299L21.0948 11.857C20.9441 11.898 20.8556 12.0526 20.8964 12.2026ZM23.1293 15.2044L21.1466 14.8615C20.9936 14.8351 20.8475 14.9377 20.8211 15.091C20.7947 15.2443 20.8973 15.3898 21.0504 15.4165L23.033 15.7594L23.0813 15.7636C23.2157 15.7636 23.3348 15.6667 23.3585 15.5299C23.3849 15.3765 23.2823 15.2307 23.1293 15.2044ZM19.9238 17.6061C19.7957 17.5177 19.6205 17.5485 19.5317 17.6766C19.4429 17.8041 19.4744 17.9799 19.6022 18.0684L21.2543 19.2171C21.3035 19.251 21.3593 19.2675 21.4148 19.2675C21.5039 19.2675 21.5915 19.2252 21.6464 19.1466C21.7353 19.0191 21.7037 18.8436 21.5759 18.7548L19.9238 17.6061ZM18.6605 5.30168C18.5192 5.23629 18.3522 5.29811 18.2867 5.43908L17.4425 7.26551C17.3771 7.40648 17.4386 7.57389 17.5796 7.63934C17.6177 7.65703 17.6582 7.66541 17.6975 7.66541C17.804 7.66541 17.9057 7.60482 17.9531 7.50193L18.7973 5.67586C18.8633 5.53418 18.8018 5.36707 18.6605 5.30168Z" fill="#F7BF00"/>
</g>
<defs>
<clipPath id="clip0_1_21182">
<rect width="30" height="30" fill="white"/>
</clipPath>
</defs>
</svg>
