<svg width="20" height="20" viewBox="0 0 20 20" fill="none" xmlns="http://www.w3.org/2000/svg">
<path d="M10.0003 15.8333C13.222 15.8333 15.8337 13.2216 15.8337 9.99996C15.8337 6.7783 13.222 4.16663 10.0003 4.16663C6.77866 4.16663 4.16699 6.7783 4.16699 9.99996C4.16699 13.2216 6.77866 15.8333 10.0003 15.8333Z" fill="#3C82F6"/>
<path d="M9.99967 19.1334C9.54134 19.1334 9.16634 18.7917 9.16634 18.3334V18.2667C9.16634 17.8084 9.54134 17.4334 9.99967 17.4334C10.458 17.4334 10.833 17.8084 10.833 18.2667C10.833 18.725 10.458 19.1334 9.99967 19.1334ZM15.9497 16.7834C15.733 16.7834 15.5247 16.7 15.358 16.5417L15.2497 16.4334C14.9247 16.1084 14.9247 15.5834 15.2497 15.2584C15.5747 14.9334 16.0997 14.9334 16.4247 15.2584L16.533 15.3667C16.858 15.6917 16.858 16.2167 16.533 16.5417C16.3747 16.7 16.1663 16.7834 15.9497 16.7834ZM4.04967 16.7834C3.83301 16.7834 3.62467 16.7 3.45801 16.5417C3.13301 16.2167 3.13301 15.6917 3.45801 15.3667L3.56634 15.2584C3.89134 14.9334 4.41634 14.9334 4.74134 15.2584C5.06634 15.5834 5.06634 16.1084 4.74134 16.4334L4.63301 16.5417C4.47467 16.7 4.25801 16.7834 4.04967 16.7834ZM18.333 10.8334H18.2663C17.808 10.8334 17.433 10.4584 17.433 10C17.433 9.54171 17.808 9.16671 18.2663 9.16671C18.7247 9.16671 19.133 9.54171 19.133 10C19.133 10.4584 18.7913 10.8334 18.333 10.8334ZM1.73301 10.8334H1.66634C1.20801 10.8334 0.833008 10.4584 0.833008 10C0.833008 9.54171 1.20801 9.16671 1.66634 9.16671C2.12467 9.16671 2.53301 9.54171 2.53301 10C2.53301 10.4584 2.19134 10.8334 1.73301 10.8334ZM15.8413 4.99171C15.6247 4.99171 15.4163 4.90837 15.2497 4.75004C14.9247 4.42504 14.9247 3.90004 15.2497 3.57504L15.358 3.46671C15.683 3.14171 16.208 3.14171 16.533 3.46671C16.858 3.79171 16.858 4.31671 16.533 4.64171L16.4247 4.75004C16.2663 4.90837 16.058 4.99171 15.8413 4.99171ZM4.15801 4.99171C3.94134 4.99171 3.73301 4.90837 3.56634 4.75004L3.45801 4.63337C3.13301 4.30837 3.13301 3.78337 3.45801 3.45837C3.78301 3.13337 4.30801 3.13337 4.63301 3.45837L4.74134 3.56671C5.06634 3.89171 5.06634 4.41671 4.74134 4.74171C4.58301 4.90837 4.36634 4.99171 4.15801 4.99171ZM9.99967 2.53337C9.54134 2.53337 9.16634 2.19171 9.16634 1.73337V1.66671C9.16634 1.20837 9.54134 0.833374 9.99967 0.833374C10.458 0.833374 10.833 1.20837 10.833 1.66671C10.833 2.12504 10.458 2.53337 9.99967 2.53337Z" fill="#3C82F6"/>
</svg>
