<svg width="16" height="16" viewBox="0 0 16 16" fill="none" xmlns="http://www.w3.org/2000/svg">
<path d="M8.33398 9.83333H6.66732C6.39398 9.83333 6.16732 9.60667 6.16732 9.33333C6.16732 9.06 6.39398 8.83333 6.66732 8.83333H8.33398C10.0807 8.83333 11.5007 7.41333 11.5007 5.66667C11.5007 3.92 10.0807 2.5 8.33398 2.5H5.00065C3.25398 2.5 1.83398 3.92 1.83398 5.66667C1.83398 6.4 2.09398 7.11333 2.56065 7.68C2.73398 7.89333 2.70732 8.20667 2.49398 8.38667C2.28065 8.56 1.96732 8.53333 1.78732 8.32C1.17398 7.57333 0.833984 6.63333 0.833984 5.66667C0.833984 3.36667 2.70065 1.5 5.00065 1.5H8.33398C10.634 1.5 12.5007 3.36667 12.5007 5.66667C12.5007 7.96667 10.634 9.83333 8.33398 9.83333Z" fill="#3C82F6"/>
<path d="M11 14.5H7.66667C5.36667 14.5 3.5 12.6334 3.5 10.3334C3.5 8.03335 5.36667 6.16669 7.66667 6.16669H9.33333C9.60667 6.16669 9.83333 6.39335 9.83333 6.66669C9.83333 6.94002 9.60667 7.16669 9.33333 7.16669H7.66667C5.92 7.16669 4.5 8.58669 4.5 10.3334C4.5 12.08 5.92 13.5 7.66667 13.5H11C12.7467 13.5 14.1667 12.08 14.1667 10.3334C14.1667 9.60002 13.9067 8.88669 13.44 8.32002C13.2667 8.10669 13.2933 7.79335 13.5067 7.61335C13.72 7.43335 14.0333 7.46669 14.2133 7.68002C14.8333 8.42669 15.1733 9.36669 15.1733 10.3334C15.1667 12.6334 13.3 14.5 11 14.5Z" fill="#3C82F6"/>
</svg>
