<svg width="131" height="131" viewBox="0 0 131 131" fill="none" xmlns="http://www.w3.org/2000/svg">
<path fill-rule="evenodd" clip-rule="evenodd" d="M63.0928 2.37436C61.2752 2.96386 60.2272 4.01186 59.7196 5.72305C59.433 6.68099 59.3839 8.90799 59.3839 20.5342C59.3839 35.9349 59.3675 35.7384 60.9395 37.3104C63.0437 39.4064 67.9562 39.4064 70.0604 37.3104C71.6324 35.7384 71.616 35.9349 71.616 20.5342C71.616 5.63299 71.5914 5.37099 70.3797 3.92999C69.3644 2.72643 68.2755 2.32524 65.8274 2.25974C64.6239 2.22699 63.3957 2.27611 63.0928 2.37436ZM22.5401 18.5529C21.2465 19.1424 19.3388 21.0091 18.6756 22.3355C17.9879 23.7192 17.9551 25.2584 18.5774 26.6339C19.1832 27.9849 38.211 47.0781 39.7093 47.8396C41.8299 48.9285 44.0077 48.3963 46.202 46.2512C48.3635 44.1388 48.9366 41.8463 47.8395 39.7094C47.0781 38.211 27.9848 19.1833 26.6339 18.5774C25.3894 18.0125 23.7519 18.0043 22.5401 18.5529ZM105.234 18.6839C104.227 19.1506 102.507 20.7635 94.3036 28.9919C86.7629 36.549 84.4622 38.9889 84.0937 39.7912C83.4715 41.1422 83.4797 42.706 84.1019 44.0324C84.6751 45.2605 86.5582 47.1927 87.8272 47.8559C89.1127 48.5273 91.0204 48.5191 92.3549 47.8396C93.7222 47.1354 112.635 28.2223 113.339 26.855C114.019 25.5286 114.027 23.6127 113.364 22.3437C112.693 21.0582 110.957 19.3552 109.647 18.692C108.181 17.947 106.83 17.947 105.234 18.6839ZM5.72299 59.7032C3.30768 60.4647 2.1123 62.3887 2.1123 65.4918C2.12049 68.6604 3.29949 70.5599 5.7148 71.2804C6.68093 71.5669 8.83424 71.6161 20.5342 71.6161C32.7254 71.6161 34.3547 71.5751 35.3536 71.2476C36.8273 70.7727 38.0227 69.5774 38.4976 68.1036C39.2017 65.9339 38.8496 62.8554 37.7279 61.3326C37.4823 61.0051 36.7782 60.4565 36.1641 60.1208L35.0424 59.4986L20.8535 59.4494C9.43193 59.4167 6.47624 59.4658 5.72299 59.7032ZM96.1621 59.5886C95.1551 59.8342 93.7632 60.6776 93.2719 61.3407C92.1502 62.8554 91.7982 65.9339 92.5023 68.1036C92.9772 69.5774 94.1726 70.7727 95.6463 71.2476C96.6452 71.5751 98.2745 71.6161 110.466 71.6161C122.166 71.6161 124.319 71.5669 125.285 71.2804C127.7 70.5599 128.879 68.6604 128.888 65.4918C128.888 62.3396 127.684 60.4483 125.187 59.695C124.343 59.4412 121.699 59.3921 110.498 59.4085C102.982 59.4249 96.5305 59.5067 96.1621 59.5886ZM39.7339 84.1839C38.7268 84.6505 37.0074 86.2635 28.8036 94.4919C21.2629 102.049 18.9622 104.489 18.5937 105.291C17.9715 106.642 17.9797 108.206 18.6019 109.532C19.1751 110.76 21.0582 112.693 22.3272 113.356C23.6127 114.027 25.5204 114.019 26.8549 113.34C28.2222 112.635 47.1354 93.7223 47.8395 92.355C48.5191 91.0286 48.5272 89.1127 47.8641 87.8437C47.1927 86.5582 45.4569 84.8552 44.1469 84.192C42.6814 83.447 41.3304 83.447 39.7339 84.1839ZM88.0401 84.0529C86.7465 84.6424 84.8388 86.5091 84.1756 87.8355C83.4879 89.2192 83.4551 90.7584 84.0774 92.1339C84.6832 93.4849 103.711 112.578 105.209 113.34C107.33 114.428 109.508 113.896 111.702 111.751C113.863 109.639 114.437 107.346 113.339 105.209C112.578 103.711 93.4848 84.6833 92.1339 84.0774C90.8894 83.5125 89.2519 83.5043 88.0401 84.0529ZM63.4121 92.3304C62.3887 92.5924 61.005 93.4357 60.5219 94.0907C59.3921 95.6136 59.3839 95.7201 59.3839 110.441C59.3839 122.166 59.433 124.319 59.7196 125.285C60.4401 127.7 62.3477 128.879 65.4999 128.879C68.6521 128.879 70.5598 127.7 71.2803 125.285C71.7879 123.549 71.7797 97.2265 71.2639 95.7119C70.7727 94.2709 70.2077 93.5831 68.9387 92.8954C68.0381 92.4041 67.5141 92.2813 65.9666 92.224C64.9268 92.1831 63.7806 92.2322 63.4121 92.3304Z" fill="url(#paint0_linear_2142_75221)"/>
<defs>
<linearGradient id="paint0_linear_2142_75221" x1="2.1123" y1="65.5645" x2="128.888" y2="65.5645" gradientUnits="userSpaceOnUse">
<stop stop-color="#155DFC"/>
<stop offset="1" stop-color="#7F22FE"/>
</linearGradient>
</defs>
</svg>
