<svg width="16" height="16" viewBox="0 0 16 16" fill="none" xmlns="http://www.w3.org/2000/svg">
<path d="M1.52686 5.18667V11.6733C1.52686 12.94 2.42686 13.46 3.52019 12.8333L5.08686 11.94C5.42686 11.7467 5.99352 11.7267 6.34686 11.9067L9.84686 13.66C10.2002 13.8333 10.7669 13.82 11.1069 13.6267L13.9935 11.9733C14.3602 11.76 14.6669 11.24 14.6669 10.8133V4.32667C14.6669 3.06 13.7669 2.54 12.6735 3.16667L11.1069 4.06C10.7669 4.25334 10.2002 4.27334 9.84686 4.09334L6.34686 2.34667C5.99352 2.17334 5.42686 2.18667 5.08686 2.38L2.20019 4.03334C1.82686 4.24667 1.52686 4.76667 1.52686 5.18667Z" stroke="#777777" stroke-linecap="round" stroke-linejoin="round"/>
<path d="M5.70654 2.66669V11.3334" stroke="#777777" stroke-linecap="round" stroke-linejoin="round"/>
<path d="M10.4868 4.41333V13.3333" stroke="#777777" stroke-linecap="round" stroke-linejoin="round"/>
</svg>
