<svg width="25" height="24" viewBox="0 0 25 24" fill="none" xmlns="http://www.w3.org/2000/svg">
<path d="M19.0104 8.25005C19.5104 8.25005 19.9104 7.85005 19.9104 7.35005V2.70005C19.9104 2.20005 19.5104 1.80005 19.0104 1.80005C18.5104 1.80005 18.1104 2.20005 18.1104 2.70005V7.35005C18.1104 7.84005 18.5204 8.25005 19.0104 8.25005Z" fill="#3C82F6"/>
<path d="M12.4996 15.75C11.9996 15.75 11.5996 16.15 11.5996 16.65V21.3C11.5996 21.8 11.9996 22.2 12.4996 22.2C12.9996 22.2 13.3996 21.8 13.3996 21.3V16.65C13.3996 16.16 12.9996 15.75 12.4996 15.75Z" fill="#3C82F6"/>
<path d="M5.98984 8.25005C6.48984 8.25005 6.88984 7.85005 6.88984 7.35005V2.70005C6.88984 2.20005 6.48984 1.80005 5.98984 1.80005C5.48984 1.80005 5.08984 2.20005 5.08984 2.70005V7.35005C5.08984 7.84005 5.48984 8.25005 5.98984 8.25005Z" fill="#3C82F6"/>
<path d="M7.85047 10.1699H4.13047C3.63047 10.1699 3.23047 10.5699 3.23047 11.0699C3.23047 11.5699 3.63047 11.9699 4.13047 11.9699H5.09047V21.2999C5.09047 21.7999 5.49047 22.1999 5.99047 22.1999C6.49047 22.1999 6.89047 21.7999 6.89047 21.2999V11.9699H7.85047C8.35047 11.9699 8.75047 11.5699 8.75047 11.0699C8.75047 10.5699 8.34047 10.1699 7.85047 10.1699Z" fill="#3C82F6"/>
<path d="M20.87 10.1699H17.15C16.65 10.1699 16.25 10.5699 16.25 11.0699C16.25 11.5699 16.65 11.9699 17.15 11.9699H18.11V21.2999C18.11 21.7999 18.51 22.1999 19.01 22.1999C19.51 22.1999 19.91 21.7999 19.91 21.2999V11.9699H20.87C21.37 11.9699 21.77 11.5699 21.77 11.0699C21.77 10.5699 21.37 10.1699 20.87 10.1699Z" fill="#3C82F6"/>
<path d="M14.3602 12.03H13.4002V2.70005C13.4002 2.20005 13.0002 1.80005 12.5002 1.80005C12.0002 1.80005 11.6002 2.20005 11.6002 2.70005V12.03H10.6402C10.1402 12.03 9.74023 12.43 9.74023 12.93C9.74023 13.43 10.1402 13.83 10.6402 13.83H14.3602C14.8602 13.83 15.2602 13.43 15.2602 12.93C15.2602 12.43 14.8602 12.03 14.3602 12.03Z" fill="#3C82F6"/>
</svg>
