<svg width="50" height="50" viewBox="0 0 50 50" fill="none" xmlns="http://www.w3.org/2000/svg">
<rect width="50" height="50" rx="25" fill="#E0ECFE"/>
<path d="M13.334 20.73V29.27C13.334 31.02 15.2357 32.1167 16.7523 31.2417L20.4507 29.1067L24.149 26.9717L24.7207 26.645V23.355L24.149 23.0283L20.4507 20.8933L16.7523 18.7583C15.2357 17.8833 13.334 18.98 13.334 20.73Z" fill="#3C82F6"/>
<path d="M24.7207 20.73V29.27C24.7207 31.02 26.6224 32.1167 28.1274 31.2417L31.8374 29.1067L35.5357 26.9717C37.0407 26.0967 37.0407 23.9033 35.5357 23.0283L31.8374 20.8933L28.1274 18.7583C26.6224 17.8833 24.7207 18.98 24.7207 20.73Z" fill="#3C82F6"/>
</svg>
