<svg width="16" height="17" viewBox="0 0 16 17" fill="none" xmlns="http://www.w3.org/2000/svg">
<path d="M4 7.01809V5.68475C4 3.47809 4.66667 1.68475 8 1.68475C11.3333 1.68475 12 3.47809 12 5.68475V7.01809" stroke="#3C82F6" stroke-width="1.5" stroke-linecap="round" stroke-linejoin="round"/>
<path d="M7.99998 12.6848C8.92045 12.6848 9.66665 11.9386 9.66665 11.0181C9.66665 10.0976 8.92045 9.35144 7.99998 9.35144C7.07951 9.35144 6.33331 10.0976 6.33331 11.0181C6.33331 11.9386 7.07951 12.6848 7.99998 12.6848Z" stroke="#3C82F6" stroke-width="1.5" stroke-linecap="round" stroke-linejoin="round"/>
<path d="M11.3333 15.0181H4.66665C1.99998 15.0181 1.33331 14.3515 1.33331 11.6848V10.3515C1.33331 7.68479 1.99998 7.01813 4.66665 7.01813H11.3333C14 7.01813 14.6666 7.68479 14.6666 10.3515V11.6848C14.6666 14.3515 14 15.0181 11.3333 15.0181Z" stroke="#3C82F6" stroke-width="1.5" stroke-linecap="round" stroke-linejoin="round"/>
</svg>
