<svg width="22" height="22" viewBox="0 0 22 22" fill="none" xmlns="http://www.w3.org/2000/svg">
<path d="M10.4154 6.22002C10.4154 6.22002 10.2229 6.96252 11.0479 7.15502C11.7698 7.32517 11.9211 6.59642 11.9211 6.59642C11.9211 6.59642 12.0809 5.8608 12.4109 5.78861C12.5364 5.76111 12.5639 5.79205 12.9231 5.73877C13.5367 5.64595 13.6982 5.34861 13.7498 5.07877C13.767 4.99627 13.7739 4.91549 13.779 4.84502C13.7876 4.74705 13.7962 4.66798 13.8306 4.6233C13.8581 4.5872 14.2396 4.44111 14.1881 4.2572C14.1193 4.01314 13.669 3.81892 13.6879 3.59205C13.6862 3.53361 13.724 3.34283 13.7292 3.31705C13.7653 3.10048 13.7532 2.79798 13.6845 2.49892C13.4954 1.67392 12.9575 1.05002 12.0345 0.96236C11.2078 0.886735 10.2625 1.50205 9.87574 2.23595C9.62824 2.70689 9.98746 3.92205 10.4103 4.56486C10.9603 5.40361 10.4154 6.22002 10.4154 6.22002Z" fill="#FFCA28"/>
<path d="M13.3238 4.9879C13.4545 5.07212 13.6023 5.09618 13.7501 5.07899C13.7673 4.99649 13.7741 4.91571 13.7793 4.84524C13.6624 4.8693 13.5146 4.86243 13.427 4.83321C13.2654 4.77821 13.1795 4.89852 13.3238 4.9879Z" fill="#795548"/>
<path d="M12.8375 3.77137C12.8311 3.60442 12.9136 3.46572 13.0217 3.46157C13.1298 3.45741 13.2227 3.58937 13.2291 3.75632C13.2355 3.92326 13.1531 4.06196 13.0449 4.06612C12.9368 4.07027 12.8439 3.93831 12.8375 3.77137Z" fill="#404040"/>
<path d="M13.1416 3.34291C13.3306 3.40478 13.3805 3.28103 13.3186 3.17619C13.2739 3.10056 13.1605 3.03353 12.9353 3.06962C12.7239 3.104 12.6328 3.22259 12.5744 3.29478C12.5159 3.36697 12.5194 3.44087 12.5675 3.44775C12.6345 3.4615 12.9078 3.26728 13.1416 3.34291Z" fill="#6D4C41"/>
<path d="M5.00838 14.2033L8.2001 14.8409L9.08869 11.7695L11.2251 13.2012L9.66791 16.3294L9.66103 16.3242C9.53048 16.5559 9.31563 16.7282 9.06119 16.8055C8.98385 16.8295 8.9065 16.8433 8.82744 16.8484V16.8519L8.80166 16.8502C8.70541 16.8553 8.61088 16.8484 8.51978 16.8295L4.58041 15.3325L5.00838 14.2033Z" fill="#616161"/>
<path d="M4.32432 13.5488C4.37932 13.456 4.49791 13.4268 4.59072 13.4818L4.99807 13.7259C5.27479 13.8909 5.42432 14.3601 5.42432 14.3601L4.81932 15.3759L3.97197 16.1115C3.75369 16.2816 3.45291 16.3006 3.214 16.1613L3.0301 16.0531C2.94932 16.0049 2.92182 15.9001 2.96994 15.8193L4.32432 13.5488Z" fill="#325599"/>
<path d="M14.2895 19.5594L12.3284 15.8125C12.3284 15.8125 9.88609 13.7913 9.67297 13.6486C8.87719 13.1158 8.71906 12.375 8.79813 11.8371C8.86 11.4194 9.13672 10.8643 9.13672 10.8643L12.3422 11.8199L12.1909 12.4077C12.1909 12.4077 13.1723 13.6761 13.4009 13.9408C13.6295 14.2055 14.0214 14.575 14.3256 15.6183C14.647 16.7183 15.4531 19.3704 15.4531 19.3704L14.2895 19.5594Z" fill="#7C7C7C"/>
<path d="M14.2913 20.7264C14.1848 20.7436 14.0851 20.6714 14.0679 20.5665L13.9923 20.0973C13.939 19.7793 14.202 19.3634 14.202 19.3634L15.369 19.1709L16.4776 19.3445C16.7492 19.4029 16.9571 19.6195 17.0035 19.8928L17.0396 20.1042C17.0551 20.197 16.9932 20.2846 16.9004 20.3001L14.2913 20.7264Z" fill="#4568AD"/>
<path d="M13.3962 8.4257L14.9362 7.25352L15.6855 8.05445L14.1318 9.56008L14.1301 9.55836C13.8259 9.87633 13.1126 10.0929 12.5196 9.5532C11.9559 9.0393 11.2598 7.94445 11.2598 7.94445L12.4646 6.97852L13.3962 8.4257Z" fill="url(#paint0_linear_359_79462)"/>
<path d="M13.3599 7.7244C12.9181 8.96018 11.8353 8.998 11.8353 8.998L10.9725 7.51987C10.8611 7.32881 10.8301 7.10136 10.8861 6.88742C10.9422 6.67348 11.0808 6.49051 11.2716 6.37862L11.4142 6.2944C11.8113 6.06237 12.1481 6.17581 12.6827 6.95612C13.1622 7.65909 13.3599 7.7244 13.3599 7.7244Z" fill="#ED6D23"/>
<path d="M12.3424 11.8178C12.7686 10.1266 12.8477 8.9389 12.7514 7.98671C12.6277 6.78702 12.0553 6.0703 11.4125 5.84343C10.6185 5.56327 10.0685 5.96718 9.84675 6.68562C9.6955 7.17546 9.72472 7.55187 9.73675 7.78562C9.73675 7.78562 9.84675 9.06952 8.82581 10.6766C8.82581 10.6766 8.92378 11.3744 10.5532 11.7576C11.2785 11.9278 12.3424 11.8178 12.3424 11.8178Z" fill="url(#paint1_linear_359_79462)"/>
<path d="M9.71771 10.2454C9.71771 10.2454 10.4637 9.87412 10.4722 9.87069C10.4946 9.85866 10.5191 9.85116 10.5443 9.84862C10.5695 9.84608 10.595 9.84856 10.6193 9.85591C10.6436 9.86326 10.6662 9.87533 10.6858 9.89143C10.7054 9.90754 10.7216 9.92735 10.7335 9.94975L10.8933 10.2488C10.9191 10.2987 10.9208 10.3537 10.9037 10.4035C10.9896 10.4533 11.201 10.584 11.2457 10.6716C11.2972 10.7713 11.2388 10.8762 11.1838 10.9002C11.1202 10.9277 11.091 11.0171 11.1099 11.0841C11.1305 11.1529 11.1288 11.2233 11.0962 11.2801C11.0635 11.3368 11.0222 11.3591 10.9432 11.3746C10.9054 11.3815 10.8658 11.4296 10.8658 11.4674C10.8676 11.5258 10.8676 11.6272 10.8383 11.6651C10.7799 11.7424 10.6837 11.7183 10.6338 11.7751C10.6149 11.7974 10.6132 11.8954 10.5736 11.9315C10.4568 12.0415 10.0769 11.8387 10.0769 11.8387L9.35162 11.1666L9.71771 10.2454Z" fill="#EDA600"/>
<path d="M9.95862 10.1289L9.49972 10.2578L9.18519 11.1258C9.18519 11.1258 10.1666 12.0917 10.3333 11.8219C10.3866 11.7377 10.2886 11.6466 10.4313 11.5933C10.5327 11.5555 10.6083 11.5073 10.5791 11.3509C10.5671 11.2925 10.6135 11.2203 10.6547 11.2152C10.8403 11.1928 10.8885 11.0897 10.8335 10.9591C10.8025 10.8869 10.8094 10.7648 10.9142 10.7098C10.9521 10.6892 11.0053 10.605 10.9813 10.4847C10.9417 10.2973 9.95862 10.1289 9.95862 10.1289Z" fill="url(#paint2_linear_359_79462)"/>
<path d="M9.32758 11.2336L7.62773 10.0871V10.0854C7.4232 9.88262 7.35102 9.74168 7.30977 9.57152C7.17914 9.03871 7.52633 8.66746 7.52633 8.66746L9.09898 6.90918L10.0684 7.91121L8.68648 9.29309L9.71945 10.247L9.32758 11.2336Z" fill="url(#paint3_linear_359_79462)"/>
<path d="M9.29352 8.93957C9.29352 8.93957 8.25196 7.91004 8.27946 7.1177C8.27946 7.1177 8.77618 7.11598 9.51524 6.55738C9.98102 6.20676 10.5998 6.17754 10.849 6.5866C11.0707 6.94754 11.0346 7.3927 10.6084 7.90316C10.2887 8.28301 9.29352 8.93957 9.29352 8.93957Z" fill="#ED6D23"/>
<path d="M15.7625 7.45771L15.7677 7.46115C15.8416 7.55396 15.9688 7.57974 16.0513 7.51615L16.3864 7.26349C16.4689 7.20162 16.4758 7.07443 16.4019 6.98162C16.328 6.88881 16.2008 6.86302 16.1183 6.92662L15.7832 7.17928C15.6989 7.24287 15.6869 7.3649 15.7625 7.45771Z" fill="url(#paint4_linear_359_79462)"/>
<path d="M15.4807 6.40034C15.4755 6.40378 15.4738 6.40721 15.4738 6.40721C15.3208 6.5705 15.185 6.70628 15.1266 6.74237C14.9719 6.84034 14.8275 6.96409 14.7382 7.13768C14.5714 7.46253 14.7846 7.78222 15.0338 8.01768C15.2813 8.25487 15.4377 8.30643 15.7075 8.26175C15.9275 8.22565 16.3933 7.73237 16.3933 7.73237C16.4414 7.67565 16.4964 7.61722 16.5514 7.56222C16.5721 7.54159 16.5944 7.52097 16.615 7.49862L16.6168 7.4969C16.6804 7.43503 16.6889 7.35253 16.6185 7.26659C16.5257 7.15315 16.4346 7.21159 16.4243 7.22018L16.4225 7.2219C16.3796 7.26143 16.3332 7.31472 16.2988 7.3405C16.1991 7.4144 16.1441 7.42815 16.1441 7.42815L15.6732 6.83003L15.833 6.6169C15.833 6.6169 15.8347 6.61347 15.8399 6.60831C15.8571 6.58081 15.9241 6.48284 15.7969 6.36768C15.656 6.24737 15.5099 6.37284 15.4807 6.40034Z" fill="url(#paint5_linear_359_79462)"/>
<path d="M15.496 7.21158C15.5785 7.29924 15.7074 7.31299 15.7848 7.24424L16.1406 6.92627C16.2179 6.85752 16.2145 6.73033 16.132 6.64267C16.0495 6.55502 15.9206 6.54127 15.8432 6.61002L15.4874 6.92799C15.4118 6.99846 15.4152 7.12392 15.496 7.21158Z" fill="url(#paint6_linear_359_79462)"/>
<path d="M15.9586 7.26307C15.8812 7.15136 15.7867 7.01386 15.6818 6.89526C15.6664 6.87807 15.6526 6.86261 15.6371 6.84714C15.4928 6.69761 15.3037 6.67182 15.0665 6.80073C15.0579 6.80589 15.0511 6.80932 15.0425 6.81448C15.0287 6.82307 15.015 6.83167 14.9995 6.84026L14.9978 6.84198C14.9771 6.85573 14.9565 6.86948 14.9359 6.88495C14.8654 6.93651 14.8121 7.00011 14.7795 7.06198C14.6489 7.26995 14.6867 7.46761 14.6867 7.46761C14.6867 7.46761 14.8379 7.92823 15.0614 7.84745C15.2848 7.76667 15.4 7.4487 15.4 7.4487L15.3415 7.21839C15.4086 7.21151 15.467 7.24073 15.5461 7.33011C15.5718 7.35932 15.6011 7.39542 15.6354 7.43839C15.6389 7.44354 15.6818 7.49682 15.6853 7.50026C15.7368 7.55698 15.7953 7.58448 15.8657 7.57932C15.9568 7.57417 16.0342 7.48651 16.0771 7.45214C16.0445 7.41089 16.0015 7.32323 15.9586 7.26307Z" fill="url(#paint7_linear_359_79462)"/>
<path d="M16.0601 7.79398L15.7816 7.56539L15.6338 7.39695L15.4413 7.22852L15.3743 7.25773L15.4155 7.47773L15.2712 7.6943L15.1801 7.77164L15.6527 8.1068L16.0601 7.79398Z" fill="url(#paint8_radial_359_79462)"/>
<path d="M16.0412 7.66891C16.0463 7.77547 16.1495 7.83391 16.1426 7.83562C16.1134 7.84766 15.969 7.81156 15.8092 7.63281C15.6854 7.49359 15.5668 7.31312 15.4224 7.27016C15.4723 7.51422 15.364 7.70156 15.1646 7.77547C15.3176 7.63281 15.4413 7.39219 15.3021 7.19969C15.4156 7.13094 15.5479 7.24438 15.6149 7.32688C15.6923 7.41969 15.761 7.56406 15.9037 7.54516C16.0017 7.53313 16.0377 7.47125 16.0034 7.37844C15.9174 7.15156 15.7163 6.91953 15.5101 6.79062C15.4345 6.74422 15.2798 6.73219 15.0804 6.77172C15.2265 6.65828 15.4757 6.69437 15.5702 6.73906C15.651 6.77687 15.6304 6.76141 15.7026 6.715C15.7387 6.69094 15.7748 6.66687 15.8092 6.64453C15.7799 6.69266 15.7284 6.75109 15.7198 6.80781C15.7095 6.87828 15.7765 6.93844 15.8177 6.98828C15.9243 7.11547 16.0171 7.00547 16.1271 6.93672C16.0532 7.02438 16.036 7.05187 15.9982 7.11375C15.9484 7.19797 16.024 7.26672 16.079 7.33203C16.1907 7.46609 16.421 7.19281 16.4365 7.21C16.4537 7.23063 16.036 7.55203 16.0412 7.66891Z" fill="#EDA600"/>
<path d="M9.35153 2.20343C9.56809 1.62937 10.027 1.4489 10.1765 1.40421C10.2436 1.19624 10.5856 0.407334 11.8832 0.596397C12.1995 0.642803 12.4315 0.788897 12.6378 0.917803C12.7254 0.972803 12.8097 1.02608 12.887 1.06046C12.9506 1.08968 13.0623 1.11546 13.1534 1.0828C13.3614 1.01062 13.2875 0.696084 13.2875 0.696084C13.2875 0.696084 14.054 0.833584 13.7378 1.5778C13.9956 1.68608 14.1193 1.95593 14.1692 2.2103C14.2379 2.55749 14.0729 2.89437 13.7412 3.04905C13.7412 3.04905 13.7979 2.48702 12.9884 2.53515C12.7375 2.55062 12.4762 2.59358 12.2407 2.50421C12.1514 2.46983 12.0672 2.41483 11.9795 2.37358H11.9486C11.6443 2.54374 12.062 3.25874 11.7286 3.68843C11.6632 3.77265 11.6048 3.74343 11.6048 3.74343L11.4639 3.54577C11.3573 3.40999 11.2611 3.2914 11.1322 3.32233C10.7523 3.41343 10.8331 4.09233 11.2886 4.23499C11.3332 4.24874 11.2422 5.01015 10.3037 5.02733C9.81903 5.03593 9.64028 4.63718 9.64028 4.63718C9.64028 4.63718 9.84825 4.6853 9.8895 4.50827C9.91184 4.41718 9.8259 4.29515 9.67122 4.1628C9.22778 3.78124 9.37731 3.33265 9.43918 3.19171C9.37387 3.06452 9.18309 2.65202 9.35153 2.20343Z" fill="#543930"/>
<path d="M9.44258 3.19385C9.43399 3.17838 9.58352 3.53588 10.2023 3.46541C10.4566 3.46025 10.8227 4.06869 10.4584 4.48119C10.1352 4.84557 9.64367 4.63932 9.64367 4.63932C9.64367 4.63932 9.7107 4.65822 9.80867 4.62213C9.87227 4.59807 9.89289 4.51557 9.89289 4.51213C9.91524 4.42104 9.8293 4.299 9.67461 4.16666C9.23117 3.78166 9.38071 3.33307 9.44258 3.19385Z" fill="url(#paint9_radial_359_79462)"/>
<path d="M9.35129 2.20375C9.46473 1.90125 9.67957 1.64516 9.96488 1.49391C10.0061 1.47156 10.1075 1.42 10.178 1.40625C10.1471 1.54031 10.1522 1.68297 10.2124 1.82734C10.2141 1.8325 10.2829 2.04906 10.4736 2.22094C10.3413 2.41172 10.276 2.64203 10.2158 2.86891C10.1625 3.06656 10.1127 3.28312 10.2021 3.46703C10.0835 3.46187 9.89441 3.49797 9.68473 3.40859C9.48363 3.32266 9.37535 3.09406 9.32207 2.88953C9.26535 2.66266 9.26879 2.42375 9.35129 2.20375Z" fill="url(#paint10_radial_359_79462)"/>
<path d="M10.2143 1.8268C10.0579 1.44524 10.2625 1.08774 10.577 0.845397C10.9465 0.561803 11.4381 0.530865 11.8832 0.596178C12.1995 0.642584 12.4315 0.788678 12.6378 0.917584C12.7254 0.972584 12.8097 1.02587 12.887 1.06024C12.9506 1.08946 13.0623 1.11524 13.1534 1.08258C13.3614 1.0104 13.2875 0.695865 13.2875 0.695865C13.2875 0.695865 14.054 0.833365 13.7378 1.57758C13.9956 1.68587 14.1193 1.95571 14.1692 2.21008C14.2379 2.55727 14.0729 2.89415 13.7412 3.04883C13.7412 3.04883 13.7979 2.4868 12.9884 2.53493C12.7375 2.5504 12.4762 2.59337 12.2407 2.50399C12.0328 2.42493 11.9606 2.31493 11.7303 2.33212C11.4811 2.35102 11.1511 2.45071 10.895 2.41633C10.3759 2.34587 10.2161 1.83368 10.2143 1.8268Z" fill="url(#paint11_radial_359_79462)"/>
<path d="M10.4584 4.4809C10.6217 4.30043 10.6613 4.00824 10.9191 3.84668C10.9706 4.01512 11.0961 4.17496 11.2903 4.23512C11.335 4.24887 11.2439 5.01027 10.3055 5.02746C9.82078 5.03605 9.64203 4.6373 9.64203 4.6373C9.64203 4.6373 10.1284 4.84355 10.4584 4.4809Z" fill="url(#paint12_radial_359_79462)"/>
<defs>
<linearGradient id="paint0_linear_359_79462" x1="15.6507" y1="8.27858" x2="12.7728" y2="8.43842" gradientUnits="userSpaceOnUse">
<stop offset="0.598" stop-color="#FFCA28"/>
<stop offset="1" stop-color="#FFB300"/>
</linearGradient>
<linearGradient id="paint1_linear_359_79462" x1="12.9292" y1="8.40136" x2="8.53169" y2="9.64133" gradientUnits="userSpaceOnUse">
<stop stop-color="#F78C1F"/>
<stop offset="0.482" stop-color="#F47F12"/>
<stop offset="1" stop-color="#EF6C00"/>
</linearGradient>
<linearGradient id="paint2_linear_359_79462" x1="9.37648" y1="10.5696" x2="10.4956" y2="11.1131" gradientUnits="userSpaceOnUse">
<stop offset="0.598" stop-color="#FFCA28"/>
<stop offset="1" stop-color="#FFB300"/>
</linearGradient>
<linearGradient id="paint3_linear_359_79462" x1="8.02528" y1="10.3664" x2="9.43225" y2="8.8316" gradientUnits="userSpaceOnUse">
<stop offset="0.598" stop-color="#FFCA28"/>
<stop offset="1" stop-color="#FFB300"/>
</linearGradient>
<linearGradient id="paint4_linear_359_79462" x1="15.9139" y1="7.04915" x2="16.2586" y2="7.39718" gradientUnits="userSpaceOnUse">
<stop offset="0.5" stop-color="#FFCA28"/>
<stop offset="1" stop-color="#FFB300"/>
</linearGradient>
<linearGradient id="paint5_linear_359_79462" x1="16.1291" y1="7.99281" x2="15.0543" y2="6.78543" gradientUnits="userSpaceOnUse">
<stop stop-color="#FFB300"/>
<stop offset="0.138" stop-color="#FFCA28"/>
<stop offset="0.831" stop-color="#FFCA28"/>
</linearGradient>
<linearGradient id="paint6_linear_359_79462" x1="15.6476" y1="6.76633" x2="15.9837" y2="7.09077" gradientUnits="userSpaceOnUse">
<stop offset="0.5" stop-color="#FFCA28"/>
<stop offset="1" stop-color="#FFB300"/>
</linearGradient>
<linearGradient id="paint7_linear_359_79462" x1="15.6457" y1="7.06361" x2="14.7935" y2="7.71338" gradientUnits="userSpaceOnUse">
<stop offset="0.5" stop-color="#FFCA28"/>
<stop offset="1" stop-color="#FFB300"/>
</linearGradient>
<radialGradient id="paint8_radial_359_79462" cx="0" cy="0" r="1" gradientUnits="userSpaceOnUse" gradientTransform="translate(15.5831 7.48289) rotate(180) scale(0.534016)">
<stop stop-color="#FFB300"/>
<stop offset="1" stop-color="#FFCA28"/>
</radialGradient>
<radialGradient id="paint9_radial_359_79462" cx="0" cy="0" r="1" gradientTransform="matrix(-1.14149 0.445273 -0.641198 -1.64398 10.6164 4.06586)" gradientUnits="userSpaceOnUse">
<stop offset="0.45" stop-color="#6D4C41" stop-opacity="0"/>
<stop offset="1" stop-color="#6D4C41"/>
</radialGradient>
<radialGradient id="paint10_radial_359_79462" cx="0" cy="0" r="1" gradientTransform="matrix(-1.23352 -0.144441 0.182197 -1.55656 10.4533 2.83857)" gradientUnits="userSpaceOnUse">
<stop offset="0.45" stop-color="#6D4C41" stop-opacity="0"/>
<stop offset="1" stop-color="#6D4C41"/>
</radialGradient>
<radialGradient id="paint11_radial_359_79462" cx="0" cy="0" r="1" gradientTransform="matrix(-2.53278 -0.345867 0.259975 -1.90367 11.8382 2.3668)" gradientUnits="userSpaceOnUse">
<stop offset="0.45" stop-color="#6D4C41" stop-opacity="0"/>
<stop offset="1" stop-color="#6D4C41"/>
</radialGradient>
<radialGradient id="paint12_radial_359_79462" cx="0" cy="0" r="1" gradientTransform="matrix(-1.32735 0.36318 -0.233542 -0.853384 10.3293 4.22818)" gradientUnits="userSpaceOnUse">
<stop offset="0.45" stop-color="#6D4C41" stop-opacity="0"/>
<stop offset="1" stop-color="#6D4C41"/>
</radialGradient>
</defs>
</svg>
