<svg width="25" height="25" viewBox="0 0 25 25" fill="none" xmlns="http://www.w3.org/2000/svg">
<path d="M24.474 13.7245C23.8511 15.9331 20.9081 17.4936 15.0217 20.6149C9.33109 23.6322 6.48579 25.1409 4.19303 24.5344C3.24509 24.2837 2.38138 23.8077 1.68482 23.1515C-1.14353e-06 21.5651 0 18.488 0 12.3333C0 6.1787 -1.14353e-06 3.10159 1.68482 1.51506C2.38138 0.859146 3.24509 0.382985 4.19303 0.132248C6.48579 -0.474182 9.33109 1.03449 15.0217 4.05178C20.9081 7.17307 23.8511 8.73355 24.474 10.9421C24.7308 11.8539 24.7308 12.8128 24.474 13.7245Z" fill="white"/>
</svg>
