<svg width="50" height="50" viewBox="0 0 50 50" fill="none" xmlns="http://www.w3.org/2000/svg">
<rect width="50" height="50" rx="25" transform="matrix(-1 0 0 1 50 0)" fill="#E0ECFE"/>
<path d="M36.666 20.73V29.27C36.666 31.02 34.7643 32.1167 33.2477 31.2417L29.5493 29.1067L25.851 26.9717L25.2793 26.645V23.355L25.851 23.0283L29.5493 20.8933L33.2477 18.7583C34.7643 17.8833 36.666 18.98 36.666 20.73Z" fill="#3C82F6"/>
<path d="M25.2793 20.73V29.27C25.2793 31.02 23.3776 32.1167 21.8726 31.2417L18.1626 29.1067L14.4643 26.9717C12.9593 26.0967 12.9593 23.9033 14.4643 23.0283L18.1626 20.8933L21.8726 18.7583C23.3776 17.8833 25.2793 18.98 25.2793 20.73Z" fill="#3C82F6"/>
</svg>
