<svg width="192" height="192" viewBox="0 0 192 192" fill="none" xmlns="http://www.w3.org/2000/svg">
<path d="M0 14C0 6.26802 6.26801 0 14 0H178C185.732 0 192 6.26801 192 14V178C192 185.732 185.732 192 178 192H14C6.26802 192 0 185.732 0 178V14Z" fill="white"/>
<mask id="path-2-inside-1_2142_74237" fill="white">
<path d="M16 26C16 20.4772 20.4772 16 26 16H166C171.523 16 176 20.4772 176 26V166C176 171.523 171.523 176 166 176H26C20.4772 176 16 171.523 16 166V26Z"/>
</mask>
<path d="M26 16V20H166V16V12H26V16ZM176 26H172V166H176H180V26H176ZM166 176V172H26V176V180H166V176ZM16 166H20V26H16H12V166H16ZM26 176V172C22.6863 172 20 169.314 20 166H16H12C12 173.732 18.268 180 26 180V176ZM176 166H172C172 169.314 169.314 172 166 172V176V180C173.732 180 180 173.732 180 166H176ZM166 16V20C169.314 20 172 22.6863 172 26H176H180C180 18.268 173.732 12 166 12V16ZM26 16V12C18.268 12 12 18.268 12 26H16H20C20 22.6863 22.6863 20 26 20V16Z" fill="#0F172B" mask="url(#path-2-inside-1_2142_74237)"/>
<path d="M79.3333 66H69.3333C67.4924 66 66 67.4924 66 69.3333V79.3333C66 81.1743 67.4924 82.6667 69.3333 82.6667H79.3333C81.1743 82.6667 82.6667 81.1743 82.6667 79.3333V69.3333C82.6667 67.4924 81.1743 66 79.3333 66Z" stroke="#0F172B" stroke-width="5" stroke-linecap="round" stroke-linejoin="round"/>
<path d="M122.666 66H112.666C110.825 66 109.333 67.4924 109.333 69.3333V79.3333C109.333 81.1743 110.825 82.6667 112.666 82.6667H122.666C124.507 82.6667 126 81.1743 126 79.3333V69.3333C126 67.4924 124.507 66 122.666 66Z" stroke="#0F172B" stroke-width="5" stroke-linecap="round" stroke-linejoin="round"/>
<path d="M79.3333 109.333H69.3333C67.4924 109.333 66 110.825 66 112.666V122.666C66 124.507 67.4924 126 69.3333 126H79.3333C81.1743 126 82.6667 124.507 82.6667 122.666V112.666C82.6667 110.825 81.1743 109.333 79.3333 109.333Z" stroke="#0F172B" stroke-width="5" stroke-linecap="round" stroke-linejoin="round"/>
<path d="M126 109.333H116C114.232 109.333 112.536 110.035 111.286 111.286C110.035 112.536 109.333 114.232 109.333 116V126" stroke="#0F172B" stroke-width="5" stroke-linecap="round" stroke-linejoin="round"/>
<path d="M126 126V126.033" stroke="#0F172B" stroke-width="5" stroke-linecap="round" stroke-linejoin="round"/>
<path d="M95.9997 79.333V89.333C95.9997 91.1011 95.2973 92.7968 94.0471 94.0471C92.7968 95.2973 91.1011 95.9997 89.333 95.9997H79.333" stroke="#0F172B" stroke-width="5" stroke-linecap="round" stroke-linejoin="round"/>
<path d="M66 96H66.0333" stroke="#0F172B" stroke-width="5" stroke-linecap="round" stroke-linejoin="round"/>
<path d="M96 66H96.0333" stroke="#0F172B" stroke-width="5" stroke-linecap="round" stroke-linejoin="round"/>
<path d="M96 109.333V109.366" stroke="#0F172B" stroke-width="5" stroke-linecap="round" stroke-linejoin="round"/>
<path d="M109.333 96H112.666" stroke="#0F172B" stroke-width="5" stroke-linecap="round" stroke-linejoin="round"/>
<path d="M126 96V96.0333" stroke="#0F172B" stroke-width="5" stroke-linecap="round" stroke-linejoin="round"/>
<path d="M96 126V122.667" stroke="#0F172B" stroke-width="5" stroke-linecap="round" stroke-linejoin="round"/>
<path d="M16 22C16 18.6863 18.6863 16 22 16H42C45.3137 16 48 18.6863 48 22V42C48 45.3137 45.3137 48 42 48H22C18.6863 48 16 45.3137 16 42V22Z" fill="#0F172B"/>
<path d="M24 30C24 26.6863 26.6863 24 30 24H34C37.3137 24 40 26.6863 40 30V34C40 37.3137 37.3137 40 34 40H30C26.6863 40 24 37.3137 24 34V30Z" fill="white"/>
<path d="M144 22C144 18.6863 146.686 16 150 16H170C173.314 16 176 18.6863 176 22V42C176 45.3137 173.314 48 170 48H150C146.686 48 144 45.3137 144 42V22Z" fill="#0F172B"/>
<path d="M152 30C152 26.6863 154.686 24 158 24H162C165.314 24 168 26.6863 168 30V34C168 37.3137 165.314 40 162 40H158C154.686 40 152 37.3137 152 34V30Z" fill="white"/>
<path d="M16 150C16 146.686 18.6863 144 22 144H42C45.3137 144 48 146.686 48 150V170C48 173.314 45.3137 176 42 176H22C18.6863 176 16 173.314 16 170V150Z" fill="#0F172B"/>
<path d="M24 158C24 154.686 26.6863 152 30 152H34C37.3137 152 40 154.686 40 158V162C40 165.314 37.3137 168 34 168H30C26.6863 168 24 165.314 24 162V158Z" fill="white"/>
</svg>
