<svg width="30" height="30" viewBox="0 0 30 30" fill="none" xmlns="http://www.w3.org/2000/svg">
  <rect width="30" height="30" rx="6" fill="#E0ECFE"/>
  <path d="M21.3676 16.65C21.235 16.65 21.1078 16.7027 21.014 16.7965C20.9202 16.8902 20.8676 17.0174 20.8676 17.15V18.8575C20.8676 19.26 20.7077 19.646 20.4231 19.9306C20.1385 20.2151 19.7525 20.375 19.3501 20.375H10.6501C10.2476 20.375 9.86162 20.2151 9.57703 19.9306C9.29245 19.646 9.13257 19.26 9.13257 18.8575V17.15C9.13257 17.0174 9.07989 16.8902 8.98612 16.7965C8.89235 16.7027 8.76518 16.65 8.63257 16.65C8.49996 16.65 8.37278 16.7027 8.27901 16.7965C8.18525 16.8902 8.13257 17.0174 8.13257 17.15V18.8575C8.13323 19.525 8.39868 20.165 8.87066 20.6369C9.34264 21.1089 9.98259 21.3744 10.6501 21.375H19.3501C20.0175 21.3744 20.6575 21.1089 21.1295 20.6369C21.6015 20.165 21.8669 19.525 21.8676 18.8575V17.15C21.8676 17.0174 21.8149 16.8902 21.7211 16.7965C21.6274 16.7027 21.5002 16.65 21.3676 16.65Z" fill="#3C82F6"/>
  <path d="M14.645 18.11C14.6915 18.1569 14.7468 18.1941 14.8077 18.2194C14.8687 18.2448 14.934 18.2579 15 18.2579C15.066 18.2579 15.1314 18.2448 15.1923 18.2194C15.2532 18.1941 15.3085 18.1569 15.355 18.11L18.2 15.265C18.2794 15.1695 18.3204 15.0478 18.315 14.9238C18.3096 14.7997 18.2583 14.682 18.1709 14.5938C18.0836 14.5055 17.9665 14.4529 17.8425 14.4462C17.7185 14.4395 17.5964 14.4791 17.5 14.5575L15.5 16.5575V9.125C15.5 8.99239 15.4473 8.86521 15.3536 8.77145C15.2598 8.67768 15.1326 8.625 15 8.625C14.8674 8.625 14.7402 8.67768 14.6465 8.77145C14.5527 8.86521 14.5 8.99239 14.5 9.125V16.55L12.5 14.55C12.4062 14.4562 12.279 14.4035 12.1463 14.4035C12.0136 14.4035 11.8863 14.4562 11.7925 14.55C11.6987 14.6438 11.646 14.7711 11.646 14.9037C11.646 15.0364 11.6987 15.1637 11.7925 15.2575L14.645 18.11Z" fill="#3C82F6"/>
</svg>
