<svg width="30" height="30" viewBox="0 0 30 30" fill="none" xmlns="http://www.w3.org/2000/svg">
  <rect width="30" height="30" rx="6" fill="#E0ECFE"/>
  <path d="M15.0001 15C16.841 15 18.3334 13.5076 18.3334 11.6666C18.3334 9.8257 16.841 8.33331 15.0001 8.33331C13.1591 8.33331 11.6667 9.8257 11.6667 11.6666C11.6667 13.5076 13.1591 15 15.0001 15Z" stroke="#3C82F6" stroke-width="1.5" stroke-linecap="round" stroke-linejoin="round"/>
  <path d="M9.27344 21.6667C9.27344 19.0867 11.8401 17 15.0001 17C15.6401 17 16.2601 17.0867 16.8401 17.2467" stroke="#3C82F6" stroke-width="1.5" stroke-linecap="round" stroke-linejoin="round"/>
  <path d="M21.6666 19C21.6666 19.2133 21.6399 19.42 21.5866 19.62C21.5266 19.8866 21.4199 20.1466 21.2799 20.3733C20.8199 21.1466 19.9733 21.6666 18.9999 21.6666C18.3133 21.6666 17.6932 21.4066 17.2266 20.98C17.0266 20.8066 16.8532 20.6 16.7199 20.3733C16.4732 19.9733 16.3333 19.5 16.3333 19C16.3333 18.28 16.6199 17.62 17.0866 17.14C17.5733 16.64 18.2533 16.3333 18.9999 16.3333C19.7866 16.3333 20.4999 16.6733 20.9799 17.22C21.4066 17.6933 21.6666 18.32 21.6666 19Z" stroke="#3C82F6" stroke-width="1.5" stroke-miterlimit="10" stroke-linecap="round" stroke-linejoin="round"/>
  <path d="M19.9932 18.9867H18.0066" stroke="#3C82F6" stroke-width="1.5" stroke-miterlimit="10" stroke-linecap="round" stroke-linejoin="round"/>
  <path d="M19 18.0134V20.0067" stroke="#3C82F6" stroke-width="1.5" stroke-miterlimit="10" stroke-linecap="round" stroke-linejoin="round"/>
</svg>
