<svg width="22" height="22" viewBox="0 0 22 22" fill="none" xmlns="http://www.w3.org/2000/svg">
<path d="M18.7918 10.3584V6.45338C18.7918 2.75921 17.9302 1.83337 14.4652 1.83337H7.53516C4.07016 1.83337 3.2085 2.75921 3.2085 6.45338V16.775C3.2085 19.2134 4.54684 19.7909 6.16934 18.0492L6.17849 18.04C6.93015 17.2425 8.07599 17.3067 8.72682 18.1775L9.65266 19.415" stroke="#3C82F6" stroke-width="1.5" stroke-linecap="round" stroke-linejoin="round"/>
<path d="M7.3335 6.41663H14.6668" stroke="#3C82F6" stroke-width="1.5" stroke-linecap="round" stroke-linejoin="round"/>
<path d="M8.25 10.0834H13.75" stroke="#3C82F6" stroke-width="1.5" stroke-linecap="round" stroke-linejoin="round"/>
<path d="M16.6933 13.5394L13.4483 16.7844C13.3199 16.9128 13.2008 17.1511 13.1733 17.3253L12.9991 18.5628C12.9349 19.0119 13.2466 19.3236 13.6958 19.2594L14.9333 19.0853C15.1074 19.0578 15.3549 18.9386 15.4741 18.8103L18.7191 15.5653C19.2783 15.0061 19.5441 14.3553 18.7191 13.5303C17.9033 12.7144 17.2524 12.9803 16.6933 13.5394Z" stroke="#3C82F6" stroke-width="1.5" stroke-miterlimit="10" stroke-linecap="round" stroke-linejoin="round"/>
<path d="M16.2241 14.007C16.4991 14.997 17.2691 15.767 18.2591 16.042" stroke="#3C82F6" stroke-width="1.5" stroke-miterlimit="10" stroke-linecap="round" stroke-linejoin="round"/>
</svg>
