<svg width="14" height="13" viewBox="0 0 14 13" fill="none" xmlns="http://www.w3.org/2000/svg">
<path d="M2.59831 11.6875C2.55531 11.6878 2.51318 11.6754 2.47721 11.6518C2.44124 11.6283 2.41303 11.5946 2.39611 11.5551C2.37919 11.5155 2.37433 11.4719 2.38213 11.4296C2.38992 11.3873 2.41003 11.3483 2.43994 11.3174L5.16031 8.47406C5.2004 8.43212 5.25551 8.40781 5.31352 8.4065C5.37153 8.40519 5.42768 8.42697 5.46962 8.46706C5.51157 8.50715 5.53587 8.56226 5.53719 8.62027C5.5385 8.67828 5.51671 8.73443 5.47662 8.77638L2.75625 11.6197C2.73593 11.6412 2.71144 11.6582 2.68428 11.6699C2.65712 11.6816 2.62787 11.6875 2.59831 11.6875ZM10.9375 4.25C10.2139 4.25 9.625 3.66112 9.625 2.9375C9.625 2.21387 10.2139 1.625 10.9375 1.625C11.6611 1.625 12.25 2.21387 12.25 2.9375C12.25 3.66112 11.6611 4.25 10.9375 4.25ZM10.9375 2.0625C10.4549 2.0625 10.0625 2.45494 10.0625 2.9375C10.0625 3.42006 10.4549 3.8125 10.9375 3.8125C11.4201 3.8125 11.8125 3.42006 11.8125 2.9375C11.8125 2.45494 11.4201 2.0625 10.9375 2.0625ZM9.84375 12.5625H1.75C1.69198 12.5625 1.63634 12.5395 1.59532 12.4984C1.5543 12.4574 1.53125 12.4018 1.53125 12.3438C1.53125 12.2857 1.5543 12.2301 1.59532 12.1891C1.63634 12.148 1.69198 12.125 1.75 12.125H9.84375C9.90177 12.125 9.95741 12.148 9.99843 12.1891C10.0395 12.2301 10.0625 12.2857 10.0625 12.3438C10.0625 12.4018 10.0395 12.4574 9.99843 12.4984C9.95741 12.5395 9.90177 12.5625 9.84375 12.5625Z" fill="#777777"/>
<path d="M9.8431 12.5625H1.93879C1.59404 12.5625 1.28997 12.3682 1.14516 12.0558C1.00035 11.7435 1.04803 11.3856 1.27072 11.1227L4.42641 7.38991C4.46489 7.34914 4.51753 7.32466 4.5735 7.32151C4.62947 7.31837 4.68452 7.33678 4.72733 7.37298C4.77014 7.40918 4.79745 7.4604 4.80365 7.51612C4.80985 7.57183 4.79447 7.62781 4.76066 7.67253L1.60497 11.4053C1.55004 11.4684 1.51479 11.5461 1.5036 11.629C1.4924 11.7119 1.50574 11.7963 1.54197 11.8717C1.57601 11.9481 1.63177 12.0129 1.70232 12.0579C1.77287 12.103 1.8551 12.1263 1.93879 12.125H9.8431C9.90111 12.125 9.95675 12.148 9.99778 12.189C10.0388 12.2301 10.0618 12.2857 10.0618 12.3437C10.0618 12.4017 10.0388 12.4574 9.99778 12.4984C9.95675 12.5394 9.90111 12.5625 9.8431 12.5625Z" fill="#777777"/>
<path d="M6.98046 10.9665C6.93404 10.9665 6.88882 10.9518 6.85135 10.9244C6.81388 10.897 6.7861 10.8584 6.77202 10.8141C6.75794 10.7699 6.7583 10.7223 6.77304 10.6783C6.78778 10.6343 6.81614 10.5961 6.85402 10.5693L8.84814 9.15792C8.90016 9.11375 8.94115 9.05805 8.96785 8.99525C8.99455 8.93245 9.00621 8.86428 9.00192 8.79618C8.99763 8.72807 8.9775 8.66191 8.94313 8.60296C8.90876 8.54401 8.86111 8.49389 8.80396 8.4566L7.40177 7.42323C7.37696 7.40486 7.35632 7.38144 7.34121 7.35453C7.3261 7.32761 7.31686 7.2978 7.31409 7.26705C7.31132 7.23631 7.31509 7.20533 7.32515 7.17614C7.33521 7.14696 7.35133 7.12024 7.37246 7.09773L9.11021 5.24929C9.12964 5.22744 9.15326 5.2097 9.17967 5.19713C9.20607 5.18457 9.23473 5.17742 9.26395 5.17612C9.29316 5.17482 9.32234 5.17939 9.34976 5.18956C9.37718 5.19973 9.40228 5.2153 9.42358 5.23534C9.44487 5.25538 9.46194 5.27949 9.47376 5.30624C9.48558 5.33299 9.49192 5.36183 9.49239 5.39108C9.49287 5.42032 9.48748 5.44936 9.47654 5.47648C9.4656 5.5036 9.44934 5.52825 9.42871 5.54898L7.85983 7.2176L9.05333 8.09742C9.27777 8.24267 9.42608 8.50123 9.43964 8.78123C9.45321 9.06123 9.33071 9.33291 9.11196 9.50792L7.10777 10.9272C7.06839 10.9534 7.02464 10.9665 6.98046 10.9665Z" fill="#777777"/>
<path d="M6.38006 11.6875C6.3481 11.6875 6.31652 11.6805 6.28756 11.667C6.2586 11.6535 6.23298 11.6337 6.2125 11.6092L6.03794 11.4005C5.8617 11.1923 5.77006 10.9255 5.78116 10.6529C5.79226 10.3804 5.90529 10.1219 6.09787 9.92875L7.09931 8.91594L5.68881 8.01294C5.38344 7.81737 5.17081 7.50106 5.10563 7.1445C5.04044 6.78794 5.12663 6.4165 5.34275 6.12556L7.2205 3.59462L6.27944 2.675L4.63444 3.38375C4.55536 3.41832 4.47021 3.43687 4.38392 3.43831C4.29763 3.43976 4.2119 3.42408 4.13171 3.39219C4.05151 3.36029 3.97844 3.3128 3.91672 3.25248C3.855 3.19216 3.80585 3.12019 3.77212 3.04075C3.70374 2.88098 3.70139 2.70063 3.76558 2.53913C3.82977 2.37763 3.95528 2.24811 4.11469 2.17887L6.16394 1.296C6.28328 1.24394 6.41547 1.22879 6.54349 1.2525C6.67152 1.2762 6.78952 1.33767 6.88231 1.429L8.01894 2.22962C8.309 2.43525 8.575 2.67413 8.8095 2.93969L11.0613 5.49119L12.6271 4.63369C12.7799 4.55037 12.9594 4.53103 13.1264 4.57991C13.2934 4.6288 13.4342 4.7419 13.5179 4.89444C13.6011 5.04721 13.6203 5.22672 13.5715 5.39367C13.5226 5.56062 13.4096 5.7014 13.2571 5.78519L11.2538 6.882C11.1306 6.94973 10.9888 6.97596 10.8495 6.95681C10.7102 6.93767 10.5807 6.87415 10.4803 6.77569L9.69194 6.14525C9.64663 6.10899 9.61758 6.05622 9.61118 5.99854C9.60478 5.94086 9.62155 5.883 9.65781 5.83769C9.69407 5.79238 9.74685 5.76333 9.80453 5.75693C9.86221 5.75053 9.92006 5.7673 9.96537 5.80356L10.7699 6.44844C10.8386 6.51406 10.913 6.5355 10.9843 6.52019C11.0052 6.51579 11.0254 6.50843 11.0442 6.49831L13.0471 5.40194C13.0945 5.37221 13.1286 5.32553 13.1427 5.27144C13.1567 5.21734 13.1496 5.15993 13.1227 5.11093C13.0958 5.06192 13.0513 5.02504 12.9981 5.00781C12.9449 4.99059 12.8872 4.99432 12.8367 5.01825L11.1178 5.95931C11.0743 5.98327 11.0239 5.99168 10.975 5.98317C10.9261 5.97466 10.8815 5.94974 10.8487 5.9125L8.48094 3.22975C8.26821 2.98865 8.02816 2.77312 7.76562 2.5875L6.60275 1.765C6.51306 1.681 6.419 1.6635 6.33763 1.6985L4.28794 2.5805C4.23591 2.60428 4.19527 2.64749 4.17472 2.70088C4.15417 2.75426 4.15535 2.81357 4.17801 2.8661C4.20067 2.91862 4.243 2.96018 4.29593 2.98187C4.34887 3.00356 4.40819 3.00365 4.46119 2.98213L6.24006 2.21562C6.27989 2.19831 6.32397 2.19326 6.36668 2.20114C6.40939 2.20901 6.44878 2.22944 6.47981 2.25981L7.66281 3.41481C7.70069 3.4518 7.72387 3.50127 7.72806 3.55404C7.73224 3.60682 7.71714 3.65932 7.68556 3.70181L5.69362 6.38631C5.62164 6.48243 5.57043 6.59247 5.54324 6.70943C5.51606 6.8264 5.51348 6.94774 5.53569 7.06575C5.58031 7.30681 5.71812 7.51244 5.92462 7.645L7.56262 8.69369C7.58998 8.71137 7.61306 8.73491 7.63019 8.76261C7.64733 8.79032 7.65808 8.82148 7.66168 8.85385C7.66529 8.88623 7.66164 8.91899 7.65102 8.94978C7.64039 8.98057 7.62305 9.00861 7.60025 9.03188L6.4085 10.2372C6.2929 10.3531 6.22507 10.5083 6.21842 10.6719C6.21178 10.8354 6.26681 10.9956 6.37262 11.1205L6.54719 11.3292C6.57361 11.3611 6.59044 11.3998 6.59571 11.4409C6.60099 11.482 6.5945 11.5237 6.57699 11.5612C6.55949 11.5988 6.53169 11.6305 6.49683 11.6529C6.46197 11.6753 6.42147 11.6873 6.38006 11.6875ZM1.53125 2.0625H0.65625C0.598234 2.0625 0.542594 2.03945 0.50157 1.99843C0.460547 1.95741 0.4375 1.90177 0.4375 1.84375C0.4375 1.78573 0.460547 1.73009 0.50157 1.68907C0.542594 1.64805 0.598234 1.625 0.65625 1.625H1.53125C1.58927 1.625 1.64491 1.64805 1.68593 1.68907C1.72695 1.73009 1.75 1.78573 1.75 1.84375C1.75 1.90177 1.72695 1.95741 1.68593 1.99843C1.64491 2.03945 1.58927 2.0625 1.53125 2.0625ZM4.15625 6.4375H0.65625C0.598234 6.4375 0.542594 6.41445 0.50157 6.37343C0.460547 6.33241 0.4375 6.27677 0.4375 6.21875C0.4375 6.16073 0.460547 6.10509 0.50157 6.06407C0.542594 6.02305 0.598234 6 0.65625 6H4.15625C4.21427 6 4.26991 6.02305 4.31093 6.06407C4.35195 6.10509 4.375 6.16073 4.375 6.21875C4.375 6.27677 4.35195 6.33241 4.31093 6.37343C4.26991 6.41445 4.21427 6.4375 4.15625 6.4375ZM5.03125 1.1875H1.96875C1.91073 1.1875 1.85509 1.16445 1.81407 1.12343C1.77305 1.08241 1.75 1.02677 1.75 0.96875C1.75 0.910734 1.77305 0.855094 1.81407 0.81407C1.85509 0.773047 1.91073 0.75 1.96875 0.75H5.03125C5.08927 0.75 5.14491 0.773047 5.18593 0.81407C5.22695 0.855094 5.25 0.910734 5.25 0.96875C5.25 1.02677 5.22695 1.08241 5.18593 1.12343C5.14491 1.16445 5.08927 1.1875 5.03125 1.1875Z" fill="#777777"/>
<path d="M10.7188 12.5625C10.8396 12.5625 10.9375 12.4646 10.9375 12.3438C10.9375 12.2229 10.8396 12.125 10.7188 12.125C10.5979 12.125 10.5 12.2229 10.5 12.3438C10.5 12.4646 10.5979 12.5625 10.7188 12.5625Z" fill="#777777"/>
</svg>
