<svg width="22" height="22" viewBox="0 0 22 22" fill="none" xmlns="http://www.w3.org/2000/svg">
<g clip-path="url(#clip0_2392_27297)">
<path d="M16.739 20.3861C15.0408 21.4267 13.0383 22.0193 10.8961 21.9995C4.76259 21.9429 -0.109461 16.9291 0.00187064 10.7964C0.11041 4.81521 4.99291 0 11 0C14.4532 0 17.5349 1.59126 19.5515 4.08057C19.6175 4.16195 19.6021 4.28274 19.516 4.34246C16.6547 6.3287 14.7812 9.63811 14.7812 13.3851C14.7812 15.7853 15.55 18.0061 16.8547 19.8144C16.9902 20.0021 16.9364 20.2651 16.739 20.3861Z" fill="#FFCD71"/>
<path d="M11.022 21.9926C8.78721 21.9926 6.70834 21.3248 4.97412 20.1779H17.0699C15.3357 21.3248 13.2568 21.9926 11.022 21.9926Z" fill="#FFC14F"/>
<path d="M21.9999 11.0001C21.9999 11.1566 21.9966 11.3124 21.9901 11.4674C20.9628 14.3543 17.7808 16.1562 14.595 15.2174L12.377 14.5637L15.7968 2.95898L19.5352 4.06066C21.0761 5.95365 21.9999 8.36896 21.9999 11.0001Z" fill="#55A4F9"/>
<path d="M21.9999 11.0001C21.9999 11.1187 21.998 11.2368 21.9943 11.3545C21.1129 13.4358 18.7471 14.7187 16.3577 14.0145L15.5816 13.7858C15.2256 13.6809 15.022 13.3072 15.127 12.9511L17.2329 5.80516C17.3378 5.44912 17.7115 5.24553 18.0676 5.35046L20.8918 6.18277C21.6016 7.6376 21.9999 9.27235 21.9999 11.0001Z" fill="#1380E2"/>
<path d="M5.97443 12.6768L2.45628 11.6401C2.00102 11.5059 1.74072 11.028 1.87487 10.5728L4.8089 0.616677C4.94305 0.161423 5.42091 -0.0988816 5.87616 0.0352669L7.68854 0.569368C8.63063 0.84699 9.16924 1.83579 8.89162 2.77783L5.97443 12.6768Z" fill="#51489A"/>
<path d="M12.8069 14.6904L4.13694 12.1354C3.68169 12.0013 3.42138 11.5234 3.55553 11.0682L6.48957 1.11204C6.62371 0.656784 7.10157 0.39648 7.55682 0.530628L16.2268 3.08568L12.8069 14.6904Z" fill="#5F55AF"/>
<path d="M12.1529 8.19139C11.5583 10.2091 9.44066 11.3627 7.42298 10.7681C5.4053 10.1735 4.25167 8.05582 4.84627 6.0381C5.44087 4.02037 7.55855 2.86679 9.57623 3.46139C11.5939 4.05599 12.7475 6.1737 12.1529 8.19139Z" fill="#76B6FA"/>
<path d="M11.0694 5.3695L10.9214 5.87151C10.9104 5.90887 10.8875 5.94162 10.8562 5.96482C10.8249 5.98801 10.787 6.00039 10.748 6.00007L8.32022 5.97996L7.65644 8.23242L7.6564 8.23259L7.65636 8.23281C7.65636 8.23281 7.60209 8.37749 7.57085 8.41306C7.35308 8.7334 6.85095 8.87111 6.34439 8.72184C5.75095 8.54695 5.37622 8.04435 5.50736 7.59928C5.63854 7.15421 6.22593 6.93515 6.81937 7.11004C6.97217 7.15507 7.11048 7.22184 7.22942 7.30378L7.68841 5.74629L7.6885 5.74599L7.69249 5.73242C7.69467 5.72506 7.6971 5.71778 7.69976 5.71059C7.75908 5.53713 7.87149 5.38674 8.02106 5.28074C8.17063 5.17475 8.34978 5.11852 8.53309 5.12002L10.8989 5.13962C11.018 5.14061 11.103 5.25529 11.0694 5.3695Z" fill="#453D83"/>
<path d="M11.0692 5.36947L10.9212 5.87147L10.9212 5.8716L10.0993 8.66061C9.99436 9.01665 9.52445 9.19188 9.04969 9.05202C8.57493 8.91211 8.27513 8.51005 8.38006 8.15397C8.48499 7.79793 8.9549 7.6227 9.42966 7.76257C9.5018 7.78375 9.57176 7.81176 9.63858 7.84623L10.184 5.99539L9.59019 5.99045C9.30398 5.98809 9.09958 5.7124 9.18049 5.43783C9.20695 5.34802 9.26196 5.26928 9.33717 5.21352C9.41238 5.15777 9.5037 5.12802 9.59733 5.1288L10.8987 5.13958C11.0178 5.14057 11.1028 5.25526 11.0692 5.36947Z" fill="#51489A"/>
<path d="M17.0048 3.61525C16.8549 4.12391 16.3211 4.41473 15.8124 4.26485C15.3037 4.11493 15.0129 3.58109 15.1628 3.07243C15.3127 2.56376 15.8466 2.27295 16.3552 2.42282C16.8639 2.5727 17.1548 3.10659 17.0048 3.61525ZM15.541 5.18584C15.0323 5.03593 14.4984 5.32678 14.3485 5.83545C14.1986 6.34411 14.4895 6.878 14.9981 7.02787C15.5068 7.17779 16.0407 6.88693 16.1906 6.37827C16.3405 5.86961 16.0496 5.33576 15.541 5.18584ZM14.7267 7.94886C14.2181 7.79899 13.6842 8.0898 13.5343 8.59846C13.3844 9.10713 13.6752 9.64102 14.1839 9.79089C14.6926 9.94077 15.2264 9.64995 15.3763 9.14129C15.5262 8.63263 15.2354 8.09878 14.7267 7.94886Z" fill="#FFCD71"/>
<path d="M11.9482 8.29626H21.6609C21.8823 9.16561 22.0001 10.0764 22.0001 11.0147C22.0001 14.9874 19.8899 18.4672 16.7292 20.3944H11.6494C10.907 20.3944 10.3052 19.7926 10.3052 19.0502V9.93926C10.3052 9.03185 11.0408 8.29626 11.9482 8.29626Z" fill="#C8E2FD"/>
<path d="M14.1138 9.84961H21.9389C21.9797 10.2366 22.0001 10.6255 22 11.0146C22 14.0786 20.7447 16.8495 18.7204 18.8409H14.1138C13.7426 18.8409 13.4417 18.54 13.4417 18.1688V10.5217C13.4417 10.1505 13.7426 9.84961 14.1138 9.84961Z" fill="#86BEFB"/>
<path d="M20.2888 11.642H14.6602C14.5747 11.642 14.4927 11.608 14.4323 11.5476C14.3718 11.4871 14.3379 11.4052 14.3379 11.3197V11.2921C14.3379 11.2066 14.3718 11.1247 14.4323 11.0642C14.4927 11.0038 14.5747 10.9698 14.6602 10.9698H20.2888C20.3742 10.9698 20.4562 11.0038 20.5166 11.0642C20.5771 11.1247 20.611 11.2066 20.611 11.2921V11.3197C20.611 11.4052 20.5771 11.4871 20.5166 11.5476C20.4562 11.608 20.3742 11.642 20.2888 11.642ZM18.3706 12.6639V12.6363C18.3706 12.5509 18.3367 12.4689 18.2762 12.4085C18.2158 12.348 18.1338 12.3141 18.0484 12.3141H14.6602C14.5747 12.3141 14.4927 12.348 14.4323 12.4085C14.3718 12.4689 14.3379 12.5509 14.3379 12.6363V12.6639C14.3379 12.7494 14.3718 12.8314 14.4323 12.8918C14.4927 12.9522 14.5747 12.9862 14.6602 12.9862H18.0483C18.0907 12.9862 18.1326 12.9779 18.1717 12.9617C18.2108 12.9455 18.2463 12.9218 18.2762 12.8918C18.3062 12.8619 18.3299 12.8264 18.3461 12.7873C18.3623 12.7482 18.3706 12.7063 18.3706 12.6639ZM16.1302 17.5928V17.5653C16.1302 17.4798 16.0963 17.3978 16.0359 17.3374C15.9754 17.2769 15.8935 17.243 15.808 17.243H14.6602C14.5747 17.243 14.4927 17.2769 14.4323 17.3374C14.3718 17.3978 14.3379 17.4798 14.3379 17.5653V17.5928C14.3379 17.6783 14.3718 17.7603 14.4323 17.8207C14.4927 17.8811 14.5747 17.9151 14.6602 17.9151H15.8079C15.8503 17.9151 15.8922 17.9068 15.9313 17.8906C15.9704 17.8744 16.0059 17.8507 16.0358 17.8207C16.0658 17.7908 16.0895 17.7553 16.1057 17.7162C16.1219 17.6771 16.1302 17.6352 16.1302 17.5928ZM17.0264 15.1284V15.1008C17.0264 15.0154 16.9924 14.9334 16.932 14.8729C16.8716 14.8125 16.7896 14.7786 16.7041 14.7786H14.6602C14.5747 14.7786 14.4927 14.8125 14.4323 14.8729C14.3718 14.9334 14.3379 15.0154 14.3379 15.1008V15.1284C14.3379 15.2139 14.3718 15.2958 14.4323 15.3563C14.4927 15.4167 14.5747 15.4507 14.6602 15.4507H16.7041C16.7464 15.4507 16.7883 15.4423 16.8274 15.4262C16.8665 15.41 16.9021 15.3862 16.932 15.3563C16.9619 15.3264 16.9857 15.2908 17.0019 15.2517C17.0181 15.2126 17.0264 15.1707 17.0264 15.1284ZM18.3706 17.5928V17.5653C18.3706 17.4798 18.3367 17.3978 18.2762 17.3374C18.2158 17.2769 18.1338 17.243 18.0484 17.243H16.9006C16.8151 17.243 16.7332 17.2769 16.6727 17.3374C16.6123 17.3978 16.5783 17.4798 16.5783 17.5653V17.5928C16.5783 17.6783 16.6123 17.7603 16.6727 17.8207C16.7332 17.8811 16.8151 17.9151 16.9006 17.9151H18.0484C18.1338 17.9151 18.2158 17.8811 18.2762 17.8207C18.3367 17.7603 18.3706 17.6783 18.3706 17.5928Z" fill="#3493F8"/>
<path d="M3.0837 20.3944H0.859375C0.384742 20.3944 0 20.0097 0 19.535V9.15564C0 8.68101 0.384742 8.29626 0.859375 8.29626H3.08374C3.55837 8.29626 3.94311 8.68101 3.94311 9.15564V19.5351C3.94307 20.0097 3.55833 20.3944 3.0837 20.3944Z" fill="#FF2EA6"/>
<path d="M10.2703 20.3944H2.20288C1.72825 20.3944 1.34351 20.0097 1.34351 19.535V9.15564C1.34351 8.68101 1.72825 8.29626 2.20288 8.29626H10.2703C10.7845 8.29626 11.2013 8.7131 11.2013 9.22727V19.4635C11.2013 19.9776 10.7845 20.3944 10.2703 20.3944Z" fill="#FF50B5"/>
<path d="M8.91616 14.3453C8.91616 16.4488 7.21094 18.154 5.10749 18.154C3.00404 18.154 1.29883 16.4488 1.29883 14.3453C1.29883 12.2418 3.00404 10.5366 5.10749 10.5366C7.21094 10.5366 8.91616 12.2418 8.91616 14.3453Z" fill="#D12898"/>
<path d="M7.07884 11.9448V12.4682C7.07884 12.5071 7.06615 12.545 7.0427 12.5761C7.01925 12.6072 6.98631 12.6298 6.94886 12.6405L4.61441 13.3075V15.712C4.61448 15.7608 4.60387 15.809 4.58335 15.8533C4.46501 16.2221 4.0223 16.4961 3.49422 16.4961C2.87555 16.4961 2.37402 16.12 2.37402 15.6559C2.37402 15.1919 2.87555 14.8158 3.49422 14.8158C3.65355 14.8158 3.8051 14.8407 3.9423 14.8857V13.2475C3.9423 13.2397 3.9426 13.232 3.94311 13.2244C3.95099 13.0413 4.01632 12.8653 4.12983 12.7213C4.24334 12.5774 4.39927 12.4729 4.57553 12.4225L6.85042 11.7725C6.96485 11.7398 7.07884 11.8258 7.07884 11.9448Z" fill="#FFE1AA"/>
<path d="M7.07893 11.9448V15.3759C7.07893 15.7471 6.67769 16.048 6.18278 16.048C5.68786 16.048 5.28662 15.7471 5.28662 15.3759C5.28662 15.0047 5.68786 14.7038 6.18278 14.7038C6.26012 14.7038 6.33519 14.7111 6.40682 14.7249V12.7954L5.8358 12.9586C5.56059 13.0372 5.28662 12.8306 5.28662 12.5443C5.28662 12.352 5.41415 12.1829 5.59909 12.1301L6.85047 11.7725C6.96494 11.7398 7.07893 11.8258 7.07893 11.9448Z" fill="#FFF5F5"/>
<path d="M11.1372 19.1461C10.6069 19.1461 10.177 19.576 10.177 20.1063C10.177 20.2067 10.1924 20.3034 10.221 20.3944H12.0534C12.0826 20.3011 12.0974 20.204 12.0973 20.1063C12.0974 19.576 11.6675 19.1461 11.1372 19.1461Z" fill="#FFC14F"/>
<path d="M12.0974 14.3453C12.0974 14.8756 11.6675 15.3055 11.1372 15.3055C10.6069 15.3055 10.177 14.8756 10.177 14.3453C10.177 13.815 10.6069 13.3851 11.1372 13.3851C11.6675 13.3851 12.0974 13.815 12.0974 14.3453ZM11.1372 9.54438C11.6675 9.54438 12.0974 9.11448 12.0974 8.5842C12.0974 8.48383 12.0819 8.38711 12.0534 8.29614H10.221C10.1918 8.38936 10.1769 8.48651 10.177 8.5842C10.177 9.11453 10.6069 9.54438 11.1372 9.54438ZM11.1372 16.2656C10.6069 16.2656 10.177 16.6955 10.177 17.2258C10.177 17.7561 10.6069 18.186 11.1372 18.186C11.6675 18.186 12.0974 17.7561 12.0974 17.2258C12.0974 16.6955 11.6675 16.2656 11.1372 16.2656ZM11.1372 10.5046C10.6069 10.5046 10.177 10.9345 10.177 11.4647C10.177 11.995 10.6069 12.4249 11.1372 12.4249C11.6675 12.4249 12.0974 11.995 12.0974 11.4647C12.0974 10.9345 11.6675 10.5046 11.1372 10.5046Z" fill="#FFCD71"/>
</g>
<defs>
<clipPath id="clip0_2392_27297">
<rect width="22" height="22" fill="white"/>
</clipPath>
</defs>
</svg>
