<svg width="22" height="22" viewBox="0 0 22 22" fill="none" xmlns="http://www.w3.org/2000/svg">
<g clip-path="url(#clip0_2392_27322)">
<path d="M18.1633 12.4767C17.0733 13.4067 15.7666 14.0901 14.4033 14.5367C12.54 15.1467 10.56 15.3434 8.59663 15.3467C8.1033 15.3467 7.56996 15.3101 7.06663 15.2034C6.07996 14.9934 5.3333 14.1834 5.14663 13.1934L4.71663 10.8701L4.43996 9.37341L4.04663 7.24674L17.06 5.00675L18.09 4.83008L18.6166 7.74008L19.04 10.0701C19.1966 10.9701 18.8633 11.8834 18.1633 12.4767Z" fill="#95CBFC"/>
<path d="M18.1632 12.4768C17.0732 13.4068 15.7666 14.0901 14.4032 14.5368C12.5399 15.1468 10.5599 15.3434 8.59655 15.3468C8.10322 15.3468 7.56989 15.3101 7.06655 15.2034C6.07989 14.9934 5.33322 14.1834 5.14655 13.1934L4.71655 10.8701L4.72322 10.8634C4.90989 11.8568 5.65655 12.6634 6.64322 12.8734C7.14989 12.9801 7.67989 13.0168 8.17655 13.0168C10.1399 13.0134 12.1199 12.8168 13.9832 12.2068C15.3466 11.7601 16.6532 11.0768 17.7432 10.1468C18.4399 9.55345 18.7766 8.64011 18.6132 7.74011L19.0366 10.0701C19.1966 10.9701 18.8632 11.8834 18.1632 12.4768Z" fill="#3D68F8"/>
<path d="M18.1633 12.4767C17.0733 13.4067 15.7666 14.09 14.4033 14.5367C12.5399 15.1467 10.5599 15.3434 8.59661 15.3467C8.10327 15.3467 7.56994 15.31 7.06661 15.2034C6.07994 14.9934 5.33327 14.1834 5.14661 13.1934L4.71661 10.87L4.43994 9.37337C4.84327 9.76337 5.23661 10.2067 5.69994 10.4934C6.47661 10.9767 7.44327 11.01 8.35661 11.0267C9.36661 11.0434 10.3766 11.0634 11.3899 11.0834C12.2699 11.1 13.1799 11.11 13.9866 10.7634C14.8666 10.3834 15.5266 9.61337 15.9933 8.77671C16.6466 7.60337 16.9633 6.33004 17.0633 5.01004L18.0933 4.83337L18.6199 7.74337L19.0433 10.0734C19.1966 10.97 18.8633 11.8834 18.1633 12.4767Z" fill="#1E1D26" fill-opacity="0.0627451"/>
<path d="M8.57995 15.5834C7.99995 15.5834 7.47328 15.5334 7.01661 15.4367C5.94328 15.2067 5.11661 14.3434 4.90995 13.2367L3.80995 7.29006C3.78661 7.16006 3.87328 7.0334 4.00328 7.01006C4.13328 6.98673 4.25995 7.0734 4.28328 7.2034L5.38328 13.1501C5.55328 14.0667 6.23661 14.7801 7.11661 14.9701C7.54661 15.0601 8.03661 15.1067 8.59661 15.1067C10.8299 15.1034 12.7066 14.8434 14.3299 14.3101C15.7299 13.8501 17.0033 13.1534 18.0099 12.2967C18.6433 11.7567 18.9466 10.9234 18.7999 10.1167L17.8499 4.8734C17.8266 4.7434 17.9133 4.61673 18.0433 4.5934C18.1733 4.57006 18.2999 4.65673 18.3233 4.78673L19.2733 10.0301C19.4499 11.0034 19.0866 12.0134 18.3233 12.6601C17.2666 13.5601 15.9399 14.2867 14.4799 14.7667C12.8066 15.3167 10.8833 15.5834 8.59661 15.5867C8.58995 15.5834 8.58328 15.5834 8.57995 15.5834Z" fill="#1E1D26"/>
<path d="M12.3065 8.6833L20.4465 3.72997C20.6598 3.59997 20.5998 3.27664 20.3532 3.2333L10.5232 1.47664C10.1436 1.40993 9.75266 1.48337 9.42316 1.6833L1.28316 6.63664C1.06983 6.76664 1.12983 7.08997 1.3765 7.1333L11.2065 8.88664C11.5865 8.95664 11.9765 8.8833 12.3065 8.6833Z" fill="#1E1D26"/>
<path d="M11.4832 9.15336C11.3765 9.15336 11.2699 9.14336 11.1632 9.12336L1.33321 7.37003C1.12321 7.33336 0.963214 7.17336 0.923214 6.96336C0.883214 6.75336 0.976548 6.54336 1.15988 6.43336L9.29988 1.48003C9.67988 1.25003 10.1299 1.16336 10.5665 1.24336L20.3965 2.9967C20.6065 3.03336 20.7699 3.19336 20.8099 3.4067C20.8499 3.6167 20.7565 3.8267 20.5732 3.9367L12.4299 8.8867C12.1432 9.06336 11.8165 9.15336 11.4832 9.15336ZM10.2465 1.69336C10.0032 1.69336 9.75988 1.76003 9.54988 1.89003L1.40655 6.84336C1.39988 6.8467 1.38988 6.85336 1.39321 6.87336C1.39655 6.89336 1.40988 6.8967 1.41655 6.8967L11.2465 8.65003C11.5699 8.7067 11.8999 8.6467 12.1799 8.4767L20.3199 3.52336C20.3265 3.52003 20.3365 3.51336 20.3332 3.49336C20.3299 3.47336 20.3165 3.47003 20.3099 3.47003L10.4799 1.71336C10.4032 1.70003 10.3232 1.69336 10.2465 1.69336Z" fill="#1E1D26"/>
<path d="M8.15673 13.2534C7.5734 13.2534 7.04673 13.2034 6.59007 13.1067C5.51673 12.8767 4.69006 12.0134 4.4834 10.9067C4.46006 10.7767 4.5434 10.6501 4.67673 10.6267C4.80673 10.6034 4.9334 10.6867 4.95673 10.8201C5.12673 11.7367 5.81006 12.4534 6.69006 12.6401C7.12006 12.7301 7.61673 12.7734 8.17006 12.7767C10.4034 12.7734 12.2801 12.5134 13.9034 11.9801C15.3034 11.5201 16.5767 10.8234 17.5834 9.96673C18.2167 9.42673 18.5201 8.59339 18.3734 7.78673C18.3501 7.65673 18.4367 7.53006 18.5667 7.50673C18.6967 7.48339 18.8234 7.57006 18.8467 7.70006C19.0234 8.67339 18.6601 9.68339 17.8967 10.3301C16.8401 11.2301 15.5134 11.9567 14.0534 12.4367C12.3801 12.9867 10.4567 13.2534 8.17006 13.2567C8.17006 13.2534 8.1634 13.2534 8.15673 13.2534Z" fill="#1E1D26"/>
<path d="M2.05326 12.3301C2.22659 13.9501 1.76993 15.6267 0.813262 16.9434C0.709928 17.0834 0.759928 17.2801 0.909928 17.3667C1.36326 17.6267 1.84659 17.9701 2.29993 18.2267C2.43993 18.3067 2.61659 18.2534 2.69659 18.1134C3.69659 16.4034 3.88326 14.2001 3.03993 12.4101" fill="#95CBFC"/>
<path d="M2.43997 18.5001C2.35331 18.5001 2.26331 18.4801 2.18331 18.4334C1.94331 18.2968 1.69331 18.1368 1.45331 17.9834C1.23331 17.8434 1.00664 17.6968 0.793307 17.5734C0.659974 17.4968 0.566641 17.3668 0.536641 17.2201C0.506641 17.0734 0.536641 16.9234 0.626641 16.8034C1.54997 15.5334 1.98664 13.9101 1.81997 12.3568C1.80664 12.2234 1.89997 12.1068 2.03331 12.0934C2.16331 12.0768 2.28331 12.1734 2.29664 12.3068C2.47331 13.9768 2.00664 15.7201 1.01331 17.0868C0.999974 17.0934 0.999974 17.1068 0.999974 17.1201C1.00331 17.1301 1.00664 17.1468 1.02664 17.1568C1.24997 17.2868 1.48331 17.4334 1.70664 17.5801C1.94331 17.7301 2.18664 17.8868 2.41331 18.0168C2.43664 18.0301 2.46997 18.0201 2.48664 17.9934C3.48331 16.2901 3.60997 14.1901 2.81997 12.5134C2.79257 12.456 2.78911 12.39 2.81037 12.33C2.83162 12.2699 2.87584 12.2208 2.93331 12.1934C2.99077 12.166 3.05677 12.1626 3.11678 12.1838C3.17679 12.2051 3.2259 12.2493 3.25331 12.3068C4.10997 14.1234 3.97331 16.3934 2.89997 18.2334C2.80331 18.4034 2.62331 18.5001 2.43997 18.5001Z" fill="#1E1D26"/>
<path d="M2.19654 13.02C2.76987 13.24 3.4932 12.9467 3.7332 12.3834C3.9732 11.82 3.66987 11.08 3.0932 10.87C1.74654 10.3734 0.673204 12.4334 2.19654 13.02Z" fill="#3D68F8"/>
<path d="M20.4066 3.31672L12.2666 8.27005C11.9366 8.47005 11.5466 8.54338 11.1666 8.47672L1.33325 6.72338C1.08991 6.68005 1.02658 6.35672 1.23991 6.22672L5.51325 3.62672L9.37991 1.27338C9.70991 1.07338 10.0999 1.00005 10.4799 1.06672L13.4532 1.59672L20.3132 2.82005C20.5566 2.86338 20.6199 3.18672 20.4066 3.31672Z" fill="#95CBFC"/>
<path d="M11.4433 8.74006C11.3367 8.74006 11.23 8.73006 11.1233 8.71006L1.29333 6.95672C1.19065 6.93917 1.09586 6.89039 1.0219 6.81702C0.947937 6.74365 0.898388 6.64927 0.880001 6.54672C0.840001 6.33672 0.933335 6.12672 1.11667 6.01672L9.25667 1.06672C9.63634 0.837163 10.0864 0.753076 10.5233 0.830057L20.3533 2.58339C20.5633 2.62006 20.7267 2.78006 20.7667 2.99339C20.8067 3.20672 20.7133 3.41339 20.53 3.52339L12.39 8.47339C12.1033 8.65006 11.7767 8.74006 11.4433 8.74006ZM10.2033 1.28006C9.96 1.28006 9.71667 1.34672 9.50667 1.47672L1.36667 6.43006C1.36 6.43339 1.35 6.44006 1.35333 6.46006C1.35667 6.48006 1.37 6.48339 1.37667 6.48339L11.2067 8.23672C11.53 8.29339 11.86 8.23339 12.14 8.06339L20.28 3.11006C20.2867 3.10672 20.2967 3.10006 20.2933 3.08006C20.29 3.06006 20.2767 3.05672 20.27 3.05672L10.44 1.30006C10.36 1.28672 10.2833 1.28006 10.2033 1.28006Z" fill="#1E1D26"/>
<path d="M2.56666 11.0334C2.44 11.0334 2.33333 10.9334 2.32666 10.8034C2.28333 9.83005 2.28 9.35672 2.28 8.90005C2.28 8.45005 2.28 7.98005 2.23333 7.02005C2.22666 6.90672 2.3 6.80672 2.41 6.77672C3.61 6.44672 4.83 6.05338 6.00666 5.67338C7.19 5.29005 8.41333 4.89672 9.62333 4.56338C9.75 4.52672 9.88333 4.60338 9.91666 4.73005C9.92524 4.76026 9.92773 4.79187 9.92397 4.82304C9.92021 4.85421 9.91028 4.88433 9.89477 4.91163C9.87926 4.93893 9.85847 4.96287 9.83362 4.98206C9.80876 5.00124 9.78034 5.01529 9.75 5.02338C8.55 5.35338 7.33 5.74672 6.15333 6.12672C5.03 6.49005 3.87 6.86338 2.72 7.18672C2.75666 8.03338 2.75666 8.47005 2.75666 8.89672C2.75666 9.34672 2.75666 9.81672 2.80333 10.7767C2.81 10.9101 2.70666 11.0201 2.57333 11.0267C2.57333 11.0334 2.57 11.0334 2.56666 11.0334Z" fill="#1E1D26"/>
<path d="M2.60002 13.3334C2.43336 13.3334 2.26669 13.3034 2.11002 13.2434C1.23669 12.9068 1.07669 12.1468 1.30336 11.5434C1.56336 10.8568 2.33336 10.3301 3.17669 10.6434C3.50669 10.7668 3.78336 11.0368 3.93336 11.3868C4.08669 11.7468 4.09336 12.1434 3.95336 12.4768C3.73002 13.0001 3.16669 13.3334 2.60002 13.3334ZM2.67336 11.0334C2.24002 11.0334 1.89336 11.3468 1.75336 11.7168C1.61336 12.0868 1.68002 12.5668 2.28336 12.7968C2.74002 12.9734 3.32336 12.7301 3.51336 12.2901C3.60336 12.0768 3.59669 11.8168 3.49669 11.5801C3.39669 11.3501 3.22002 11.1734 3.01336 11.0968C2.89336 11.0534 2.78002 11.0334 2.67336 11.0334Z" fill="#1E1D26"/>
<path d="M9.95007 5.38005C10.2067 5.59338 10.5801 5.68672 10.9467 5.66672C11.4034 5.64338 11.8701 5.43672 12.1067 5.09005C12.6734 4.26005 11.5834 3.61005 10.7167 3.68338C9.81007 3.76338 9.29673 4.84005 9.95007 5.38005Z" fill="#3D68F8"/>
<path d="M10.8534 5.91011C10.4434 5.91011 10.0634 5.78677 9.79669 5.56677C9.45335 5.28344 9.33335 4.85344 9.47002 4.41344C9.63669 3.88344 10.1267 3.49344 10.6934 3.44344C11.3734 3.38344 12.0934 3.70011 12.3734 4.17677C12.5667 4.50344 12.54 4.87677 12.3034 5.22344C12.0367 5.61677 11.52 5.87677 10.9567 5.90677C10.9234 5.91011 10.89 5.91011 10.8534 5.91011ZM10.1034 5.19677C10.3 5.36011 10.61 5.44677 10.9334 5.43011C11.3434 5.41011 11.7267 5.22344 11.9067 4.95677C12.04 4.76344 12.0567 4.58677 11.96 4.42011C11.7734 4.10344 11.2267 3.88344 10.7367 3.92344C10.3034 3.96011 10.02 4.27011 9.93002 4.55677C9.88335 4.70344 9.84335 4.98011 10.1034 5.19677Z" fill="#1E1D26"/>
<path d="M20.59 18.5901C20.3766 18.8901 20.0266 19.0601 19.66 19.0468C17.7266 18.9868 15.7666 18.9301 13.84 18.8701C11.6466 19.5134 9.21997 20.2734 7.02664 20.9168L6.57997 17.3368L6.21997 14.4801C8.30997 14.5301 10.3933 14.5101 12.4833 14.5601L18.9266 12.5968C19.11 12.5401 19.3 12.5334 19.48 12.5734C19.7933 12.6434 20.0733 12.8434 20.23 13.1434C20.66 13.9668 21.0666 14.8101 21.1933 15.7134C21.3333 16.7068 21.1633 17.7901 20.59 18.5901Z" fill="#FFC94D"/>
<path d="M4.77992 15.1301C4.47325 15.5734 4.40992 16.1434 4.41992 16.6834C4.43992 17.6968 4.68659 18.7068 5.13325 19.6168C5.32659 20.0068 5.56325 20.3868 5.90659 20.6501C6.25325 20.9134 6.72325 21.0434 7.12992 20.8934C7.51325 20.7534 7.77992 20.3901 7.90992 20.0034C8.03992 19.6168 8.04659 19.2001 8.05659 18.7934C8.07325 18.0001 8.08659 17.1934 7.86659 16.4301C7.65992 15.7101 7.18325 14.9934 6.51325 14.6234C5.95325 14.3134 5.12325 14.6368 4.77992 15.1301Z" fill="white"/>
<path d="M7.02331 21.1601C6.96582 21.1597 6.9104 21.1386 6.86713 21.1007C6.82386 21.0629 6.79563 21.0107 6.78755 20.9538C6.77948 20.8969 6.79211 20.839 6.82314 20.7906C6.85417 20.7422 6.90154 20.7065 6.95664 20.6901C8.05331 20.3701 9.22664 20.0134 10.36 19.6668C11.4966 19.3201 12.6733 18.9634 13.77 18.6401C13.7933 18.6334 13.82 18.6301 13.8433 18.6301C14.88 18.6634 15.9266 18.6934 16.9733 18.7234L19.6633 18.8034C19.9566 18.8134 20.2266 18.6801 20.3933 18.4468C20.8933 17.7501 21.1 16.7634 20.9533 15.7468C20.8266 14.8668 20.42 14.0334 20.0133 13.2534C19.9197 13.0744 19.7667 12.9336 19.5806 12.8551C19.3945 12.7767 19.1868 12.7655 18.9933 12.8234L12.55 14.7868C12.5266 14.7934 12.5 14.7968 12.4733 14.7968C11.43 14.7734 10.37 14.7634 9.34664 14.7568C8.31997 14.7501 7.25997 14.7434 6.20997 14.7168C6.07664 14.7134 5.97331 14.6034 5.97664 14.4701C5.97997 14.3368 6.08664 14.2301 6.22331 14.2368C7.26664 14.2601 8.32664 14.2701 9.34997 14.2768C10.3633 14.2834 11.4133 14.2901 12.4466 14.3168L18.8533 12.3634C19.4733 12.1734 20.14 12.4534 20.44 13.0301C20.8666 13.8468 21.2933 14.7234 21.43 15.6768C21.5933 16.8168 21.3566 17.9301 20.7866 18.7268C20.6578 18.9054 20.4871 19.0495 20.2895 19.1466C20.0918 19.2437 19.8734 19.2907 19.6533 19.2834L16.9633 19.2034C15.93 19.1734 14.8966 19.1434 13.87 19.1101C12.7833 19.4301 11.6233 19.7801 10.5 20.1234C9.36331 20.4701 8.18997 20.8268 7.09331 21.1468C7.06997 21.1568 7.04664 21.1601 7.02331 21.1601Z" fill="#1E1D26"/>
<path d="M13.5968 14.0768C14.4068 15.5734 14.7301 17.3301 14.5034 19.0201L12.3401 19.4068C12.6068 18.5768 12.5468 17.6734 12.3234 16.8301C12.1001 15.9901 11.7168 15.2001 11.3401 14.4168L13.5968 14.0768Z" fill="white"/>
<path d="M6.76656 21.2001C6.42323 21.2001 6.06656 21.0768 5.76323 20.8434C5.34656 20.5268 5.09323 20.0801 4.91989 19.7268C4.45467 18.7807 4.20209 17.7442 4.17989 16.6901C4.16989 16.2268 4.20323 15.5434 4.58323 14.9968C4.98656 14.4134 5.94989 14.0401 6.62989 14.4134C7.30323 14.7868 7.85323 15.5168 8.09989 16.3634C8.33323 17.1701 8.31656 17.9968 8.29989 18.8001C8.29323 19.2001 8.28323 19.6568 8.14323 20.0834C7.97656 20.5901 7.63656 20.9701 7.21989 21.1234C7.07323 21.1734 6.91989 21.2001 6.76656 21.2001ZM4.97656 15.2668C4.74656 15.5968 4.64656 16.0468 4.65989 16.6801C4.67989 17.6568 4.91656 18.6368 5.34989 19.5134C5.57323 19.9701 5.79323 20.2634 6.05323 20.4634C6.36656 20.7034 6.74989 20.7834 7.04989 20.6734C7.32656 20.5734 7.56323 20.2934 7.68323 19.9334C7.79989 19.5768 7.80989 19.1768 7.81656 18.7934C7.83323 18.0268 7.84656 17.2368 7.63656 16.5001C7.42656 15.7701 6.96323 15.1468 6.39656 14.8368C5.94656 14.5868 5.25323 14.8701 4.97656 15.2668Z" fill="#1E1D26"/>
<path d="M7.53319 20.8134C7.47652 20.8134 7.41986 20.7934 7.37652 20.7534C6.36652 19.8768 5.81319 18.5301 5.93319 17.2334C5.93672 17.1964 5.94876 17.1606 5.96836 17.129C5.98796 17.0973 6.01461 17.0706 6.04621 17.051C6.07782 17.0313 6.11354 17.0192 6.1506 17.0156C6.18765 17.0119 6.22504 17.0169 6.25986 17.0301C6.83652 17.2534 7.40652 17.1434 7.78319 16.7368C7.87319 16.6401 8.02652 16.6334 8.12319 16.7234C8.21986 16.8134 8.22652 16.9668 8.13652 17.0634C7.69652 17.5368 7.05319 17.7201 6.39986 17.5734C6.39652 18.6234 6.87652 19.6801 7.69652 20.3901C7.73354 20.4228 7.75967 20.4661 7.77138 20.5141C7.7831 20.5621 7.77985 20.6125 7.76207 20.6586C7.74428 20.7047 7.71282 20.7442 7.67191 20.7719C7.63099 20.7996 7.58259 20.8141 7.53319 20.8134Z" fill="#1E1D26"/>
<path d="M7.95661 16.9033C8.17661 18.47 8.08328 19.7367 7.53328 20.5733C6.59661 19.76 6.05661 18.4933 6.16995 17.2567C6.80995 17.5033 7.49328 17.4033 7.95661 16.9033ZM12.3433 19.6467C12.2733 19.6467 12.2099 19.6167 12.1633 19.5633C12.1358 19.5326 12.1169 19.4951 12.1087 19.4547C12.1005 19.4143 12.1032 19.3724 12.1166 19.3333C12.3399 18.6333 12.3333 17.79 12.0966 16.8933C11.8766 16.07 11.4966 15.2833 11.1299 14.5233C11.0966 14.4533 11.0966 14.3733 11.1333 14.3067C11.1699 14.24 11.2333 14.1933 11.3099 14.18L13.5666 13.84C13.6666 13.8267 13.7666 13.8733 13.8133 13.9633C14.6466 15.5067 14.9799 17.3133 14.7499 19.0533C14.7434 19.1039 14.7208 19.151 14.6853 19.1876C14.6499 19.2243 14.6036 19.2485 14.5533 19.2567L12.3899 19.6433C12.3733 19.6467 12.3566 19.6467 12.3433 19.6467ZM11.6999 14.6067C12.0299 15.2967 12.3566 16.0133 12.5599 16.77C12.7799 17.6033 12.8199 18.4 12.6733 19.1033L14.2899 18.8133C14.4599 17.2833 14.1699 15.7067 13.4666 14.34L11.6999 14.6067Z" fill="#1E1D26"/>
<path d="M16.3532 3.78341C16.3365 3.78341 16.3232 3.78008 16.3065 3.77674L13.5365 3.11341C13.5111 3.10728 13.4872 3.09621 13.4661 3.08084C13.445 3.06546 13.4271 3.04607 13.4135 3.02379C13.386 2.97878 13.3775 2.92469 13.3899 2.87341C13.4022 2.82214 13.4345 2.77788 13.4795 2.75037C13.5245 2.72287 13.5786 2.71437 13.6299 2.72674L16.3999 3.39008C16.5065 3.41674 16.5732 3.52341 16.5465 3.63008C16.5232 3.72341 16.4432 3.78341 16.3532 3.78341ZM17.3199 4.17008C17.2888 4.16984 17.2581 4.16303 17.2299 4.15008L17.1065 4.08674C17.083 4.07528 17.062 4.05926 17.0447 4.0396C17.0274 4.01994 17.0141 3.99704 17.0058 3.97223C16.9974 3.94742 16.994 3.92119 16.9959 3.89507C16.9977 3.86895 17.0047 3.84346 17.0165 3.82008C17.0665 3.72008 17.1865 3.68008 17.2832 3.73008L17.4065 3.79341C17.5065 3.84341 17.5465 3.96341 17.4965 4.06008C17.4632 4.13008 17.3932 4.17008 17.3199 4.17008ZM9.15653 11.7201C8.62319 11.7201 8.08986 11.6701 7.56319 11.5701C7.27653 11.5167 6.94319 11.4367 6.64986 11.2667C6.31986 11.0734 6.08319 10.7801 6.00319 10.4634C5.97653 10.3567 6.04319 10.2467 6.14986 10.2201C6.25653 10.1934 6.36653 10.2601 6.39319 10.3667C6.44653 10.5801 6.61319 10.7834 6.85319 10.9201C7.09319 11.0601 7.37319 11.1267 7.63986 11.1767C8.25653 11.2934 8.88653 11.3401 9.51319 11.3101C9.62319 11.3101 9.71653 11.3901 9.72319 11.5001C9.72504 11.5529 9.70623 11.6044 9.67076 11.6436C9.63529 11.6828 9.58595 11.7066 9.53319 11.7101C9.40653 11.7167 9.28319 11.7201 9.15653 11.7201ZM11.0132 11.6234H10.8265C10.7165 11.6234 10.6265 11.5334 10.6265 11.4234C10.6265 11.3134 10.7165 11.2234 10.8265 11.2234H11.0132C11.1232 11.2234 11.2132 11.3134 11.2132 11.4234C11.2132 11.5334 11.1232 11.6234 11.0132 11.6234Z" fill="white"/>
<path d="M20.5899 18.59C20.3766 18.89 20.0266 19.06 19.6599 19.0467C17.7266 18.9867 15.7666 18.93 13.8399 18.87C11.6466 19.5133 9.21991 20.2733 7.02658 20.9167L6.57991 17.3367C6.83991 17.5067 7.11325 17.6533 7.40325 17.77C8.85658 18.36 10.5899 18.21 11.9166 17.3767C12.4532 17.0433 12.9399 16.6 13.5532 16.44C14.2632 16.2533 15.0132 16.4833 15.7499 16.4533C17.4032 16.3867 18.7532 14.9633 19.2699 13.39C19.3599 13.12 19.4299 12.8467 19.4832 12.57C19.7966 12.64 20.0766 12.84 20.2332 13.14C20.6632 13.9633 21.0699 14.8067 21.1966 15.71C21.3332 16.7067 21.1632 17.79 20.5899 18.59ZM20.4066 3.31668L12.2666 8.27001C11.9366 8.47001 11.5466 8.54335 11.1666 8.47668L1.33325 6.72335C1.08991 6.68001 1.02658 6.35668 1.23991 6.22668L5.51325 3.62668C6.65658 4.21001 7.79658 4.79335 8.93991 5.37668C10.0099 5.92335 11.2466 6.48335 12.3732 6.05668C13.5566 5.61001 14.1266 4.16335 13.9166 2.91668C13.8366 2.45001 13.6732 2.01001 13.4532 1.59668L20.3132 2.82001C20.5566 2.86335 20.6199 3.18668 20.4066 3.31668Z" fill="#1E1D26" fill-opacity="0.0627451"/>
<path d="M17.6033 17.8434H17.4833C17.3733 17.8434 17.2833 17.75 17.2867 17.64C17.2867 17.53 17.3767 17.4434 17.49 17.4434C17.8533 17.4467 18.22 17.43 18.58 17.3934C18.77 17.3734 18.9633 17.3467 19.1033 17.25C19.31 17.1067 19.37 16.8267 19.36 16.61C19.3467 16.3334 19.2333 16.06 19.1233 15.7967C19.08 15.6934 19.13 15.5767 19.2333 15.5367C19.3367 15.4967 19.4533 15.5434 19.4933 15.6467C19.61 15.93 19.74 16.25 19.7567 16.5934C19.7767 17.0034 19.6133 17.38 19.33 17.58C19.1133 17.7334 18.8467 17.77 18.6167 17.7934C18.2833 17.8267 17.9433 17.8434 17.6033 17.8434ZM16.5867 17.8334C16.5767 17.8334 16.5633 17.8334 16.5533 17.83L16.3933 17.8034C16.3673 17.7995 16.3423 17.7904 16.3198 17.7766C16.2974 17.7628 16.2779 17.7446 16.2627 17.7231C16.2474 17.7017 16.2367 17.6773 16.2311 17.6516C16.2254 17.6259 16.2251 17.5992 16.23 17.5734C16.2467 17.4634 16.35 17.39 16.46 17.41L16.62 17.4367C16.73 17.4534 16.8033 17.5567 16.7833 17.6667C16.77 17.7634 16.6833 17.8334 16.5867 17.8334Z" fill="white"/>
</g>
<defs>
<clipPath id="clip0_2392_27322">
<rect width="22" height="22" fill="white"/>
</clipPath>
</defs>
</svg>
