<svg width="22" height="22" viewBox="0 0 22 22" fill="none" xmlns="http://www.w3.org/2000/svg">
<path fill-rule="evenodd" clip-rule="evenodd" d="M13.075 5.90991H19.3229V18.4161H13.075V5.90991Z" fill="#71BCF7"/>
<path fill-rule="evenodd" clip-rule="evenodd" d="M18.7776 5.90991H19.323V17.7316H18.7776V5.90991Z" fill="#42A5F5"/>
<path fill-rule="evenodd" clip-rule="evenodd" d="M11.0667 5.13794H20.1218L19.3228 6.38352H11.8657L11.0667 5.13794Z" fill="#42A5F5"/>
<path fill-rule="evenodd" clip-rule="evenodd" d="M19.5763 5.13794H20.1217L19.3228 6.38352H18.7773L19.5763 5.13794Z" fill="#2D90F1"/>
<path fill-rule="evenodd" clip-rule="evenodd" d="M15.0966 8.3269H16.0009C16.0432 8.32703 16.0838 8.3439 16.1137 8.37385C16.1437 8.40379 16.1606 8.44436 16.1607 8.4867V9.39103C16.1606 9.43337 16.1437 9.47394 16.1137 9.50388C16.0838 9.53383 16.0432 9.5507 16.0009 9.55083H15.0966C15.0542 9.5507 15.0137 9.53383 14.9837 9.50388C14.9538 9.47394 14.9369 9.43337 14.9368 9.39103V8.4867C14.9369 8.44436 14.9538 8.40378 14.9837 8.37383C15.0136 8.34389 15.0542 8.32702 15.0966 8.3269ZM17.3046 14.8806H18.209C18.2513 14.8808 18.2919 14.8976 18.3218 14.9276C18.3518 14.9575 18.3686 14.9981 18.3688 15.0404V15.9447C18.3686 15.9871 18.3518 16.0277 18.3218 16.0576C18.2919 16.0875 18.2513 16.1044 18.209 16.1045H17.3046C17.2623 16.1044 17.2217 16.0875 17.1918 16.0576C17.1618 16.0277 17.145 15.9871 17.1448 15.9447V15.0404C17.145 14.998 17.1618 14.9575 17.1918 14.9275C17.2217 14.8976 17.2623 14.8807 17.3046 14.8806ZM17.3046 12.6961H18.209C18.2513 12.6962 18.2919 12.7131 18.3218 12.743C18.3518 12.7729 18.3686 12.8135 18.3688 12.8559V13.7602C18.3686 13.8025 18.3518 13.8431 18.3218 13.873C18.2919 13.903 18.2513 13.9198 18.209 13.92H17.3046C17.2623 13.9198 17.2217 13.903 17.1918 13.873C17.1618 13.8431 17.145 13.8025 17.1448 13.7602V12.8559C17.145 12.8135 17.1618 12.7729 17.1918 12.743C17.2217 12.7131 17.2623 12.6962 17.3046 12.6961ZM17.3046 10.5115H18.209C18.2513 10.5116 18.2919 10.5285 18.3218 10.5584C18.3518 10.5884 18.3686 10.6289 18.3688 10.6713V11.5756C18.3686 11.6179 18.3518 11.6585 18.3218 11.6885C18.2919 11.7184 18.2513 11.7353 18.209 11.7354H17.3046C17.2623 11.7353 17.2217 11.7184 17.1918 11.6885C17.1618 11.6585 17.145 11.6179 17.1448 11.5756V10.6713C17.145 10.6289 17.1618 10.5884 17.1918 10.5584C17.2217 10.5285 17.2623 10.5116 17.3046 10.5115ZM17.3046 8.3269H18.209C18.2513 8.32703 18.2919 8.3439 18.3218 8.37385C18.3518 8.40379 18.3686 8.44436 18.3688 8.4867V9.39103C18.3686 9.43337 18.3518 9.47394 18.3218 9.50388C18.2919 9.53383 18.2513 9.5507 18.209 9.55083H17.3046C17.2623 9.5507 17.2217 9.53383 17.1918 9.50388C17.1618 9.47394 17.145 9.43337 17.1448 9.39103V8.4867C17.145 8.44436 17.1618 8.40379 17.1918 8.37385C17.2217 8.3439 17.2623 8.32703 17.3046 8.3269ZM15.0966 14.8806H16.0009C16.0432 14.8808 16.0838 14.8976 16.1137 14.9276C16.1437 14.9575 16.1606 14.9981 16.1607 15.0404V15.9447C16.1606 15.9871 16.1437 16.0277 16.1137 16.0576C16.0838 16.0875 16.0432 16.1044 16.0009 16.1045H15.0966C15.0542 16.1044 15.0137 16.0875 14.9837 16.0576C14.9538 16.0277 14.9369 15.9871 14.9368 15.9447V15.0404C14.9369 14.998 14.9538 14.9575 14.9837 14.9275C15.0136 14.8976 15.0542 14.8807 15.0966 14.8806ZM15.0966 12.6961H16.0009C16.0432 12.6962 16.0838 12.7131 16.1137 12.743C16.1437 12.7729 16.1606 12.8135 16.1607 12.8559V13.7602C16.1606 13.8025 16.1437 13.8431 16.1137 13.873C16.0838 13.903 16.0432 13.9198 16.0009 13.92H15.0966C15.0542 13.9198 15.0137 13.903 14.9837 13.873C14.9538 13.8431 14.9369 13.8025 14.9368 13.7602V12.8559C14.9369 12.8135 14.9538 12.7729 14.9837 12.743C15.0136 12.713 15.0542 12.6962 15.0966 12.6961ZM15.0966 10.5115H16.0009C16.0432 10.5116 16.0838 10.5285 16.1137 10.5584C16.1437 10.5884 16.1606 10.6289 16.1607 10.6713V11.5756C16.1606 11.6179 16.1437 11.6585 16.1137 11.6885C16.0838 11.7184 16.0432 11.7353 16.0009 11.7354H15.0966C15.0542 11.7353 15.0137 11.7184 14.9837 11.6885C14.9538 11.6585 14.9369 11.6179 14.9368 11.5756V10.6713C14.9369 10.6289 14.9538 10.5884 14.9837 10.5584C15.0136 10.5285 15.0542 10.5116 15.0966 10.5115Z" fill="#E6F8FF"/>
<path fill-rule="evenodd" clip-rule="evenodd" d="M15.0966 8.3269H16.0009C16.0432 8.32703 16.0838 8.3439 16.1137 8.37385C16.1437 8.40379 16.1606 8.44436 16.1607 8.4867V8.52478H15.2985C15.2561 8.5249 15.2156 8.54178 15.1856 8.57172C15.1557 8.60166 15.1388 8.64223 15.1387 8.68458V9.55083H15.0966C15.0542 9.5507 15.0137 9.53383 14.9837 9.50388C14.9538 9.47394 14.9369 9.43337 14.9368 9.39103V8.4867C14.9369 8.44436 14.9538 8.40378 14.9837 8.37383C15.0136 8.34389 15.0542 8.32702 15.0966 8.3269ZM17.3046 14.8806H18.209C18.2513 14.8808 18.2919 14.8976 18.3218 14.9276C18.3518 14.9575 18.3686 14.9981 18.3688 15.0404V15.0785H17.5066C17.4642 15.0786 17.4236 15.0955 17.3937 15.1254C17.3638 15.1554 17.3469 15.196 17.3468 15.2383V16.1045H17.3046C17.2623 16.1044 17.2217 16.0875 17.1918 16.0576C17.1618 16.0277 17.145 15.9871 17.1448 15.9447V15.0404C17.145 14.998 17.1618 14.9575 17.1918 14.9275C17.2217 14.8976 17.2623 14.8807 17.3046 14.8806ZM15.0966 14.8806H16.0009C16.0432 14.8808 16.0838 14.8976 16.1137 14.9276C16.1437 14.9575 16.1606 14.9981 16.1607 15.0404V15.0785H15.2985C15.2561 15.0786 15.2156 15.0955 15.1856 15.1254C15.1557 15.1554 15.1388 15.196 15.1387 15.2383V16.1045H15.0966C15.0542 16.1044 15.0137 16.0875 14.9837 16.0576C14.9538 16.0277 14.9369 15.9871 14.9368 15.9447V15.0404C14.9369 14.998 14.9538 14.9575 14.9837 14.9275C15.0136 14.8976 15.0542 14.8807 15.0966 14.8806ZM17.3046 12.6961H18.209C18.2513 12.6962 18.2919 12.7131 18.3218 12.743C18.3518 12.7729 18.3686 12.8135 18.3688 12.8559V12.8939H17.5066C17.4642 12.894 17.4236 12.9109 17.3937 12.9409C17.3638 12.9708 17.3469 13.0114 17.3468 13.0537V13.92H17.3046C17.2623 13.9198 17.2217 13.903 17.1918 13.873C17.1618 13.8431 17.145 13.8025 17.1448 13.7602V12.8559C17.145 12.8135 17.1618 12.7729 17.1918 12.743C17.2217 12.7131 17.2623 12.6962 17.3046 12.6961ZM15.0966 12.6961H16.0009C16.0432 12.6962 16.0838 12.7131 16.1137 12.743C16.1437 12.7729 16.1606 12.8135 16.1607 12.8559V12.8939H15.2985C15.2561 12.894 15.2156 12.9109 15.1856 12.9409C15.1557 12.9708 15.1388 13.0114 15.1387 13.0537V13.92H15.0966C15.0542 13.9198 15.0137 13.903 14.9837 13.873C14.9538 13.8431 14.9369 13.8025 14.9368 13.7602V12.8559C14.9369 12.8135 14.9538 12.7729 14.9837 12.743C15.0136 12.713 15.0542 12.6962 15.0966 12.6961ZM17.3046 10.5115H18.209C18.2513 10.5116 18.2919 10.5285 18.3218 10.5584C18.3518 10.5884 18.3686 10.6289 18.3688 10.6713V10.7093H17.5066C17.4642 10.7095 17.4236 10.7264 17.3937 10.7563C17.3638 10.7862 17.3469 10.8268 17.3468 10.8692V11.7354H17.3046C17.2623 11.7353 17.2217 11.7184 17.1918 11.6885C17.1618 11.6585 17.145 11.6179 17.1448 11.5756V10.6713C17.145 10.6289 17.1618 10.5884 17.1918 10.5584C17.2217 10.5285 17.2623 10.5116 17.3046 10.5115ZM15.0966 10.5115H16.0009C16.0432 10.5116 16.0838 10.5285 16.1137 10.5584C16.1437 10.5884 16.1606 10.6289 16.1607 10.6713V10.7093H15.2985C15.2561 10.7095 15.2156 10.7264 15.1856 10.7563C15.1557 10.7862 15.1388 10.8268 15.1387 10.8692V11.7354H15.0966C15.0542 11.7353 15.0137 11.7184 14.9837 11.6885C14.9538 11.6585 14.9369 11.6179 14.9368 11.5756V10.6713C14.9369 10.6289 14.9538 10.5884 14.9837 10.5584C15.0136 10.5285 15.0542 10.5116 15.0966 10.5115ZM17.3046 8.3269H18.209C18.2513 8.32703 18.2919 8.3439 18.3218 8.37385C18.3518 8.40379 18.3686 8.44436 18.3688 8.4867V8.52478H17.5066C17.4642 8.5249 17.4236 8.54178 17.3937 8.57172C17.3638 8.60166 17.3469 8.64223 17.3468 8.68458V9.55083H17.3046C17.2623 9.5507 17.2217 9.53383 17.1918 9.50388C17.1618 9.47394 17.145 9.43337 17.1448 9.39103V8.4867C17.145 8.44436 17.1618 8.40379 17.1918 8.37385C17.2217 8.3439 17.2623 8.32703 17.3046 8.3269Z" fill="#D0F1FF"/>
<path fill-rule="evenodd" clip-rule="evenodd" d="M1.18579 5.88623H8.07682V18.5461H1.18579V5.88623Z" fill="#71BCF7"/>
<path fill-rule="evenodd" clip-rule="evenodd" d="M1.18579 5.88623H1.73119V18.5461H1.18579V5.88623Z" fill="#42A5F5"/>
<path fill-rule="evenodd" clip-rule="evenodd" d="M0.386719 5.13794H9.44191L8.64291 6.38352H1.18572L0.386719 5.13794Z" fill="#42A5F5"/>
<path fill-rule="evenodd" clip-rule="evenodd" d="M0.932164 5.13794H0.386719L1.18572 6.38352H1.73112L0.932164 5.13794Z" fill="#2D90F1"/>
<path fill-rule="evenodd" clip-rule="evenodd" d="M2.29945 8.3269H3.20377C3.24611 8.32703 3.28669 8.3439 3.31663 8.37385C3.34657 8.40379 3.36345 8.44436 3.36357 8.4867V9.39103C3.36345 9.43337 3.34657 9.47394 3.31663 9.50388C3.28669 9.53383 3.24611 9.5507 3.20377 9.55083H2.29945C2.25711 9.5507 2.21653 9.53383 2.18659 9.50388C2.15665 9.47394 2.13977 9.43337 2.13965 9.39103V8.4867C2.13977 8.44436 2.15665 8.40379 2.18659 8.37385C2.21653 8.3439 2.25711 8.32703 2.29945 8.3269ZM4.50753 14.8806H5.41185C5.45419 14.8808 5.49476 14.8976 5.52471 14.9276C5.55465 14.9575 5.57152 14.9981 5.57165 15.0404V15.9447C5.57152 15.9871 5.55465 16.0277 5.52471 16.0576C5.49476 16.0875 5.45419 16.1044 5.41185 16.1045H4.50753C4.46518 16.1044 4.42461 16.0875 4.39467 16.0576C4.36473 16.0277 4.34785 15.9871 4.34773 15.9447V15.0404C4.34785 14.998 4.36473 14.9575 4.39467 14.9275C4.42461 14.8976 4.46519 14.8807 4.50753 14.8806ZM2.29945 14.8806H3.20377C3.24611 14.8808 3.28669 14.8976 3.31663 14.9276C3.34657 14.9575 3.36345 14.9981 3.36357 15.0404V15.9447C3.36345 15.9871 3.34657 16.0277 3.31663 16.0576C3.28669 16.0875 3.24611 16.1044 3.20377 16.1045H2.29945C2.25711 16.1044 2.21653 16.0875 2.18659 16.0576C2.15665 16.0277 2.13977 15.9871 2.13965 15.9447V15.0404C2.13977 14.998 2.15665 14.9575 2.18659 14.9275C2.21654 14.8976 2.25711 14.8807 2.29945 14.8806ZM4.50753 12.6961H5.41185C5.45419 12.6962 5.49476 12.7131 5.52471 12.743C5.55465 12.7729 5.57152 12.8135 5.57165 12.8559V13.7602C5.57152 13.8025 5.55465 13.8431 5.52471 13.873C5.49476 13.903 5.45419 13.9198 5.41185 13.92H4.50753C4.46518 13.9198 4.42461 13.903 4.39467 13.873C4.36473 13.8431 4.34785 13.8025 4.34773 13.7602V12.8559C4.34785 12.8135 4.36473 12.7729 4.39467 12.743C4.42461 12.7131 4.46518 12.6962 4.50753 12.6961ZM2.29945 12.6961H3.20377C3.24611 12.6962 3.28669 12.7131 3.31663 12.743C3.34657 12.7729 3.36345 12.8135 3.36357 12.8559V13.7602C3.36345 13.8025 3.34657 13.8431 3.31663 13.873C3.28669 13.903 3.24611 13.9198 3.20377 13.92H2.29945C2.25711 13.9198 2.21653 13.903 2.18659 13.873C2.15665 13.8431 2.13977 13.8025 2.13965 13.7602V12.8559C2.13977 12.8135 2.15665 12.7729 2.18659 12.743C2.21653 12.7131 2.25711 12.6962 2.29945 12.6961ZM4.50753 10.5115H5.41185C5.45419 10.5116 5.49476 10.5285 5.52471 10.5584C5.55465 10.5884 5.57152 10.6289 5.57165 10.6713V11.5756C5.57152 11.6179 5.55465 11.6585 5.52471 11.6885C5.49476 11.7184 5.45419 11.7353 5.41185 11.7354H4.50753C4.46518 11.7353 4.42461 11.7184 4.39467 11.6885C4.36473 11.6585 4.34785 11.6179 4.34773 11.5756V10.6713C4.34785 10.6289 4.36473 10.5884 4.39467 10.5584C4.42461 10.5285 4.46518 10.5116 4.50753 10.5115ZM2.29945 10.5115H3.20377C3.24611 10.5116 3.28669 10.5285 3.31663 10.5584C3.34657 10.5884 3.36345 10.6289 3.36357 10.6713V11.5756C3.36345 11.6179 3.34657 11.6585 3.31663 11.6885C3.28669 11.7184 3.24611 11.7353 3.20377 11.7354H2.29945C2.25711 11.7353 2.21653 11.7184 2.18659 11.6885C2.15665 11.6585 2.13977 11.6179 2.13965 11.5756V10.6713C2.13977 10.6289 2.15665 10.5884 2.18659 10.5584C2.21653 10.5285 2.25711 10.5116 2.29945 10.5115ZM4.50753 8.3269H5.41185C5.45419 8.32703 5.49476 8.3439 5.52471 8.37385C5.55465 8.40379 5.57152 8.44436 5.57165 8.4867V9.39103C5.57152 9.43337 5.55465 9.47394 5.52471 9.50388C5.49476 9.53383 5.45419 9.5507 5.41185 9.55083H4.50753C4.46518 9.5507 4.42461 9.53383 4.39467 9.50388C4.36473 9.47394 4.34785 9.43337 4.34773 9.39103V8.4867C4.34785 8.44436 4.36473 8.40379 4.39467 8.37385C4.42461 8.3439 4.46518 8.32703 4.50753 8.3269Z" fill="#E6F8FF"/>
<path fill-rule="evenodd" clip-rule="evenodd" d="M2.29949 8.3269H3.20381C3.24616 8.32703 3.28673 8.3439 3.31667 8.37385C3.34661 8.40379 3.36349 8.44436 3.36361 8.4867V8.52478H2.50136C2.45902 8.5249 2.41844 8.54178 2.3885 8.57172C2.35856 8.60166 2.34168 8.64223 2.34156 8.68458V9.55083H2.29945C2.25711 9.5507 2.21653 9.53383 2.18659 9.50388C2.15665 9.47394 2.13977 9.43337 2.13965 9.39103V8.4867C2.13977 8.44435 2.15666 8.40377 2.18661 8.37383C2.21656 8.34389 2.25714 8.32702 2.29949 8.3269ZM4.50757 14.8806H5.41189C5.45423 14.8808 5.49481 14.8976 5.52475 14.9276C5.55469 14.9575 5.57157 14.9981 5.57169 15.0404V15.0785H4.70948C4.66714 15.0786 4.62656 15.0955 4.59662 15.1254C4.56668 15.1554 4.5498 15.196 4.54968 15.2383V16.1045H4.50761C4.46527 16.1044 4.4247 16.0875 4.39475 16.0576C4.36481 16.0277 4.34794 15.9871 4.34781 15.9447V15.0404C4.34793 14.998 4.36479 14.9575 4.39473 14.9275C4.42467 14.8976 4.46523 14.8807 4.50757 14.8806ZM2.29949 14.8806H3.20381C3.24616 14.8808 3.28673 14.8976 3.31667 14.9276C3.34661 14.9575 3.36349 14.9981 3.36361 15.0404V15.0785H2.50136C2.45902 15.0786 2.41844 15.0955 2.3885 15.1254C2.35856 15.1554 2.34168 15.196 2.34156 15.2383V16.1045H2.29945C2.25711 16.1044 2.21653 16.0875 2.18659 16.0576C2.15665 16.0277 2.13977 15.9871 2.13965 15.9447V15.0404C2.13978 14.998 2.15667 14.9575 2.18662 14.9275C2.21657 14.8976 2.25715 14.8807 2.29949 14.8806ZM4.50757 12.6961H5.41189C5.45423 12.6962 5.49481 12.7131 5.52475 12.743C5.55469 12.7729 5.57157 12.8135 5.57169 12.8559V12.8939H4.70948C4.66714 12.894 4.62656 12.9109 4.59662 12.9409C4.56668 12.9708 4.5498 13.0114 4.54968 13.0537V13.92H4.50761C4.46527 13.9198 4.4247 13.903 4.39475 13.873C4.36481 13.8431 4.34794 13.8025 4.34781 13.7602V12.8559C4.34791 12.8135 4.36478 12.7729 4.39471 12.743C4.42465 12.713 4.46523 12.6962 4.50757 12.6961ZM2.29949 12.6961H3.20381C3.24616 12.6962 3.28673 12.7131 3.31667 12.743C3.34661 12.7729 3.36349 12.8135 3.36361 12.8559V12.8939H2.50136C2.45902 12.894 2.41844 12.9109 2.3885 12.9409C2.35856 12.9708 2.34168 13.0114 2.34156 13.0537V13.92H2.29945C2.25711 13.9198 2.21653 13.903 2.18659 13.873C2.15665 13.8431 2.13977 13.8025 2.13965 13.7602V12.8559C2.13977 12.8135 2.15666 12.7729 2.18661 12.743C2.21656 12.713 2.25714 12.6962 2.29949 12.6961ZM4.50757 10.5115H5.41189C5.45423 10.5116 5.49481 10.5285 5.52475 10.5584C5.55469 10.5884 5.57157 10.6289 5.57169 10.6713V10.7093H4.70948C4.66714 10.7095 4.62656 10.7264 4.59662 10.7563C4.56668 10.7862 4.5498 10.8268 4.54968 10.8692V11.7354H4.50761C4.46527 11.7353 4.4247 11.7184 4.39475 11.6885C4.36481 11.6585 4.34794 11.6179 4.34781 11.5756V10.6713C4.34791 10.6289 4.36478 10.5884 4.39471 10.5584C4.42465 10.5285 4.46523 10.5116 4.50757 10.5115ZM2.29949 10.5115H3.20381C3.24616 10.5116 3.28673 10.5285 3.31667 10.5584C3.34661 10.5884 3.36349 10.6289 3.36361 10.6713V10.7093H2.50136C2.45902 10.7095 2.41844 10.7264 2.3885 10.7563C2.35856 10.7862 2.34168 10.8268 2.34156 10.8692V11.7354H2.29945C2.25711 11.7353 2.21653 11.7184 2.18659 11.6885C2.15665 11.6585 2.13977 11.6179 2.13965 11.5756V10.6713C2.13977 10.6289 2.15666 10.5883 2.18661 10.5584C2.21656 10.5285 2.25714 10.5116 2.29949 10.5115ZM4.50757 8.3269H5.41189C5.45423 8.32703 5.49481 8.3439 5.52475 8.37385C5.55469 8.40379 5.57157 8.44436 5.57169 8.4867V8.52478H4.70948C4.66714 8.5249 4.62656 8.54178 4.59662 8.57172C4.56668 8.60166 4.5498 8.64223 4.54968 8.68458V9.55083H4.50761C4.46527 9.5507 4.4247 9.53383 4.39475 9.50388C4.36481 9.47394 4.34794 9.43337 4.34781 9.39103V8.4867C4.34791 8.44436 4.36478 8.40378 4.39471 8.37384C4.42465 8.34389 4.46523 8.32702 4.50757 8.3269Z" fill="#D0F1FF"/>
<path fill-rule="evenodd" clip-rule="evenodd" d="M6.52563 2.03955H13.9828V18.5486H6.52563V2.03955Z" fill="#8D9CA8"/>
<path fill-rule="evenodd" clip-rule="evenodd" d="M13.3708 2.03955H13.9829V18.5486H13.3708V2.03955Z" fill="#7A8C98"/>
<path fill-rule="evenodd" clip-rule="evenodd" d="M5.72681 1.03809H14.782L13.983 2.28362H6.52581L5.72681 1.03809Z" fill="#7A8C98"/>
<path fill-rule="evenodd" clip-rule="evenodd" d="M14.1699 1.03809H14.782L13.983 2.28362H13.3708L14.1699 1.03809Z" fill="#596C76"/>
<path fill-rule="evenodd" clip-rule="evenodd" d="M12.0103 10.5845H12.9146C12.9569 10.5846 12.9975 10.6015 13.0275 10.6314C13.0574 10.6614 13.0743 10.702 13.0744 10.7443V10.8247H12.2504C12.2081 10.8248 12.1675 10.8417 12.1376 10.8716C12.1076 10.9015 12.0908 10.9421 12.0906 10.9845V11.8084H12.0103C11.9679 11.8083 11.9274 11.7914 11.8974 11.7615C11.8675 11.7315 11.8506 11.691 11.8505 11.6486V10.7443C11.8506 10.702 11.8675 10.6614 11.8974 10.6314C11.9274 10.6015 11.9679 10.5846 12.0103 10.5845ZM12.0376 9.41906H12.0028C11.9605 9.41894 11.9199 9.40206 11.8899 9.37212C11.86 9.34218 11.8431 9.3016 11.843 9.25926V8.35494C11.8431 8.3126 11.86 8.27202 11.8899 8.24208C11.9199 8.21214 11.9605 8.19526 12.0028 8.19514H12.9071C12.9495 8.19526 12.99 8.21214 13.02 8.24208C13.0499 8.27202 13.0668 8.3126 13.0669 8.35494V8.38974H12.1974C12.1551 8.38987 12.1145 8.40675 12.0846 8.43669C12.0546 8.46663 12.0377 8.5072 12.0376 8.54955V9.41906ZM9.83697 9.41906H9.80216C9.75982 9.41894 9.71924 9.40206 9.6893 9.37212C9.65936 9.34218 9.64249 9.3016 9.64236 9.25926V8.35494C9.64249 8.3126 9.65936 8.27202 9.6893 8.24208C9.71924 8.21214 9.75982 8.19526 9.80216 8.19514H10.7065C10.7488 8.19525 10.7894 8.21213 10.8193 8.24207C10.8493 8.27202 10.8661 8.3126 10.8662 8.35494V8.38974H9.99672C9.95438 8.38987 9.91381 8.40675 9.88387 8.43669C9.85392 8.46663 9.83705 8.5072 9.83692 8.54955V9.41906H9.83697ZM7.63632 9.41906H7.60152C7.55917 9.41894 7.5186 9.40206 7.48866 9.37212C7.45872 9.34218 7.44184 9.3016 7.44172 9.25926V8.35494C7.44184 8.3126 7.45872 8.27202 7.48866 8.24208C7.5186 8.21214 7.55917 8.19526 7.60152 8.19514H8.50584C8.54818 8.19526 8.58875 8.21214 8.6187 8.24208C8.64864 8.27202 8.66551 8.3126 8.66564 8.35494V8.38974H7.79612C7.75378 8.38987 7.71321 8.40675 7.68326 8.43669C7.65332 8.46663 7.63645 8.5072 7.63632 8.54955V9.41906ZM12.0832 7.05819H12.0029C11.9605 7.05806 11.9199 7.04119 11.89 7.01124C11.86 6.9813 11.8432 6.94073 11.843 6.89839V5.99406C11.8432 5.95172 11.86 5.91115 11.89 5.88121C11.9199 5.85126 11.9605 5.83439 12.0029 5.83426H12.9072C12.9495 5.83439 12.9901 5.85126 13.02 5.88121C13.05 5.91115 13.0668 5.95172 13.067 5.99406V6.0516H12.243C12.2007 6.05172 12.1601 6.0686 12.1301 6.09854C12.1002 6.12848 12.0833 6.16906 12.0832 6.2114V7.05819H12.0832ZM9.88251 7.05819H9.8022C9.75986 7.05806 9.71929 7.04119 9.68935 7.01124C9.6594 6.9813 9.64253 6.94073 9.6424 6.89839V5.99406C9.64253 5.95172 9.6594 5.91115 9.68935 5.88121C9.71929 5.85126 9.75986 5.83439 9.8022 5.83426H10.7065C10.7489 5.83438 10.7894 5.85125 10.8194 5.8812C10.8493 5.91114 10.8662 5.95172 10.8663 5.99406V6.0516H10.0423C9.99997 6.05172 9.9594 6.0686 9.92946 6.09854C9.89951 6.12848 9.88264 6.16906 9.88251 6.2114V7.05819ZM7.68187 7.05819H7.60152C7.55917 7.05806 7.5186 7.04119 7.48866 7.01124C7.45872 6.9813 7.44184 6.94073 7.44172 6.89839V5.99406C7.44184 5.95172 7.45872 5.91115 7.48866 5.88121C7.5186 5.85126 7.55917 5.83439 7.60152 5.83426H8.50584C8.54818 5.83439 8.58875 5.85126 8.6187 5.88121C8.64864 5.91115 8.66551 5.95172 8.66564 5.99406V6.0516H7.84167C7.79933 6.05172 7.75875 6.0686 7.72881 6.09854C7.69887 6.12848 7.68199 6.16906 7.68187 6.2114V7.05819ZM12.0522 4.69727H12.0028C11.9605 4.69714 11.9199 4.68027 11.8899 4.65033C11.86 4.62038 11.8431 4.57981 11.843 4.53747V3.63319C11.8431 3.59085 11.86 3.55027 11.8899 3.52033C11.9199 3.49039 11.9605 3.47351 12.0028 3.47339H12.9071C12.9495 3.47351 12.99 3.49039 13.02 3.52033C13.0499 3.55027 13.0668 3.59085 13.0669 3.63319V3.71015H12.212C12.1696 3.71027 12.1291 3.72715 12.0991 3.75709C12.0692 3.78703 12.0523 3.8276 12.0522 3.86995V4.69727ZM9.85153 4.69727H9.80216C9.75982 4.69714 9.71924 4.68027 9.6893 4.65033C9.65936 4.62038 9.64249 4.57981 9.64236 4.53747V3.63319C9.64249 3.59085 9.65936 3.55027 9.6893 3.52033C9.71924 3.49039 9.75982 3.47351 9.80216 3.47339H10.7065C10.7488 3.4735 10.7894 3.49038 10.8193 3.52032C10.8493 3.55027 10.8661 3.59085 10.8662 3.63319V3.71015H10.0113C9.96899 3.71027 9.92842 3.72715 9.89848 3.75709C9.86853 3.78703 9.85166 3.8276 9.85153 3.86995V4.69727ZM7.65089 4.69727H7.60152C7.55917 4.69714 7.5186 4.68027 7.48866 4.65033C7.45872 4.62038 7.44184 4.57981 7.44172 4.53747V3.63319C7.44184 3.59085 7.45872 3.55027 7.48866 3.52033C7.5186 3.49039 7.55917 3.47351 7.60152 3.47339H8.50584C8.54818 3.47351 8.58875 3.49039 8.6187 3.52033C8.64864 3.55027 8.66551 3.59085 8.66564 3.63319V3.71015H7.81069C7.76835 3.71027 7.72777 3.72715 7.69783 3.75709C7.66789 3.78703 7.65101 3.8276 7.65089 3.86995V4.69727ZM9.80216 10.5845H10.7065C10.7488 10.5846 10.7894 10.6015 10.8193 10.6314C10.8493 10.6614 10.8661 10.702 10.8662 10.7443V10.8247H10.0423C9.99993 10.8248 9.95935 10.8417 9.92941 10.8716C9.89947 10.9015 9.8826 10.9421 9.88247 10.9845V11.8084H9.80212C9.75978 11.8083 9.7192 11.7914 9.68926 11.7615C9.65932 11.7315 9.64244 11.691 9.64232 11.6486V10.7443C9.64248 10.702 9.65937 10.6614 9.68931 10.6315C9.71926 10.6015 9.75982 10.5846 9.80216 10.5845ZM7.59408 10.5845H8.4984C8.54075 10.5846 8.58132 10.6015 8.61126 10.6314C8.6412 10.6614 8.65808 10.702 8.6582 10.7443V10.8247H7.83424C7.79189 10.8248 7.75132 10.8417 7.72138 10.8716C7.69144 10.9015 7.67456 10.9421 7.67444 10.9845V11.8084H7.59413C7.55178 11.8083 7.51121 11.7914 7.48127 11.7615C7.45133 11.7315 7.43445 11.691 7.43433 11.6486V10.7443C7.43444 10.702 7.45131 10.6614 7.48124 10.6314C7.51118 10.6015 7.55174 10.5846 7.59408 10.5845Z" fill="#D0F1FF"/>
<path fill-rule="evenodd" clip-rule="evenodd" d="M7.60156 8.19514H8.50588C8.54822 8.19526 8.5888 8.21214 8.61874 8.24208C8.64868 8.27202 8.66556 8.3126 8.66568 8.35494V9.25926C8.66556 9.3016 8.64868 9.34218 8.61874 9.37212C8.5888 9.40206 8.54822 9.41894 8.50588 9.41906H7.60156C7.55922 9.41894 7.51864 9.40206 7.4887 9.37212C7.45876 9.34218 7.44188 9.3016 7.44176 9.25926V8.35494C7.4419 8.3126 7.45878 8.27203 7.48871 8.24209C7.51865 8.21215 7.55922 8.19527 7.60156 8.19514ZM12.0103 10.5845H12.9146C12.957 10.5846 12.9976 10.6015 13.0275 10.6314C13.0574 10.6614 13.0743 10.702 13.0744 10.7443V11.6486C13.0743 11.691 13.0574 11.7315 13.0275 11.7615C12.9976 11.7914 12.957 11.8083 12.9146 11.8084H12.0103C11.968 11.8083 11.9274 11.7914 11.8975 11.7615C11.8675 11.7315 11.8506 11.691 11.8505 11.6486V10.7443C11.8506 10.702 11.8675 10.6614 11.8975 10.6314C11.9274 10.6015 11.968 10.5846 12.0103 10.5845ZM9.8022 10.5845H10.7065C10.7489 10.5846 10.7894 10.6015 10.8194 10.6314C10.8493 10.6614 10.8662 10.702 10.8663 10.7443V11.6486C10.8662 11.691 10.8493 11.7315 10.8194 11.7615C10.7894 11.7914 10.7489 11.8083 10.7065 11.8084H9.8022C9.75986 11.8083 9.71929 11.7914 9.68935 11.7615C9.6594 11.7315 9.64253 11.691 9.6424 11.6486V10.7443C9.64254 10.702 9.65942 10.6614 9.68936 10.6315C9.7193 10.6015 9.75986 10.5846 9.8022 10.5845ZM7.59413 10.5845H8.49845C8.54079 10.5846 8.58136 10.6015 8.61131 10.6314C8.64125 10.6614 8.65812 10.702 8.65825 10.7443V11.6486C8.65812 11.691 8.64125 11.7315 8.61131 11.7615C8.58136 11.7914 8.54079 11.8083 8.49845 11.8084H7.59413C7.55178 11.8083 7.51121 11.7914 7.48127 11.7615C7.45133 11.7315 7.43445 11.691 7.43433 11.6486V10.7443C7.43445 10.702 7.45133 10.6614 7.48127 10.6314C7.51121 10.6015 7.55178 10.5846 7.59413 10.5845ZM7.60156 3.47339H8.50588C8.54822 3.47351 8.5888 3.49039 8.61874 3.52033C8.64868 3.55027 8.66556 3.59085 8.66568 3.63319V4.53751C8.66556 4.57985 8.64868 4.62043 8.61874 4.65037C8.5888 4.68031 8.54822 4.69719 8.50588 4.69731H7.60156C7.55922 4.69719 7.51864 4.68031 7.4887 4.65037C7.45876 4.62043 7.44188 4.57985 7.44176 4.53751V3.63319C7.44188 3.59085 7.45876 3.55027 7.4887 3.52033C7.51864 3.49039 7.55922 3.47351 7.60156 3.47339ZM9.8022 3.47339H10.7065C10.7489 3.4735 10.7894 3.49038 10.8194 3.52032C10.8493 3.55027 10.8662 3.59085 10.8663 3.63319V4.53751C10.8662 4.57985 10.8493 4.62042 10.8194 4.65037C10.7894 4.68031 10.7489 4.69719 10.7065 4.69731H9.8022C9.75986 4.69719 9.71929 4.68031 9.68935 4.65037C9.6594 4.62043 9.64253 4.57985 9.6424 4.53751V3.63319C9.64253 3.59085 9.6594 3.55027 9.68935 3.52033C9.71929 3.49039 9.75986 3.47351 9.8022 3.47339ZM12.0029 3.47339H12.9072C12.9495 3.47351 12.9901 3.49039 13.02 3.52033C13.05 3.55027 13.0668 3.59085 13.067 3.63319V4.53751C13.0668 4.57985 13.05 4.62043 13.02 4.65037C12.9901 4.68031 12.9495 4.69719 12.9072 4.69731H12.0029C11.9605 4.69719 11.9199 4.68031 11.89 4.65037C11.86 4.62043 11.8432 4.57985 11.843 4.53751V3.63319C11.8432 3.59085 11.86 3.55027 11.89 3.52033C11.9199 3.49039 11.9605 3.47351 12.0029 3.47339ZM7.60156 5.83426H8.50588C8.54822 5.83439 8.5888 5.85126 8.61874 5.88121C8.64868 5.91115 8.66556 5.95172 8.66568 5.99406V6.89839C8.66556 6.94073 8.64868 6.9813 8.61874 7.01124C8.5888 7.04119 8.54822 7.05806 8.50588 7.05819H7.60156C7.55922 7.05806 7.51864 7.04119 7.4887 7.01124C7.45876 6.9813 7.44188 6.94073 7.44176 6.89839V5.99406C7.44188 5.95172 7.45876 5.91115 7.4887 5.88121C7.51864 5.85126 7.55922 5.83439 7.60156 5.83426ZM9.8022 5.83426H10.7065C10.7489 5.83438 10.7894 5.85125 10.8194 5.8812C10.8493 5.91114 10.8662 5.95172 10.8663 5.99406V6.89839C10.8662 6.94072 10.8493 6.9813 10.8194 7.01124C10.7894 7.04118 10.7489 7.05806 10.7065 7.05819H9.8022C9.75986 7.05806 9.71929 7.04119 9.68935 7.01124C9.6594 6.9813 9.64253 6.94073 9.6424 6.89839V5.99406C9.64253 5.95172 9.6594 5.91115 9.68935 5.88121C9.71929 5.85126 9.75986 5.83439 9.8022 5.83426ZM12.0029 5.83426H12.9072C12.9495 5.83439 12.9901 5.85126 13.02 5.88121C13.05 5.91115 13.0668 5.95172 13.067 5.99406V6.89839C13.0668 6.94073 13.05 6.9813 13.02 7.01124C12.9901 7.04119 12.9495 7.05806 12.9072 7.05819H12.0029C11.9605 7.05806 11.9199 7.04119 11.89 7.01124C11.86 6.9813 11.8432 6.94073 11.843 6.89839V5.99406C11.8432 5.95172 11.86 5.91115 11.89 5.88121C11.9199 5.85126 11.9605 5.83439 12.0029 5.83426ZM9.8022 8.19514H10.7065C10.7489 8.19525 10.7894 8.21213 10.8194 8.24207C10.8493 8.27202 10.8662 8.3126 10.8663 8.35494V9.25926C10.8662 9.3016 10.8493 9.34217 10.8194 9.37212C10.7894 9.40206 10.7489 9.41894 10.7065 9.41906H9.8022C9.75986 9.41894 9.71929 9.40206 9.68935 9.37212C9.6594 9.34218 9.64253 9.3016 9.6424 9.25926V8.35494C9.64254 8.3126 9.65942 8.27203 9.68936 8.24209C9.7193 8.21215 9.75986 8.19527 9.8022 8.19514ZM12.0029 8.19514H12.9072C12.9495 8.19526 12.9901 8.21214 13.02 8.24208C13.05 8.27202 13.0668 8.3126 13.067 8.35494V9.25926C13.0668 9.3016 13.05 9.34218 13.02 9.37212C12.9901 9.40206 12.9495 9.41894 12.9072 9.41906H12.0029C11.9605 9.41894 11.9199 9.40206 11.89 9.37212C11.86 9.34218 11.8432 9.3016 11.843 9.25926V8.35494C11.8432 8.3126 11.8601 8.27203 11.89 8.24209C11.9199 8.21215 11.9605 8.19527 12.0029 8.19514Z" fill="#E6F8FF"/>
<path fill-rule="evenodd" clip-rule="evenodd" d="M7.84106 14.0051H12.6676V18.3392H7.84106V14.0051Z" fill="#EFF4F7"/>
<path fill-rule="evenodd" clip-rule="evenodd" d="M7.84106 14.0051H10.2544V18.414H7.84106V14.0051Z" fill="#DEE8EE"/>
<path fill-rule="evenodd" clip-rule="evenodd" d="M9.64335 14.0051H10.2543V18.414H7.84106V18.2142H9.64335V14.0051Z" fill="#CEDDE5"/>
<path fill-rule="evenodd" clip-rule="evenodd" d="M12.0566 14.0051H12.6676V18.3392H7.84106V18.1394H12.0566V14.0051Z" fill="#DEE8EE"/>
<path fill-rule="evenodd" clip-rule="evenodd" d="M0.514164 19.145H19.9943C20.0281 19.1449 20.0605 19.1315 20.0844 19.1076C20.1083 19.0837 20.1217 19.0513 20.1218 19.0176V18.2708C20.1217 18.237 20.1083 18.2046 20.0844 18.1807C20.0605 18.1569 20.0281 18.1434 19.9943 18.1433H0.514164C0.480391 18.1434 0.448028 18.1569 0.424147 18.1807C0.400266 18.2046 0.386809 18.237 0.386719 18.2708V19.0176C0.386809 19.0513 0.400266 19.0837 0.424147 19.1076C0.448028 19.1315 0.480391 19.1449 0.514164 19.145Z" fill="#96A4AF"/>
<path fill-rule="evenodd" clip-rule="evenodd" d="M0.514207 19.145H19.9944C20.0282 19.1449 20.0605 19.1315 20.0844 19.1076C20.1083 19.0837 20.1218 19.0513 20.1219 19.0176V18.2708C20.1218 18.237 20.1083 18.2046 20.0844 18.1807C20.0605 18.1569 20.0282 18.1434 19.9944 18.1433H19.9109V18.7193C19.9108 18.7531 19.8974 18.7854 19.8735 18.8093C19.8496 18.8332 19.8172 18.8467 19.7835 18.8468H0.386719V19.0176C0.386821 19.0513 0.400287 19.0837 0.424175 19.1076C0.448062 19.1315 0.48043 19.1449 0.514207 19.145Z" fill="#8696A3"/>
<path fill-rule="evenodd" clip-rule="evenodd" d="M16.3647 11.7063H17.6066C17.6467 11.7064 17.6851 11.7223 17.7135 11.7507C17.7419 11.779 17.7578 11.8175 17.7579 11.8576V12.4812C18.2602 12.5815 18.7378 12.7794 19.1636 13.0639L19.6049 12.6227C19.6333 12.5944 19.6718 12.5785 19.7119 12.5785C19.752 12.5785 19.7905 12.5944 19.8189 12.6227L20.697 13.5008C20.7253 13.5292 20.7412 13.5677 20.7412 13.6078C20.7412 13.6479 20.7253 13.6864 20.697 13.7148L20.2557 14.156C20.5402 14.5819 20.7382 15.0595 20.8384 15.5618H21.462C21.5021 15.5618 21.5405 15.5778 21.5689 15.6062C21.5972 15.6345 21.6132 15.6729 21.6133 15.713V16.9549C21.6132 16.995 21.5972 17.0335 21.5689 17.0618C21.5405 17.0902 21.5021 17.1061 21.462 17.1062H20.8384C20.7382 17.6085 20.5402 18.0861 20.2557 18.512L20.6969 18.9532C20.7252 18.9816 20.7411 19.0201 20.7411 19.0602C20.7411 19.1003 20.7252 19.1388 20.6969 19.1672L19.8188 20.0453C19.7904 20.0736 19.7519 20.0895 19.7118 20.0895C19.6717 20.0895 19.6332 20.0736 19.6048 20.0453L19.1636 19.6041C18.7377 19.8886 18.2601 20.0865 17.7578 20.1867V20.8103C17.7578 20.8505 17.7418 20.8889 17.7134 20.9173C17.6851 20.9456 17.6466 20.9616 17.6065 20.9617H16.3646C16.3245 20.9616 16.2861 20.9456 16.2577 20.9173C16.2294 20.8889 16.2134 20.8505 16.2133 20.8103V20.1867C15.7111 20.0865 15.2334 19.8886 14.8076 19.6041L14.3664 20.0453C14.3379 20.0736 14.2995 20.0895 14.2594 20.0895C14.2193 20.0895 14.1808 20.0736 14.1524 20.0453L13.2743 19.1671C13.246 19.1387 13.2301 19.1002 13.2301 19.0601C13.2301 19.02 13.246 18.9816 13.2743 18.9531L13.7155 18.5119C13.431 18.0861 13.233 17.6084 13.1328 17.1061H12.5092C12.4691 17.1061 12.4307 17.0901 12.4023 17.0617C12.374 17.0334 12.358 16.9949 12.3579 16.9548V15.713C12.358 15.6729 12.374 15.6344 12.4023 15.6061C12.4307 15.5777 12.4691 15.5617 12.5092 15.5617H13.1328C13.233 15.0594 13.431 14.5818 13.7155 14.1559L13.2742 13.7147C13.2459 13.6862 13.23 13.6478 13.23 13.6077C13.23 13.5676 13.2459 13.5291 13.2742 13.5007L14.1524 12.6225C14.1808 12.5942 14.2193 12.5783 14.2594 12.5783C14.2995 12.5783 14.3379 12.5942 14.3664 12.6225L14.8076 13.0638C15.2334 12.7793 15.7111 12.5813 16.2133 12.4812V11.8575C16.2134 11.8174 16.2294 11.779 16.2578 11.7507C16.2862 11.7223 16.3246 11.7064 16.3647 11.7063Z" fill="#FFDA2D"/>
<path fill-rule="evenodd" clip-rule="evenodd" d="M17.3459 11.7063H17.6066C17.6467 11.7064 17.6851 11.7223 17.7135 11.7507C17.7419 11.7791 17.7578 11.8175 17.7579 11.8576V12.4812C17.6226 12.4385 17.4851 12.4032 17.3459 12.3755V11.7063H17.3459ZM15.9579 19.7498C15.3701 19.7498 14.8869 19.5354 14.3956 19.2075L13.9544 19.6487C13.933 19.6701 13.9057 19.6845 13.876 19.6902C13.8463 19.6959 13.8156 19.6927 13.7878 19.6808L14.1524 20.0454C14.1808 20.0737 14.2193 20.0896 14.2594 20.0896C14.2995 20.0896 14.338 20.0737 14.3664 20.0454L14.8076 19.6042C15.2335 19.8886 15.7112 20.0866 16.2134 20.1869V19.737C16.1285 19.7455 16.0432 19.7498 15.9579 19.7498ZM20.4606 15.5618H20.8384C20.738 15.0596 20.5401 14.582 20.2557 14.1561L20.697 13.7148C20.7253 13.6864 20.7412 13.6479 20.7412 13.6078C20.7412 13.5677 20.7253 13.5293 20.697 13.5008L19.8189 12.6227C19.8053 12.6091 19.7892 12.5982 19.7715 12.5907L20.285 13.1042C20.3133 13.1326 20.3292 13.1711 20.3292 13.2112C20.3292 13.2513 20.3133 13.2898 20.285 13.3182L19.8438 13.7594C20.2022 14.2962 20.4349 14.9143 20.4606 15.5618ZM21.2014 15.5618H21.462C21.5021 15.5619 21.5406 15.5778 21.5689 15.6062C21.5973 15.6346 21.6133 15.673 21.6133 15.7131V16.955C21.6133 16.9951 21.5973 17.0335 21.5689 17.0619C21.5406 17.0902 21.5021 17.1062 21.462 17.1063H20.8384C20.7382 17.6085 20.5402 18.0862 20.2558 18.512L20.697 18.9533C20.7253 18.9817 20.7412 19.0202 20.7412 19.0603C20.7412 19.1004 20.7253 19.1388 20.697 19.1673L19.8188 20.0454C19.7904 20.0737 19.7519 20.0896 19.7118 20.0896C19.6717 20.0896 19.6333 20.0737 19.6048 20.0454L19.2402 19.6807C19.268 19.6926 19.2987 19.6959 19.3284 19.6902C19.3581 19.6845 19.3854 19.67 19.4068 19.6487L20.285 18.7706C20.3133 18.7422 20.3292 18.7037 20.3292 18.6636C20.3292 18.6235 20.3133 18.585 20.285 18.5566L19.8438 18.1153C20.1283 17.6895 20.3262 17.2118 20.4264 16.7096H21.0501C21.0902 16.7095 21.1286 16.6935 21.157 16.6652C21.1853 16.6368 21.2013 16.5984 21.2014 16.5582V15.5618ZM19.1544 19.6103C18.7309 19.8915 18.2565 20.0874 17.7579 20.1869V20.8105C17.7578 20.8506 17.7419 20.889 17.7135 20.9174C17.6851 20.9458 17.6467 20.9617 17.6066 20.9618H16.3647C16.3246 20.9617 16.2862 20.9458 16.2578 20.9174C16.2294 20.889 16.2135 20.8506 16.2134 20.8105V20.5651H17.1946C17.2347 20.565 17.2732 20.5491 17.3015 20.5207C17.3299 20.4923 17.3459 20.4539 17.3459 20.4138V19.7902C17.8482 19.69 18.3258 19.4921 18.7517 19.2076L19.1544 19.6103ZM13.1328 17.1063H12.5092C12.4691 17.1062 12.4307 17.0902 12.4023 17.0619C12.374 17.0335 12.358 16.9951 12.3579 16.955V16.7096H13.0318C13.0586 16.8435 13.0923 16.9759 13.1328 17.1063ZM14.319 12.5906C14.3363 12.598 14.3524 12.6086 14.3664 12.6227L14.4049 12.6611L14.3956 12.6672L14.319 12.5906Z" fill="#FFC700"/>
<path d="M16.9856 18.6795C18.281 18.6795 19.3311 17.6294 19.3311 16.334C19.3311 15.0386 18.281 13.9885 16.9856 13.9885C15.6902 13.9885 14.6401 15.0386 14.6401 16.334C14.6401 17.6294 15.6902 18.6795 16.9856 18.6795Z" fill="#EFF4F7"/>
<path fill-rule="evenodd" clip-rule="evenodd" d="M16.9856 13.9885C17.7124 13.9885 18.3618 14.3191 18.792 14.838C18.3846 14.5281 17.8867 14.3607 17.3749 14.3614C16.0795 14.3614 15.0294 15.4115 15.0294 16.7069C15.0294 17.2755 15.2318 17.7969 15.5684 18.2029C15.0044 17.7746 14.6401 17.0969 14.6401 16.334C14.6401 15.0386 15.6902 13.9885 16.9856 13.9885Z" fill="#DEE8EE"/>
<path d="M17.0548 18.6855C18.3481 18.648 19.3662 17.5691 19.3287 16.2758C19.2911 14.9825 18.2123 13.9644 16.9189 14.0019C15.6256 14.0394 14.6076 15.1183 14.6451 16.4116C14.6826 17.705 15.7614 18.723 17.0548 18.6855Z" fill="#465759"/>
<path fill-rule="evenodd" clip-rule="evenodd" d="M18.4809 14.5283C18.9979 14.9579 19.3273 15.6057 19.3273 16.3304C19.3273 17.6238 18.2788 18.6722 16.9855 18.6722C16.2607 18.6722 15.6129 18.343 15.1833 17.8259C15.589 18.1629 16.1102 18.3656 16.6788 18.3656C17.9721 18.3656 19.0206 17.3171 19.0206 16.0238C19.0206 15.4552 18.8179 14.9339 18.4809 14.5283Z" fill="#3E4D4F"/>
<path fill-rule="evenodd" clip-rule="evenodd" d="M18.5094 18.1085C18.0998 18.4598 17.5675 18.6722 16.9855 18.6722C16.4035 18.6722 15.8712 18.4598 15.4617 18.1085C15.7589 17.5717 16.3316 17.2061 16.9855 17.2061C17.6395 17.2061 18.2122 17.5716 18.5094 18.1085Z" fill="#64B5F6"/>
<path fill-rule="evenodd" clip-rule="evenodd" d="M18.5093 18.1085C18.4183 18.1866 18.3213 18.2577 18.2194 18.321C17.9893 17.7285 17.4432 17.2906 16.7908 17.2171C16.8547 17.2099 16.9197 17.2061 16.9855 17.2061C17.6394 17.2061 18.2121 17.5717 18.5093 18.1085Z" fill="#42A5F5"/>
<path fill-rule="evenodd" clip-rule="evenodd" d="M15.4617 18.1085C15.4733 18.0875 15.4853 18.0668 15.4978 18.0463C15.8445 18.2492 16.2481 18.3656 16.6789 18.3656C17.2851 18.3656 17.8375 18.1353 18.2534 17.7573C18.3529 17.8633 18.4389 17.9813 18.5094 18.1085C18.0998 18.4599 17.5675 18.6723 16.9855 18.6723C16.4035 18.6723 15.8712 18.4599 15.4617 18.1085Z" fill="#42A5F5"/>
<path fill-rule="evenodd" clip-rule="evenodd" d="M18.5093 18.1085C18.4182 18.1867 18.3213 18.2577 18.2193 18.321C18.1676 18.188 18.0998 18.0619 18.0173 17.9454C18.0999 17.8878 18.1787 17.825 18.2532 17.7573C18.3528 17.8633 18.4388 17.9813 18.5093 18.1085Z" fill="#2D90F1"/>
<path d="M17.2023 17.0817C17.7077 16.9618 18.0203 16.4549 17.9005 15.9494C17.7806 15.444 17.2737 15.1314 16.7682 15.2512C16.2628 15.3711 15.9502 15.878 16.07 16.3835C16.1899 16.8889 16.6968 17.2015 17.2023 17.0817Z" fill="#FFD6BD"/>
<path fill-rule="evenodd" clip-rule="evenodd" d="M16.2288 16.7331C16.4001 16.9649 16.6753 17.1152 16.9857 17.1152C17.5051 17.1152 17.9262 16.6941 17.9262 16.1747C17.9262 15.8516 17.7633 15.5666 17.5152 15.3972C17.6348 15.5588 17.6992 15.7546 17.6989 15.9556C17.6989 16.4751 17.2778 16.8962 16.7583 16.8962C16.5694 16.8965 16.3848 16.8397 16.2288 16.7331Z" fill="#F9C6AA"/>
</svg>
