<svg width="20" height="16" viewBox="0 0 20 16" fill="none" xmlns="http://www.w3.org/2000/svg">
<path fill-rule="evenodd" clip-rule="evenodd" d="M15.3248 4.65867L16.1576 3.59449L16.1897 3.33058C16.2763 2.61879 17.0163 2.06236 17.5185 3.01237C17.7114 3.37735 17.6734 3.84969 17.3981 4.1609L16.1309 5.59297C15.6925 6.08841 15.0912 6.27572 14.4695 6.11045L12.0606 5.47003L12.4775 3.36718L15.3248 4.65867ZM10.0453 8.7948L7.99646 7.2072L0.651367 15.7834C2.4071 15.171 8.29016 10.0162 10.0453 8.7948Z" fill="#4187B5"/>
<path fill-rule="evenodd" clip-rule="evenodd" d="M15.9406 10.6122L13.5252 13.8663H11.5664L13.9817 10.6122L11.5664 7.35815H13.5252L15.9406 10.6122Z" fill="#FA6E85"/>
<path fill-rule="evenodd" clip-rule="evenodd" d="M8.88075 14.3711L10.0634 10.2034L7.42087 9.13573C6.89379 8.80964 6.52508 8.40229 6.33315 7.90421C6.10219 7.30506 6.34573 6.59253 6.90154 6.2411L10.8401 3.75087L10.0288 1.83371L8.45223 1.49152C8.35226 1.46983 7.94764 1.73312 7.61408 1.73739C7.09369 1.74403 6.60216 1.46252 6.59042 1.15892C6.57123 0.66071 7.02509 0.15757 7.48912 0.22247L10.8222 0.688738C11.4697 0.779334 12.9388 3.30819 13.1535 3.94821C13.3843 4.63611 12.7161 5.64419 11.8694 6.09788L9.66544 7.27893C10.0379 7.72135 12.3882 10.1778 12.2475 10.3459L8.88075 14.3711Z" fill="#60B7FE"/>
<path fill-rule="evenodd" clip-rule="evenodd" d="M14.3636 1.06376C15.0422 1.3378 15.3603 2.12738 15.0742 2.82728C14.788 3.52724 14.006 3.8725 13.3274 3.59847C12.6488 3.32444 12.3307 2.5349 12.6169 1.83491C12.9029 1.13496 13.685 0.789733 14.3636 1.06376Z" fill="#F0B16E"/>
<path fill-rule="evenodd" clip-rule="evenodd" d="M19.3497 10.6122L16.9344 13.8663H14.9756L17.3909 10.6122L14.9756 7.35815H16.9344L19.3497 10.6122Z" fill="#FFBF31"/>
</svg>
