<svg width="22" height="22" viewBox="0 0 22 22" fill="none" xmlns="http://www.w3.org/2000/svg">
<path d="M18.5625 2.40625V19.5938C18.5625 19.8673 18.4538 20.1296 18.2605 20.323C18.0671 20.5163 17.8048 20.625 17.5312 20.625H6.53125C6.25775 20.625 5.99544 20.5163 5.80205 20.323C5.60865 20.1296 5.5 19.8673 5.5 19.5938V2.40625C5.5 2.13275 5.60865 1.87044 5.80205 1.67705C5.99544 1.48365 6.25775 1.375 6.53125 1.375H17.5312C17.8048 1.375 18.0671 1.48365 18.2605 1.67705C18.4538 1.87044 18.5625 2.13275 18.5625 2.40625Z" fill="#234470"/>
<path d="M18.2188 19.9375H7.21875C6.94525 19.9375 6.68294 19.8288 6.48955 19.6354C6.29615 19.442 6.1875 19.1797 6.1875 18.9062V1.71874C6.18838 1.61746 6.20342 1.51679 6.23219 1.41968C6.02047 1.48383 5.83499 1.61438 5.70314 1.79202C5.5713 1.96967 5.50008 2.18501 5.5 2.40624V19.5937C5.5 19.8672 5.60865 20.1295 5.80205 20.3229C5.99544 20.5163 6.25775 20.625 6.53125 20.625H17.5312C17.7525 20.6249 17.9678 20.5537 18.1455 20.4218C18.3231 20.29 18.4537 20.1045 18.5178 19.8928C18.4207 19.9216 18.32 19.9366 18.2188 19.9375Z" fill="#173052"/>
<path d="M19.25 19.25H5.15625C5.08187 19.25 5.0095 19.2259 4.95 19.1812L3.575 18.15C3.53231 18.118 3.49766 18.0765 3.47379 18.0287C3.44992 17.981 3.4375 17.9284 3.4375 17.875C3.4375 17.8216 3.44992 17.769 3.47379 17.7213C3.49766 17.6735 3.53231 17.632 3.575 17.6L4.95 16.5688C5.0095 16.5241 5.08187 16.5 5.15625 16.5H19.25V19.25Z" fill="#FEBF4F"/>
<path d="M5.15625 18.5625C5.08187 18.5625 5.0095 18.5384 4.95 18.4937L3.66781 17.5312L3.575 17.6C3.53231 17.632 3.49766 17.6735 3.47379 17.7213C3.44992 17.769 3.4375 17.8216 3.4375 17.875C3.4375 17.9284 3.44992 17.981 3.47379 18.0287C3.49766 18.0765 3.53231 18.118 3.575 18.15L4.95 19.1812C5.0095 19.2259 5.08187 19.25 5.15625 19.25H19.25V18.5625H5.15625Z" fill="#F2A241"/>
<path d="M14.2278 4.09747L13.9597 3.46497L16.366 2.43372L16.6341 3.06622L14.2278 4.09747ZM17.1875 4.81247H14.4375V5.49997H17.1875V4.81247ZM16.6341 7.24622L14.2278 6.21497L13.9597 6.84747L16.366 7.87872L16.6341 7.24622Z" fill="#EBF1F6"/>
<path d="M10.3125 9.96875V14.7812C10.3125 15.0548 10.2039 15.3171 10.0105 15.5105C9.81706 15.7039 9.55475 15.8125 9.28125 15.8125H2.40625C2.13275 15.8125 1.87044 15.7039 1.67705 15.5105C1.48365 15.3171 1.375 15.0548 1.375 14.7812V9.96875C1.375 9.69525 1.48365 9.43294 1.67705 9.23955C1.87044 9.04615 2.13275 8.9375 2.40625 8.9375H9.28125C9.55475 8.9375 9.81706 9.04615 10.0105 9.23955C10.2039 9.43294 10.3125 9.69525 10.3125 9.96875Z" fill="#E62242"/>
<path d="M9.96875 15.125H3.09375C2.82025 15.125 2.55794 15.0163 2.36455 14.8229C2.17115 14.6295 2.0625 14.3672 2.0625 14.0937V9.28124C2.06338 9.17996 2.07842 9.07929 2.10719 8.98218C1.89547 9.04633 1.70999 9.17688 1.57814 9.35452C1.4463 9.53217 1.37508 9.74751 1.375 9.96874V14.7812C1.375 15.0547 1.48365 15.317 1.67705 15.5104C1.87044 15.7038 2.13275 15.8125 2.40625 15.8125H9.28125C9.50248 15.8124 9.71782 15.7412 9.89547 15.6093C10.0731 15.4775 10.2037 15.292 10.2678 15.0803C10.1707 15.1091 10.07 15.1241 9.96875 15.125Z" fill="#CA1600"/>
<path d="M7.21875 11.6876C7.21856 11.751 7.20079 11.8132 7.16742 11.8672C7.13405 11.9212 7.08638 11.9649 7.02969 11.9935L4.96719 13.0247C4.9193 13.0493 4.86631 13.0622 4.8125 13.0626C4.74814 13.0628 4.68502 13.0449 4.63031 13.011C4.58077 12.98 4.53994 12.937 4.51167 12.8858C4.48341 12.8347 4.46863 12.7772 4.46875 12.7188V10.6563C4.46893 10.5977 4.48408 10.5401 4.51277 10.489C4.54146 10.4379 4.58274 10.395 4.63268 10.3644C4.68262 10.3337 4.73957 10.3164 4.79811 10.3139C4.85666 10.3114 4.91486 10.324 4.96719 10.3504L7.02969 11.3816C7.08638 11.4102 7.13405 11.4539 7.16742 11.5079C7.20079 11.5619 7.21856 11.6241 7.21875 11.6876ZM7.5625 14.4376H2.75V13.7501H7.5625V14.4376ZM8.9375 13.7501H8.25V14.4376H8.9375V13.7501ZM17.1875 12.7188H11V12.0313H17.1875V12.7188ZM17.1875 13.4063H11V14.0938H17.1875V13.4063ZM11.6875 14.7813H11V15.4688H11.6875V14.7813ZM13.0625 14.7813H12.375V15.4688H13.0625V14.7813ZM14.4375 14.7813H13.75V15.4688H14.4375V14.7813ZM15.8125 14.7813H15.125V15.4688H15.8125V14.7813ZM17.1875 14.7813H16.5V15.4688H17.1875V14.7813Z" fill="#EBF1F6"/>
<path d="M17.1875 9.625V11C17.1875 11.0912 17.1513 11.1786 17.0868 11.2431C17.0224 11.3075 16.9349 11.3438 16.8438 11.3438H11.3438C11.2526 11.3438 11.1651 11.3075 11.1007 11.2431C11.0362 11.1786 11 11.0912 11 11V9.625C11 9.53383 11.0362 9.4464 11.1007 9.38193C11.1651 9.31747 11.2526 9.28125 11.3438 9.28125H16.8438C16.9349 9.28125 17.0224 9.31747 17.0868 9.38193C17.1513 9.4464 17.1875 9.53383 17.1875 9.625Z" fill="#FEBF4F"/>
<path d="M9.96875 6.1875V7.21875C9.96875 7.49225 9.8601 7.75456 9.6667 7.94795C9.47331 8.14135 9.211 8.25 8.9375 8.25C8.664 8.25 8.40169 8.14135 8.2083 7.94795C8.0149 7.75456 7.90625 7.49225 7.90625 7.21875V6.1875C7.90625 6.09633 7.94247 6.0089 8.00693 5.94443C8.0714 5.87997 8.15883 5.84375 8.25 5.84375H9.625C9.71617 5.84375 9.8036 5.87997 9.86807 5.94443C9.93253 6.0089 9.96875 6.09633 9.96875 6.1875Z" fill="#EBF1F6"/>
<path d="M9.8175 7.755C9.70035 7.94674 9.52378 8.09498 9.31464 8.17715C9.10551 8.25933 8.87526 8.27095 8.65891 8.21025C8.44257 8.14955 8.25197 8.01985 8.11611 7.84087C7.98025 7.6619 7.90656 7.44345 7.90625 7.21875V6.1875C7.90625 6.09633 7.94247 6.0089 8.00693 5.94443C8.0714 5.87997 8.15883 5.84375 8.25 5.84375V6.875C8.25015 7.05798 8.29899 7.23763 8.3915 7.3955C8.48401 7.55338 8.61686 7.6838 8.77642 7.77337C8.93597 7.86295 9.11649 7.90846 9.29945 7.90523C9.4824 7.902 9.6612 7.85015 9.8175 7.755Z" fill="#D6E0EB"/>
<path d="M8.9375 4.46875V5.84375C8.9375 5.93492 8.90128 6.02235 8.83682 6.08682C8.77235 6.15128 8.68492 6.1875 8.59375 6.1875H7.90625C7.63275 6.1875 7.37044 6.07885 7.17705 5.88545C6.98365 5.69206 6.875 5.42975 6.875 5.15625C6.875 4.88275 6.98365 4.62044 7.17705 4.42705C7.37044 4.23365 7.63275 4.125 7.90625 4.125H8.59375C8.68492 4.125 8.77235 4.16122 8.83682 4.22568C8.90128 4.29015 8.9375 4.37758 8.9375 4.46875Z" fill="#EBF1F6"/>
<path d="M8.93756 4.46875H8.25006C8.06708 4.4689 7.88743 4.51774 7.72955 4.61025C7.57168 4.70276 7.44126 4.83561 7.35168 4.99517C7.26211 5.15472 7.2166 5.33524 7.21983 5.5182C7.22306 5.70115 7.27491 5.87995 7.37006 6.03625C7.17831 5.9191 7.03008 5.74253 6.9479 5.53339C6.86573 5.32426 6.85411 5.09401 6.91481 4.87766C6.97551 4.66132 7.10521 4.47072 7.28418 4.33486C7.46316 4.19899 7.68161 4.12531 7.90631 4.125H8.59381C8.68498 4.125 8.77241 4.16122 8.83688 4.22568C8.90134 4.29015 8.93756 4.37758 8.93756 4.46875Z" fill="#D6E0EB"/>
<path d="M13.0625 3.09371V7.21871C13.0622 7.27533 13.0479 7.331 13.0209 7.38078C12.994 7.43055 12.9551 7.47289 12.9078 7.50403C12.8519 7.54162 12.7861 7.56194 12.7188 7.56246C12.6727 7.56238 12.6271 7.55302 12.5847 7.53496L10.2437 6.53121H7.90625V4.12496C7.90625 4.0338 7.94247 3.94636 8.00693 3.8819C8.0714 3.81743 8.15883 3.78121 8.25 3.78121H10.2437L12.5847 2.77746C12.6369 2.75534 12.6938 2.74648 12.7503 2.7517C12.8068 2.75691 12.8612 2.77603 12.9085 2.80734C12.9558 2.83866 12.9946 2.8812 13.0215 2.93117C13.0484 2.98113 13.0625 3.03698 13.0625 3.09371Z" fill="#E62242"/>
<path d="M13.0625 6.75812V7.21875C13.0622 7.27537 13.0479 7.33104 13.0209 7.38081C12.994 7.43059 12.9551 7.47292 12.9078 7.50406C12.8519 7.54165 12.7861 7.56197 12.7188 7.5625C12.6727 7.56241 12.6271 7.55306 12.5847 7.535L10.2437 6.53125H7.90625V4.125C7.90625 4.03383 7.94247 3.9464 8.00693 3.88193C8.0714 3.81747 8.15883 3.78125 8.25 3.78125H8.59375V5.5C8.59375 5.59117 8.62997 5.6786 8.69443 5.74307C8.7589 5.80753 8.84633 5.84375 8.9375 5.84375H10.9312L13.0625 6.75812Z" fill="#CA1600"/>
<path d="M20.625 16.8438V18.9062C20.625 18.9974 20.5888 19.0849 20.5243 19.1493C20.4599 19.2138 20.3724 19.25 20.2812 19.25H18.5625V16.5H20.2812C20.3724 16.5 20.4599 16.5362 20.5243 16.6007C20.5888 16.6651 20.625 16.7526 20.625 16.8438Z" fill="#9F4B15"/>
<path d="M20.2812 18.5625H18.5625V19.25H20.2812C20.3724 19.25 20.4599 19.2138 20.5243 19.1493C20.5888 19.0849 20.625 18.9974 20.625 18.9062V18.2188C20.625 18.3099 20.5888 18.3974 20.5243 18.4618C20.4599 18.5263 20.3724 18.5625 20.2812 18.5625Z" fill="#993300"/>
</svg>
