<svg width="24" height="25" viewBox="0 0 24 25" fill="none" xmlns="http://www.w3.org/2000/svg">
<path d="M21 6.57129C17.67 6.24129 14.32 6.07129 10.98 6.07129C9 6.07129 7.02 6.17129 5.04 6.37129L3 6.57129" stroke="#898989" stroke-linecap="round" stroke-linejoin="round"/>
<path d="M8.5 5.56131L8.72 4.25131C8.88 3.30131 9 2.59131 10.69 2.59131H13.31C15 2.59131 15.13 3.34131 15.28 4.26131L15.5 5.56131" stroke="#898989" stroke-linecap="round" stroke-linejoin="round"/>
<path d="M18.8499 9.73145L18.1999 19.8014C18.0899 21.3714 17.9999 22.5914 15.2099 22.5914H8.7899C5.9999 22.5914 5.9099 21.3714 5.7999 19.8014L5.1499 9.73145" stroke="#898989" stroke-linecap="round" stroke-linejoin="round"/>
<path d="M10.3301 17.0913H13.6601" stroke="#898989" stroke-linecap="round" stroke-linejoin="round"/>
<path d="M9.5 13.0913H14.5" stroke="#898989" stroke-linecap="round" stroke-linejoin="round"/>
</svg>
