<svg width="19" height="18" viewBox="0 0 19 18" fill="none" xmlns="http://www.w3.org/2000/svg">
<path d="M9.8975 15.3151H5.1575C2.7875 15.3151 2 13.7401 2 12.1576V5.84256C2 3.47256 2.7875 2.68506 5.1575 2.68506H9.8975C12.2675 2.68506 13.055 3.47256 13.055 5.84256V12.1576C13.055 14.5276 12.26 15.3151 9.8975 15.3151Z" stroke="#898989" stroke-linecap="round" stroke-linejoin="round"/>
<path d="M15.1397 12.825L13.0547 11.3625V6.62998L15.1397 5.16748C16.1597 4.45498 16.9997 4.88998 16.9997 6.14248V11.8575C16.9997 13.11 16.1597 13.545 15.1397 12.825Z" stroke="#898989" stroke-linecap="round" stroke-linejoin="round"/>
<path d="M9.125 8.25C9.74632 8.25 10.25 7.74632 10.25 7.125C10.25 6.50368 9.74632 6 9.125 6C8.50368 6 8 6.50368 8 7.125C8 7.74632 8.50368 8.25 9.125 8.25Z" stroke="#898989" stroke-linecap="round" stroke-linejoin="round"/>
</svg>
