<svg width="18" height="18" viewBox="0 0 18 18" fill="none" xmlns="http://www.w3.org/2000/svg">
<g clip-path="url(#clip0_2392_28604)">
<path d="M15.6053 3.21747C15.5356 3.14779 15.4529 3.09251 15.3618 3.0548C15.2708 3.01709 15.1732 2.99768 15.0746 2.99768C14.9761 2.99768 14.8785 3.01709 14.7875 3.0548C14.6964 3.09251 14.6137 3.14779 14.544 3.21747C14.4743 3.28716 14.4191 3.36988 14.3813 3.46093C14.3436 3.55197 14.3242 3.64955 14.3242 3.7481C14.3242 3.84664 14.3436 3.94423 14.3813 4.03527C14.4191 4.12631 14.4743 4.20904 14.544 4.27872C15.7942 5.5319 16.4964 7.2298 16.4964 8.99997C16.4964 10.7701 15.7942 12.468 14.544 13.7212C14.4033 13.862 14.3242 14.0528 14.3242 14.2518C14.3242 14.4509 14.4033 14.6417 14.544 14.7825C14.6847 14.9232 14.8756 15.0023 15.0746 15.0023C15.2737 15.0023 15.4645 14.9232 15.6053 14.7825C17.1366 13.2477 17.9966 11.1681 17.9966 8.99997C17.9966 6.83187 17.1366 4.75229 15.6053 3.21747Z" fill="#3C82F6"/>
<path d="M13.575 5.46827C13.5053 5.39834 13.4225 5.34282 13.3314 5.30488C13.2403 5.26695 13.1425 5.24733 13.0438 5.24715C12.9451 5.24698 12.8473 5.26625 12.756 5.30387C12.6648 5.34149 12.5818 5.39671 12.5119 5.4664C12.4419 5.53608 12.3864 5.61885 12.3485 5.70999C12.3105 5.80113 12.2909 5.89885 12.2908 5.99757C12.2906 6.09629 12.3099 6.19408 12.3475 6.28535C12.3851 6.37662 12.4403 6.45959 12.51 6.52952C13.1646 7.18509 13.5322 8.07362 13.5322 9.00002C13.5322 9.92642 13.1646 10.815 12.51 11.4705C12.4403 11.5405 12.3851 11.6234 12.3475 11.7147C12.3099 11.806 12.2906 11.9038 12.2908 12.0025C12.2909 12.1012 12.3105 12.1989 12.3485 12.2901C12.3864 12.3812 12.4419 12.464 12.5119 12.5336C12.6531 12.6744 12.8445 12.7532 13.0438 12.7529C13.1425 12.7527 13.2403 12.7331 13.3314 12.6952C13.4225 12.6572 13.5053 12.6017 13.575 12.5318C14.5105 11.5945 15.0359 10.3243 15.0359 9.00002C15.0359 7.67575 14.5105 6.40558 13.575 5.46827ZM10.365 0.150022C8.08448 0.578473 6.05601 1.86741 4.6995 3.75002H3.75C2.75593 3.75161 1.80302 4.14721 1.1001 4.85012C0.397184 5.55304 0.00158671 6.50595 0 7.50002L0 10.5C0.00158671 11.4941 0.397184 12.447 1.1001 13.1499C1.80302 13.8528 2.75593 14.2484 3.75 14.25H4.6995C6.05628 16.1323 8.08462 17.4212 10.365 17.85C10.4097 17.8588 10.4552 17.863 10.5008 17.8628C10.6997 17.8628 10.8904 17.7838 11.0311 17.6431C11.1717 17.5024 11.2508 17.3117 11.2508 17.1128V0.889522C11.251 0.779373 11.227 0.670515 11.1805 0.570684C11.1339 0.470854 11.066 0.382502 10.9814 0.311908C10.8969 0.241315 10.7978 0.190212 10.6913 0.162233C10.5847 0.134254 10.4733 0.130085 10.365 0.150022ZM9.75 16.1513C8.09579 15.6239 6.67341 14.5435 5.72175 13.0913C5.65375 12.9867 5.56074 12.9007 5.45112 12.8411C5.34151 12.7815 5.21876 12.7502 5.094 12.75H3.75C3.15326 12.75 2.58097 12.513 2.15901 12.091C1.73705 11.6691 1.5 11.0968 1.5 10.5V7.50002C1.5 6.90329 1.73705 6.33099 2.15901 5.90903C2.58097 5.48708 3.15326 5.25002 3.75 5.25002H5.1C5.22463 5.25001 5.34728 5.21893 5.45688 5.15962C5.56649 5.1003 5.65958 5.0146 5.72775 4.91027C6.67747 3.45845 8.09766 2.37748 9.75 1.84877V16.1513Z" fill="#3C82F6"/>
</g>
<defs>
<clipPath id="clip0_2392_28604">
<rect width="18" height="18" fill="white"/>
</clipPath>
</defs>
</svg>
