<svg width="20" height="20" viewBox="0 0 20 20" fill="none" xmlns="http://www.w3.org/2000/svg">
<path d="M11.8844 13.3317H7.71777" stroke="#3C82F6" stroke-width="1.5" stroke-miterlimit="10" stroke-linecap="round" stroke-linejoin="round"/>
<path d="M10.5505 2.09841L10.5255 2.15674L8.10879 7.76507H5.73379C5.16712 7.76507 4.62546 7.88174 4.13379 8.09007L5.59212 4.60674L5.62546 4.52341L5.68379 4.39007C5.70046 4.34007 5.71712 4.29007 5.74212 4.24841C6.83379 1.72341 8.06712 1.14841 10.5505 2.09841Z" stroke="#3C82F6" stroke-width="1.5" stroke-linecap="round" stroke-linejoin="round"/>
<path d="M15.0417 7.93172C14.6667 7.81506 14.2667 7.76506 13.8667 7.76506H8.1084L10.5251 2.15672L10.5501 2.09839C10.6751 2.14006 10.7917 2.19839 10.9167 2.24839L12.7584 3.02339C13.7834 3.44839 14.5001 3.89006 14.9334 4.42339C15.0167 4.52339 15.0834 4.61506 15.1417 4.72339C15.2167 4.84006 15.2751 4.95672 15.3084 5.08172C15.3417 5.15672 15.3667 5.23172 15.3834 5.29839C15.6084 5.99839 15.4751 6.85672 15.0417 7.93172Z" stroke="#3C82F6" stroke-width="1.5" stroke-linecap="round" stroke-linejoin="round"/>
<path d="M17.9351 11.8319V13.4569C17.9351 13.6236 17.9268 13.7903 17.9184 13.9569C17.7601 16.8653 16.1351 18.3319 13.0518 18.3319H6.55176C6.35176 18.3319 6.15176 18.3153 5.96009 18.2903C3.31009 18.1153 1.89342 16.6986 1.71842 14.0486C1.69342 13.8569 1.67676 13.6569 1.67676 13.4569V11.8319C1.67676 10.1569 2.69342 8.71526 4.14342 8.09026C4.64342 7.88193 5.17676 7.76526 5.74342 7.76526H13.8768C14.2851 7.76526 14.6851 7.82359 15.0518 7.93193C16.7101 8.44026 17.9351 9.99026 17.9351 11.8319Z" stroke="#3C82F6" stroke-width="1.5" stroke-linecap="round" stroke-linejoin="round"/>
<path d="M5.59199 4.60681L4.13366 8.09014C2.68366 8.71514 1.66699 10.1568 1.66699 11.8318V9.39015C1.66699 7.02348 3.35033 5.04848 5.59199 4.60681Z" stroke="#3C82F6" stroke-width="1.5" stroke-linecap="round" stroke-linejoin="round"/>
<path d="M17.9322 9.38975V11.8314C17.9322 9.99809 16.7155 8.43975 15.0488 7.93975C15.4822 6.85642 15.6072 6.00642 15.3988 5.29809C15.3822 5.22309 15.3572 5.14809 15.3238 5.08142C16.8738 5.88142 17.9322 7.52309 17.9322 9.38975Z" stroke="#3C82F6" stroke-width="1.5" stroke-linecap="round" stroke-linejoin="round"/>
</svg>
