<svg width="16" height="17" viewBox="0 0 16 17" fill="none" xmlns="http://www.w3.org/2000/svg">
<path d="M8.00065 15.1666C11.6825 15.1666 14.6673 12.1819 14.6673 8.49998C14.6673 4.81808 11.6825 1.83331 8.00065 1.83331C4.31875 1.83331 1.33398 4.81808 1.33398 8.49998C1.33398 12.1819 4.31875 15.1666 8.00065 15.1666Z" stroke="#898989" stroke-width="1.25" stroke-linecap="round" stroke-linejoin="round"/>
<path d="M5.33372 2.5H6.00039C4.70039 6.39333 4.70039 10.6067 6.00039 14.5H5.33372" stroke="#898989" stroke-width="1.25" stroke-linecap="round" stroke-linejoin="round"/>
<path d="M10 2.5C11.3 6.39333 11.3 10.6067 10 14.5" stroke="#898989" stroke-width="1.25" stroke-linecap="round" stroke-linejoin="round"/>
<path d="M2.00195 11.1667V10.5C5.89529 11.8 10.1086 11.8 14.002 10.5V11.1667" stroke="#898989" stroke-width="1.25" stroke-linecap="round" stroke-linejoin="round"/>
<path d="M2.00195 6.50002C5.89529 5.20002 10.1086 5.20002 14.002 6.50002" stroke="#898989" stroke-width="1.25" stroke-linecap="round" stroke-linejoin="round"/>
</svg>
