<svg xmlns="http://www.w3.org/2000/svg" width="1600" height="900" viewBox="0 0 1600 900">
  <defs>
    <linearGradient id="bg" x1="0" y1="0" x2="0" y2="1">
      <stop offset="0%" stop-color="#f3f4f6"/>
      <stop offset="100%" stop-color="#dbe4ea"/>
    </linearGradient>
    <filter id="shadow" x="-50%" y="-50%" width="200%" height="200%">
      <feDropShadow dx="0" dy="2" stdDeviation="4" flood-color="#00000044"/>
    </filter>
  </defs>

  <rect width="1600" height="900" fill="url(#bg)"/>
  <rect x="130" y="120" width="280" height="150" rx="34" fill="#bbd7a5" opacity="0.5"/>
  <rect x="1140" y="120" width="300" height="170" rx="34" fill="#bbd7a5" opacity="0.5"/>
  <rect x="220" y="590" width="360" height="180" rx="40" fill="#bbd7a5" opacity="0.45"/>
  <rect x="980" y="510" width="410" height="240" rx="40" fill="#9fc8e8" opacity="0.48"/>

  <path d="M 90 160 L 1510 250" stroke="#9ca3af" stroke-width="18" stroke-linecap="round" opacity="0.55"/>
  <path d="M 70 410 L 1540 520" stroke="#9ca3af" stroke-width="18" stroke-linecap="round" opacity="0.55"/>
  <path d="M 180 790 L 1460 690" stroke="#9ca3af" stroke-width="18" stroke-linecap="round" opacity="0.55"/>
  <path d="M 310 90 L 250 830" stroke="#9ca3af" stroke-width="18" stroke-linecap="round" opacity="0.55"/>
  <path d="M 860 80 L 810 840" stroke="#9ca3af" stroke-width="18" stroke-linecap="round" opacity="0.55"/>
  <path d="M 1270 120 L 1200 810" stroke="#9ca3af" stroke-width="18" stroke-linecap="round" opacity="0.55"/>

  <path d="M 90 160 L 1510 250" stroke="#f8fafc" stroke-width="3" stroke-dasharray="10 12" stroke-linecap="round" opacity="0.7"/>
  <path d="M 70 410 L 1540 520" stroke="#f8fafc" stroke-width="3" stroke-dasharray="10 12" stroke-linecap="round" opacity="0.7"/>
  <path d="M 180 790 L 1460 690" stroke="#f8fafc" stroke-width="3" stroke-dasharray="10 12" stroke-linecap="round" opacity="0.7"/>
  <path d="M 310 90 L 250 830" stroke="#f8fafc" stroke-width="3" stroke-dasharray="10 12" stroke-linecap="round" opacity="0.7"/>
  <path d="M 860 80 L 810 840" stroke="#f8fafc" stroke-width="3" stroke-dasharray="10 12" stroke-linecap="round" opacity="0.7"/>
  <path d="M 1270 120 L 1200 810" stroke="#f8fafc" stroke-width="3" stroke-dasharray="10 12" stroke-linecap="round" opacity="0.7"/>

  <polyline points="230,690 360,590 520,500 700,440 930,410 1130,450 1270,540 1330,650 1300,760 1160,810 960,820 760,790 560,720 390,650 260,700 230,690" fill="none" stroke="#0f172a" stroke-width="22" stroke-linejoin="round" stroke-linecap="round" opacity="0.95"/>
  <polyline points="230,690 360,590 520,500 700,440 930,410 1130,450 1270,540 1330,650 1300,760 1160,810 960,820 760,790 560,720 390,650 260,700 230,690" fill="none" stroke="#2563eb" stroke-width="12" stroke-linejoin="round" stroke-linecap="round"/>
  <polyline points="230,690 360,590 520,500 700,440 930,410 1130,450 1270,540 1330,650 1300,760 1160,810 960,820 760,790 560,720 390,650 260,700 230,690" fill="none" stroke="#60a5fa" stroke-width="5" stroke-linejoin="round" stroke-linecap="round" stroke-dasharray="18 14" opacity="0.95"/>

  <g fill="#0f172a" font-family="Arial, sans-serif" font-size="20" font-weight="700">
    <circle cx="230" cy="690" r="12" fill="#0f172a" stroke="#f8fafc" stroke-width="4"/><circle cx="230" cy="690" r="5" fill="#38bdf8"/><rect x="244" y="646" rx="10" ry="10" width="190" height="34" fill="#0f172acc" stroke="#334155" stroke-width="1.5"/><text x="258" y="668" fill="#e2e8f0">Start line</text>
    <circle cx="640" cy="460" r="12" fill="#0f172a" stroke="#f8fafc" stroke-width="4"/><circle cx="640" cy="460" r="5" fill="#38bdf8"/><rect x="654" y="416" rx="10" ry="10" width="190" height="34" fill="#0f172acc" stroke="#334155" stroke-width="1.5"/><text x="668" y="438" fill="#e2e8f0">5km</text>
    <circle cx="1080" cy="440" r="12" fill="#0f172a" stroke="#f8fafc" stroke-width="4"/><circle cx="1080" cy="440" r="5" fill="#38bdf8"/><rect x="1094" y="396" rx="10" ry="10" width="190" height="34" fill="#0f172acc" stroke="#334155" stroke-width="1.5"/><text x="1108" y="418" fill="#e2e8f0">10km</text>
    <circle cx="1215" cy="790" r="12" fill="#0f172a" stroke="#f8fafc" stroke-width="4"/><circle cx="1215" cy="790" r="5" fill="#38bdf8"/><rect x="1229" y="746" rx="10" ry="10" width="190" height="34" fill="#0f172acc" stroke="#334155" stroke-width="1.5"/><text x="1243" y="768" fill="#e2e8f0">15km</text>
    <circle cx="560" cy="720" r="12" fill="#0f172a" stroke="#f8fafc" stroke-width="4"/><circle cx="560" cy="720" r="5" fill="#38bdf8"/><rect x="574" y="676" rx="10" ry="10" width="190" height="34" fill="#0f172acc" stroke="#334155" stroke-width="1.5"/><text x="588" y="698" fill="#e2e8f0">20km</text>
    <circle cx="230" cy="690" r="12" fill="#0f172a" stroke="#f8fafc" stroke-width="4"/><circle cx="230" cy="690" r="5" fill="#38bdf8"/><rect x="244" y="706" rx="10" ry="10" width="190" height="34" fill="#0f172acc" stroke="#334155" stroke-width="1.5"/><text x="258" y="728" fill="#e2e8f0">Finish line</text>
  </g>

  <g filter="url(#shadow)">
    <rect x="48" y="36" width="490" height="120" rx="20" fill="#0b1220d9" stroke="#334155" stroke-width="2"/>
  </g>
  <text x="74" y="92" font-size="40" fill="#f8fafc" font-family="Arial, sans-serif" font-weight="800">Road Run 20K Course</text>
  <text x="74" y="130" font-size="24" fill="#cbd5e1" font-family="Arial, sans-serif">Checkpoint tags: Start line, 5km, 10km, 15km, 20km, Finish line</text>
</svg>
