<svg xmlns="http://www.w3.org/2000/svg" width="1600" height="900" viewBox="0 0 1600 900">
  <defs>
    <linearGradient id="bg" x1="0" y1="0" x2="0" y2="1">
      <stop offset="0%" stop-color="#ecfeff"/>
      <stop offset="100%" stop-color="#dbeafe"/>
    </linearGradient>
    <filter id="shadow" x="-50%" y="-50%" width="200%" height="200%">
      <feDropShadow dx="0" dy="2" stdDeviation="4" flood-color="#00000044"/>
    </filter>
  </defs>

  <rect width="1600" height="900" fill="url(#bg)"/>
  <rect x="140" y="110" width="300" height="180" rx="38" fill="#bfdbfe" opacity="0.44"/>
  <rect x="1160" y="120" width="280" height="170" rx="36" fill="#bbf7d0" opacity="0.4"/>
  <rect x="170" y="560" width="360" height="220" rx="40" fill="#d9f99d" opacity="0.36"/>
  <rect x="1020" y="500" width="350" height="240" rx="42" fill="#c7d2fe" opacity="0.42"/>

  <path d="M 110 160 L 1510 240" stroke="#9ca3af" stroke-width="18" stroke-linecap="round" opacity="0.52"/>
  <path d="M 90 410 L 1530 500" stroke="#9ca3af" stroke-width="18" stroke-linecap="round" opacity="0.52"/>
  <path d="M 160 760 L 1460 700" stroke="#9ca3af" stroke-width="18" stroke-linecap="round" opacity="0.52"/>
  <path d="M 300 100 L 250 830" stroke="#9ca3af" stroke-width="18" stroke-linecap="round" opacity="0.52"/>
  <path d="M 860 90 L 820 840" stroke="#9ca3af" stroke-width="18" stroke-linecap="round" opacity="0.52"/>
  <path d="M 1260 120 L 1210 820" stroke="#9ca3af" stroke-width="18" stroke-linecap="round" opacity="0.52"/>

  <path d="M 110 160 L 1510 240" stroke="#f8fafc" stroke-width="3" stroke-dasharray="10 12" stroke-linecap="round" opacity="0.72"/>
  <path d="M 90 410 L 1530 500" stroke="#f8fafc" stroke-width="3" stroke-dasharray="10 12" stroke-linecap="round" opacity="0.72"/>
  <path d="M 160 760 L 1460 700" stroke="#f8fafc" stroke-width="3" stroke-dasharray="10 12" stroke-linecap="round" opacity="0.72"/>
  <path d="M 300 100 L 250 830" stroke="#f8fafc" stroke-width="3" stroke-dasharray="10 12" stroke-linecap="round" opacity="0.72"/>
  <path d="M 860 90 L 820 840" stroke="#f8fafc" stroke-width="3" stroke-dasharray="10 12" stroke-linecap="round" opacity="0.72"/>
  <path d="M 1260 120 L 1210 820" stroke="#f8fafc" stroke-width="3" stroke-dasharray="10 12" stroke-linecap="round" opacity="0.72"/>

  <polyline points="200,700 320,600 470,530 640,470 830,430 1040,440 1180,500 1280,590 1340,700 1310,810 1180,860 980,845 820,805 660,745 520,670 390,620 280,650 200,700" fill="none" stroke="#0f172a" stroke-width="22" stroke-linejoin="round" stroke-linecap="round" opacity="0.95"/>
  <polyline points="200,700 320,600 470,530 640,470 830,430 1040,440 1180,500 1280,590 1340,700 1310,810 1180,860 980,845 820,805 660,745 520,670 390,620 280,650 200,700" fill="none" stroke="#0ea5e9" stroke-width="12" stroke-linejoin="round" stroke-linecap="round"/>
  <polyline points="200,700 320,600 470,530 640,470 830,430 1040,440 1180,500 1280,590 1340,700 1310,810 1180,860 980,845 820,805 660,745 520,670 390,620 280,650 200,700" fill="none" stroke="#7dd3fc" stroke-width="5" stroke-linejoin="round" stroke-linecap="round" stroke-dasharray="18 14" opacity="0.95"/>

  <g fill="#0f172a" font-family="Arial, sans-serif" font-size="20" font-weight="700">
    <circle cx="200" cy="700" r="12" fill="#0f172a" stroke="#f8fafc" stroke-width="4"/><circle cx="200" cy="700" r="5" fill="#38bdf8"/><rect x="214" y="656" rx="10" ry="10" width="220" height="34" fill="#0f172acc" stroke="#334155" stroke-width="1.5"/><text x="228" y="678" fill="#e2e8f0">Start line</text>
    <circle cx="500" cy="518" r="12" fill="#0f172a" stroke="#f8fafc" stroke-width="4"/><circle cx="500" cy="518" r="5" fill="#38bdf8"/><rect x="514" y="474" rx="10" ry="10" width="220" height="34" fill="#0f172acc" stroke="#334155" stroke-width="1.5"/><text x="528" y="496" fill="#e2e8f0">10km</text>
    <circle cx="1040" cy="440" r="12" fill="#0f172a" stroke="#f8fafc" stroke-width="4"/><circle cx="1040" cy="440" r="5" fill="#38bdf8"/><rect x="1054" y="396" rx="10" ry="10" width="220" height="34" fill="#0f172acc" stroke="#334155" stroke-width="1.5"/><text x="1068" y="418" fill="#e2e8f0">20km</text>
    <circle cx="1275" cy="845" r="12" fill="#0f172a" stroke="#f8fafc" stroke-width="4"/><circle cx="1275" cy="845" r="5" fill="#38bdf8"/><rect x="1289" y="801" rx="10" ry="10" width="220" height="34" fill="#0f172acc" stroke="#334155" stroke-width="1.5"/><text x="1303" y="823" fill="#e2e8f0">30km</text>
    <circle cx="760" cy="790" r="12" fill="#0f172a" stroke="#f8fafc" stroke-width="4"/><circle cx="760" cy="790" r="5" fill="#38bdf8"/><rect x="774" y="746" rx="10" ry="10" width="220" height="34" fill="#0f172acc" stroke="#334155" stroke-width="1.5"/><text x="788" y="768" fill="#e2e8f0">40km</text>
    <circle cx="200" cy="700" r="12" fill="#0f172a" stroke="#f8fafc" stroke-width="4"/><circle cx="200" cy="700" r="5" fill="#38bdf8"/><rect x="214" y="716" rx="10" ry="10" width="220" height="34" fill="#0f172acc" stroke="#334155" stroke-width="1.5"/><text x="228" y="738" fill="#e2e8f0">Finish line</text>
  </g>

  <g filter="url(#shadow)">
    <rect x="48" y="36" width="520" height="120" rx="20" fill="#0b1220d9" stroke="#334155" stroke-width="2"/>
  </g>
  <text x="74" y="92" font-size="40" fill="#f8fafc" font-family="Arial, sans-serif" font-weight="800">Road Run Marathon Course</text>
  <text x="74" y="130" font-size="24" fill="#cbd5e1" font-family="Arial, sans-serif">Checkpoint tags: Start line, 10km, 20km, 30km, 40km, Finish line</text>
</svg>
