<svg xmlns="http://www.w3.org/2000/svg" width="1600" height="900" viewBox="0 0 1600 900">
  <defs>
    <linearGradient id="bg" x1="0" y1="0" x2="0" y2="1">
      <stop offset="0%" stop-color="#e6f0db"/>
      <stop offset="100%" stop-color="#cfe2c7"/>
    </linearGradient>
    <filter id="shadow" x="-50%" y="-50%" width="200%" height="200%">
      <feDropShadow dx="0" dy="2" stdDeviation="4" flood-color="#00000066"/>
    </filter>
  </defs>

  <rect width="1600" height="900" fill="url(#bg)"/>
  <path d="M -50 100 C 170 60, 430 150, 690 110 C 950 70, 1230 150, 1650 100" stroke="#94a3b822" stroke-width="2" fill="none"/>
  <path d="M -50 220 C 170 180, 430 270, 690 230 C 950 190, 1230 270, 1650 220" stroke="#94a3b822" stroke-width="2" fill="none"/>
  <path d="M -50 340 C 170 300, 430 390, 690 350 C 950 310, 1230 390, 1650 340" stroke="#94a3b822" stroke-width="2" fill="none"/>
  <path d="M -50 460 C 170 420, 430 510, 690 470 C 950 430, 1230 510, 1650 460" stroke="#94a3b822" stroke-width="2" fill="none"/>
  <path d="M -50 580 C 170 540, 430 630, 690 590 C 950 550, 1230 630, 1650 580" stroke="#94a3b822" stroke-width="2" fill="none"/>
  <path d="M -50 700 C 170 660, 430 750, 690 710 C 950 670, 1230 750, 1650 700" stroke="#94a3b822" stroke-width="2" fill="none"/>
  <path d="M -50 820 C 170 780, 430 870, 690 830 C 950 790, 1230 870, 1650 820" stroke="#94a3b822" stroke-width="2" fill="none"/>

  <rect x="180" y="160" width="320" height="170" rx="40" fill="#a7c89f" opacity="0.56"/>
  <rect x="1120" y="130" width="300" height="180" rx="42" fill="#a7c89f" opacity="0.56"/>
  <rect x="220" y="590" width="320" height="180" rx="40" fill="#cde4c4" opacity="0.55"/>
  <rect x="960" y="500" width="420" height="250" rx="44" fill="#9ac8e3" opacity="0.5"/>

  <polyline points="220,680 300,590 390,500 510,430 680,390 860,400 1010,470 1140,560 1230,660 1280,760 1250,830 1110,850 900,820 720,760 570,690 470,610 420,520 450,430 560,340 720,290 920,280 1090,320 1220,410 1310,520 1360,650 1340,760 1260,820 1120,845" fill="none" stroke="#0f172a" stroke-width="24" stroke-linejoin="round" stroke-linecap="round" opacity="0.95"/>
  <polyline points="220,680 300,590 390,500 510,430 680,390 860,400 1010,470 1140,560 1230,660 1280,760 1250,830 1110,850 900,820 720,760 570,690 470,610 420,520 450,430 560,340 720,290 920,280 1090,320 1220,410 1310,520 1360,650 1340,760 1260,820 1120,845" fill="none" stroke="#f97316" stroke-width="14" stroke-linejoin="round" stroke-linecap="round"/>
  <polyline points="220,680 300,590 390,500 510,430 680,390 860,400 1010,470 1140,560 1230,660 1280,760 1250,830 1110,850 900,820 720,760 570,690 470,610 420,520 450,430 560,340 720,290 920,280 1090,320 1220,410 1310,520 1360,650 1340,760 1260,820 1120,845" fill="none" stroke="#fb923c" stroke-width="6" stroke-linejoin="round" stroke-linecap="round" stroke-dasharray="18 14" opacity="0.95"/>

  <g fill="#0f172a" font-family="Arial, sans-serif" font-size="20" font-weight="700">
    <circle cx="220" cy="680" r="12" fill="#0f172a" stroke="#f8fafc" stroke-width="4"/><circle cx="220" cy="680" r="5" fill="#38bdf8"/><rect x="234" y="636" rx="10" ry="10" width="220" height="34" fill="#0f172acc" stroke="#334155" stroke-width="1.5"/><text x="248" y="658" fill="#e2e8f0">Start line</text>
    <circle cx="500" cy="436" r="12" fill="#0f172a" stroke="#f8fafc" stroke-width="4"/><circle cx="500" cy="436" r="5" fill="#38bdf8"/><rect x="514" y="392" rx="10" ry="10" width="220" height="34" fill="#0f172acc" stroke="#334155" stroke-width="1.5"/><text x="528" y="414" fill="#e2e8f0">Climb 1</text>
    <circle cx="840" cy="399" r="12" fill="#0f172a" stroke="#f8fafc" stroke-width="4"/><circle cx="840" cy="399" r="5" fill="#38bdf8"/><rect x="854" y="355" rx="10" ry="10" width="220" height="34" fill="#0f172acc" stroke="#334155" stroke-width="1.5"/><text x="868" y="377" fill="#e2e8f0">Ridge section</text>
    <circle cx="1220" cy="817" r="12" fill="#0f172a" stroke="#f8fafc" stroke-width="4"/><circle cx="1220" cy="817" r="5" fill="#38bdf8"/><rect x="1234" y="773" rx="10" ry="10" width="220" height="34" fill="#0f172acc" stroke="#334155" stroke-width="1.5"/><text x="1248" y="795" fill="#e2e8f0">Forest descent</text>
    <circle cx="720" cy="290" r="12" fill="#0f172a" stroke="#f8fafc" stroke-width="4"/><circle cx="720" cy="290" r="5" fill="#38bdf8"/><rect x="734" y="246" rx="10" ry="10" width="220" height="34" fill="#0f172acc" stroke="#334155" stroke-width="1.5"/><text x="748" y="268" fill="#e2e8f0">Final climb</text>
    <circle cx="1120" cy="845" r="12" fill="#0f172a" stroke="#f8fafc" stroke-width="4"/><circle cx="1120" cy="845" r="5" fill="#38bdf8"/><rect x="1134" y="801" rx="10" ry="10" width="220" height="34" fill="#0f172acc" stroke="#334155" stroke-width="1.5"/><text x="1148" y="823" fill="#e2e8f0">Finish line</text>
  </g>

  <g filter="url(#shadow)">
    <rect x="48" y="36" width="500" height="120" rx="20" fill="#0b1220d9" stroke="#334155" stroke-width="2"/>
  </g>
  <text x="74" y="92" font-size="40" fill="#f8fafc" font-family="Arial, sans-serif" font-weight="800">Trail Long Course</text>
  <text x="74" y="130" font-size="24" fill="#cbd5e1" font-family="Arial, sans-serif">Checkpoint tags: Start line, Climb 1, Ridge section, Forest descent, Final climb, Finish line</text>
</svg>
